<?xml version="1.0" encoding="UTF-8" standalone="no"?>
<!-- Created with Inkscape (http://www.inkscape.org/) -->

<svg
   xmlns:dc="http://purl.org/dc/elements/1.1/"
   xmlns:cc="http://creativecommons.org/ns#"
   xmlns:rdf="http://www.w3.org/1999/02/22-rdf-syntax-ns#"
   xmlns:svg="http://www.w3.org/2000/svg"
   xmlns="http://www.w3.org/2000/svg"
   xmlns:sodipodi="http://sodipodi.sourceforge.net/DTD/sodipodi-0.dtd"
   xmlns:inkscape="http://www.inkscape.org/namespaces/inkscape"
   width="257.59106mm"
   height="25.499218mm"
   viewBox="0 0 912.72421 90.351562"
   id="hi-there"
   version="1.1"
   inkscape:version="0.91 r13725"
   sodipodi:docname="drawing.svg">
  <defs
     id="defs4" />
  <sodipodi:namedview
     id="base"
     pagecolor="#ffffff"
     bordercolor="#666666"
     borderopacity="1.0"
     inkscape:pageopacity="0.0"
     inkscape:pageshadow="2"
     inkscape:zoom="0.35"
     inkscape:cx="224.20242"
     inkscape:cy="-192.0308"
     inkscape:document-units="px"
     inkscape:current-layer="text4157"
     showgrid="false"
     inkscape:window-width="1600"
     inkscape:window-height="838"
     inkscape:window-x="859"
     inkscape:window-y="1072"
     inkscape:window-maximized="1"
     fit-margin-top="0"
     fit-margin-left="0"
     fit-margin-right="0"
     fit-margin-bottom="0" />
  <metadata
     id="metadata7">
    <rdf:RDF>
      <cc:Work
         rdf:about="">
        <dc:format>image/svg+xml</dc:format>
        <dc:type
           rdf:resource="http://purl.org/dc/dcmitype/StillImage" />
        <dc:title></dc:title>
      </cc:Work>
    </rdf:RDF>
  </metadata>
  <g
     inkscape:label="Layer 1"
     inkscape:groupmode="layer"
     id="layer1"
     transform="translate(175.02478,-178.105)">
    <flowRoot
       xml:space="preserve"
       id="flowRoot4141"
       style="font-style:normal;font-variant:normal;font-weight:normal;font-stretch:condensed;font-size:90px;line-height:125%;font-family:'Agency FB';-inkscape-font-specification:'Agency FB Condensed';letter-spacing:0px;word-spacing:0px;fill:#000000;fill-opacity:1;stroke:#000000;stroke-width:1px;stroke-linecap:butt;stroke-linejoin:miter;stroke-opacity:1"><flowRegion
         id="flowRegion4143"><rect
           id="rect4145"
           width="610.13214"
           height="474.7717"
           x="44.446712"
           y="222.01682"
           style="font-style:normal;font-variant:normal;font-weight:normal;font-stretch:condensed;font-size:90px;font-family:'Agency FB';-inkscape-font-specification:'Agency FB Condensed';fill:#000000;fill-opacity:1;stroke:#000000;stroke-opacity:1" /></flowRegion><flowPara
         id="flowPara4147" /></flowRoot>    <flowRoot
       xml:space="preserve"
       id="flowRoot4149"
       style="font-style:normal;font-weight:normal;font-size:40px;line-height:125%;font-family:sans-serif;letter-spacing:0px;word-spacing:0px;fill:#000000;fill-opacity:1;stroke:#000000;stroke-width:1px;stroke-linecap:butt;stroke-linejoin:miter;stroke-opacity:1"><flowRegion
         id="flowRegion4151"><rect
           id="rect4153"
           width="486.89352"
           height="439.41635"
           x="91.923882"
           y="247.27063"
           style="fill:#000000;fill-opacity:1;stroke:#000000;stroke-opacity:1" /></flowRegion><flowPara
         id="flowPara4155" /></flowRoot>    <g
       transform="matrix(0.89665134,0,0,1.1152607,-37.375644,-236.3757)"
       style="font-style:normal;font-variant:normal;font-weight:normal;font-stretch:normal;font-size:71.51715851px;line-height:125%;font-family:'Blackadder ITC';-inkscape-font-specification:'Blackadder ITC, Normal';text-align:start;letter-spacing:0px;word-spacing:0px;writing-mode:lr-tb;text-anchor:start;fill:#000000;fill-opacity:1;stroke:#000000;stroke-width:1px;stroke-linecap:butt;stroke-linejoin:miter;stroke-opacity:1"
       id="text4157">
      <g
         transform="scale(1.1152607,0.89665134)"
         style="font-style:normal;font-weight:normal;font-size:67.5px;line-height:125%;font-family:sans-serif;letter-spacing:0px;word-spacing:0px;fill:#000000;fill-opacity:1;stroke:#000000;stroke-width:1px;stroke-linecap:butt;stroke-linejoin:miter;stroke-opacity:1"
         id="text4222" />
      <g
         transform="scale(1.0751358,0.93011507)"
         style="font-style:normal;font-variant:normal;font-weight:normal;font-stretch:normal;font-size:114.78932953px;line-height:125%;font-family:'Merriweather Sans';-inkscape-font-specification:'Merriweather Sans, Normal';text-align:start;letter-spacing:0px;word-spacing:0px;writing-mode:lr-tb;text-anchor:start;fill:#ffffff;fill-opacity:1;stroke:#ffffff;stroke-width:1px;stroke-linecap:butt;stroke-linejoin:miter;stroke-opacity:1"
         id="text4748">
        <path
           d="m -142.78637,485.77258 0,-85.3073 12.49903,0 0,42.8218 33.797834,-42.8218 14.741012,0 -30.210666,36.76846 q 1.90568,3.08272 12.835328,19.33707 10.929648,16.19829 14.797062,23.03633 l 3.643216,6.16544 -14.404715,0 q -0.504446,-0.78469 -1.513336,-2.74642 -1.008891,-1.96173 -1.905682,-3.58717 -3.250873,-5.82914 -11.714343,-18.60842 -8.46347,-12.77929 -9.47236,-14.34867 l -10.59335,12.33088 0,26.9598 -12.49903,0 z"
           style="fill:#ffffff;stroke:#ffffff;stroke-opacity:1"
           id="path4191" />
        <path
           d="m -66.110692,485.77258 0,-85.3073 49.099342,0 0,9.64051 -36.600309,0 0,26.90375 26.8477,0 0,9.64051 -26.8477,0 0,29.31387 40.69192,0 0,9.80866 -53.190953,0 z"
           style="fill:#ffffff;stroke:#ffffff;stroke-opacity:1"
           id="path4193" />
        <path
           d="m -1.6537919,481.79307 2.9706223,-10.25705 q 3.4190181,2.12988 9.0239656,3.69926 5.604948,1.51334 11.097797,1.51334 16.982991,0 16.982991,-11.82644 0,-1.79359 -0.504445,-3.36297 -0.448396,-1.56939 -1.120989,-2.80248 -0.616545,-1.23308 -2.073831,-2.52222 -1.457287,-1.34519 -2.690375,-2.24198 -1.233089,-0.95284 -3.587167,-2.24198 -2.298028,-1.34519 -4.035562,-2.18593 -1.737534,-0.89679 -4.876304,-2.41013 -21.3548513,-10.36915 -21.3548513,-25.67066 0,-4.7642 1.62543481,-8.51952 1.62543479,-3.81136 4.31580979,-6.27754 2.7464243,-2.46618 6.4456897,-4.09161 3.755315,-1.62544 7.678779,-2.29803 3.979512,-0.72864 8.295322,-0.72864 7.006185,0 12.050638,1.34518 5.044453,1.28914 7.790877,3.08273 l -2.522226,9.8647 q -3.643216,-2.18593 -7.454581,-3.30692 -3.811364,-1.17703 -10.032856,-1.17703 -4.259761,0 -7.846927,1.06494 -3.531117,1.00889 -5.997294,3.47506 -2.410128,2.41013 -2.410128,5.8852 0,2.07383 0.336297,3.75531 0.392347,1.62544 1.345188,3.13877 1.00889,1.51334 2.12988,2.69038 1.177039,1.12099 3.362968,2.57827 2.18593,1.40124 4.259761,2.57828 2.07383,1.12099 5.548898,2.91457 4.147661,2.12988 6.781987,3.64322 2.634325,1.51334 6.165442,4.09161 3.531117,2.57828 5.604948,5.04445 2.073831,2.41013 3.531117,5.8852 1.513336,3.47507 1.513336,7.34248 0,11.49014 -7.734828,17.37534 -7.678778,5.82914 -20.682257,5.82914 -7.678778,0 -14.4607652,-1.56938 -6.7819868,-1.56939 -9.4723617,-3.30692 z"
           style="fill:#ffffff;stroke:#ffffff;stroke-opacity:1"
           id="path4195" />
        <path
           d="m 65.493487,485.77258 0,-85.3073 12.499033,0 0,37.385 40.24353,0 0,-37.385 12.49903,0 0,85.3073 -12.49903,0 0,-38.28179 -40.24353,0 0,38.28179 -12.499033,0 z"
           style="fill:#ffffff;stroke:#ffffff;stroke-opacity:1"
           id="path4197" />
        <path
           d="m 142.78571,485.77258 32.6208,-86.20409 12.05064,0 31.8361,86.20409 -13.50793,0 -7.28643,-21.57905 -34.86277,0 -7.62273,21.57905 -13.22768,0 z m 24.15733,-30.88326 28.41708,0 -11.43409,-34.13413 -2.41013,-7.95903 -2.46618,7.95903 -12.10668,34.13413 z"
           style="fill:#ffffff;stroke:#ffffff;stroke-opacity:1"
           id="path4199" />
        <path
           d="m 253.65158,486.50123 -31.89215,-86.03595 13.28372,0 20.17781,57.39466 3.75532,13.17163 3.86741,-13.17163 19.28102,-57.39466 13.11558,0 -31.10746,86.03595 -10.48125,0 z"
           style="fill:#ffffff;stroke:#ffffff;stroke-opacity:1"
           id="path4201" />
        <path
           d="m 344.17148,485.77258 0,-85.3073 5.8852,0 q 3.13877,0 9.8647,-0.4484 6.72594,-0.44839 10.6494,-0.44839 14.29262,0 22.02745,6.78198 7.73483,6.72594 7.73483,20.85041 0,14.01237 -8.40742,21.69115 -8.35138,7.62273 -24.21338,7.62273 -0.1121,0 -11.04175,-0.28025 l 0,29.53807 -12.49903,0 z m 12.49903,-39.01043 q 4.14767,0.56049 10.31311,0.56049 3.58716,0 6.38964,-0.44839 2.85852,-0.4484 5.661,-1.73754 2.80247,-1.34519 4.6521,-3.53112 1.90568,-2.18592 3.02667,-5.77309 1.17704,-3.64322 1.17704,-8.51952 0,-10.08891 -5.3247,-14.57287 -5.26865,-4.54 -15.7499,-4.20371 -6.78199,0.2242 -10.14496,1.06494 l 0,37.16081 z"
           style="fill:#ffffff;stroke:#ffffff;stroke-opacity:1"
           id="path4203" />
        <path
           d="m 405.54569,485.77258 32.6208,-86.20409 12.05063,0 31.83611,86.20409 -13.50793,0 -7.28643,-21.57905 -34.86277,0 -7.62273,21.57905 -13.22768,0 z m 24.15733,-30.88326 28.41708,0 -11.43409,-34.13413 -2.41013,-7.95903 -2.46618,7.95903 -12.10668,34.13413 z"
           style="fill:#ffffff;stroke:#ffffff;stroke-opacity:1"
           id="path4205" />
        <path
           d="m 494.15991,485.77258 0,-85.3073 5.4368,0 q 2.41013,0 9.86471,-0.4484 7.45458,-0.44839 11.88249,-0.44839 13.67607,0 21.35485,5.88519 7.67878,5.82915 7.67878,18.10398 0,9.19212 -4.03556,15.13336 -3.97951,5.94125 -11.37805,8.51952 2.74643,1.90568 5.38075,6.05335 2.69038,4.09161 4.48396,8.18322 1.79359,4.03556 4.14766,9.52841 2.41013,5.49285 4.09162,8.51952 1.84963,3.47507 3.41901,6.27754 l -14.18051,0 q -0.4484,-0.61654 -3.08273,-6.27754 -1.06494,-2.29803 -2.69037,-6.55779 -1.62544,-4.31581 -3.02667,-7.62273 -1.34519,-3.36296 -3.19482,-6.89408 -1.79359,-3.53112 -4.03556,-5.8852 -2.24198,-2.41012 -4.76421,-3.19482 -3.30692,0.1121 -14.85311,0.1121 l 0,36.32006 -12.49904,0 z m 12.49904,-45.17588 q 2.97062,0.3363 13.17163,0.3363 17.76768,0 17.76768,-16.75879 0,-8.07113 -4.20371,-11.71434 -4.20371,-3.69927 -13.90027,-3.69927 -7.84693,0 -12.83533,1.00889 l 0,30.82721 z"
           style="fill:#ffffff;stroke:#ffffff;stroke-opacity:1"
           id="path4207" />
        <path
           d="m 584.67979,486.66937 -23.48473,-86.20409 12.83533,0 13.56398,55.37688 2.80247,15.46966 2.85852,-15.46966 16.0862,-55.37688 9.02397,0 16.3104,55.37688 3.69926,15.58176 2.63433,-15.52571 12.66718,-55.43293 12.55508,0 -22.02744,86.20409 -12.21879,0 -16.25434,-55.93737 -1.96174,-10.20101 -1.90568,10.25706 -16.47855,55.88132 -10.70545,0 z"
           style="fill:#ffffff;stroke:#ffffff;stroke-opacity:1"
           id="path4209" />
        <path
           d="m 668.754,485.77258 32.6208,-86.20409 12.05064,0 31.8361,86.20409 -13.50792,0 -7.28644,-21.57905 -34.86277,0 -7.62273,21.57905 -13.22768,0 z m 24.15733,-30.88326 28.41708,0 -11.43409,-34.13413 -2.41013,-7.95903 -2.46617,7.95903 -12.10669,34.13413 z"
           style="fill:#ffffff;stroke:#ffffff;stroke-opacity:1"
           id="path4211" />
        <path
           d="m 757.36823,485.77258 0,-85.3073 12.77928,0 0,75.49864 33.85388,0 0,9.80866 -46.63316,0 z"
           style="fill:#ffffff;stroke:#ffffff;stroke-opacity:1"
           id="path4213" />
      </g>
    </g>
  </g>
</svg>
