<?xml version="1.0" encoding="UTF-8" standalone="no"?>
<!-- Created with Inkscape (http://www.inkscape.org/) -->

<svg
   xmlns:dc="http://purl.org/dc/elements/1.1/"
   xmlns:cc="http://creativecommons.org/ns#"
   xmlns:rdf="http://www.w3.org/1999/02/22-rdf-syntax-ns#"
   xmlns:svg="http://www.w3.org/2000/svg"
   xmlns="http://www.w3.org/2000/svg"
   xmlns:sodipodi="http://sodipodi.sourceforge.net/DTD/sodipodi-0.dtd"
   xmlns:inkscape="http://www.inkscape.org/namespaces/inkscape"
   width="134.38263mm"
   height="51.190517mm"
   viewBox="0 0 476.1589 181.38371"
   id="svg4361"
   version="1.1"
   inkscape:version="0.91 r13725"
   sodipodi:docname="firstname.svg">
  <defs
     id="defs4363">
    <inkscape:path-effect
       effect="envelope"
       id="path-effect5084"
       is_visible="true"
       yy="true"
       xx="true"
       bendpath1="m 24.28511,43.905111 555.43186,0"
       bendpath2="m 579.71697,43.905111 0,185.887039"
       bendpath3="m 24.28511,229.79215 c 185.14395,-18.57397 370.28791,-13.64536 555.43186,0"
       bendpath4="m 24.28511,43.905111 0,185.887039"
       bendpath3-nodetypes="cc" />
    <inkscape:path-effect
       effect="envelope"
       id="path-effect6896"
       is_visible="true"
       yy="true"
       xx="true"
       bendpath1="m 79.171033,459.57541 606.797367,0"
       bendpath2="m 685.9684,459.57541 0,130.75893"
       bendpath3="m 79.171033,590.33434 c 207.392057,-21.53033 408.917057,-18.419 606.797367,0"
       bendpath4="m 79.171033,459.57541 0,130.75893"
       bendpath3-nodetypes="cc" />
    <inkscape:path-effect
       effect="envelope"
       id="path-effect6891"
       is_visible="true"
       yy="true"
       xx="true"
       bendpath1="m 79.616607,460.09969 605.575643,0"
       bendpath2="m 685.19225,460.09969 0,132.15874"
       bendpath3="m 79.616607,592.25843 c 212.395383,-19.75657 407.757923,-7.57656 605.575643,0"
       bendpath4="m 79.616607,460.09969 0,132.15874"
       bendpath3-nodetypes="cc" />
    <filter
       inkscape:collect="always"
       style="color-interpolation-filters:sRGB"
       id="filter5118"
       x="-0.03579811"
       width="1.0715961"
       y="-0.10985872"
       height="1.2197174">
      <feGaussianBlur
         inkscape:collect="always"
         stdDeviation="8.2927212"
         id="feGaussianBlur5120" />
    </filter>
  </defs>
  <sodipodi:namedview
     id="base"
     pagecolor="#ffffff"
     bordercolor="#666666"
     borderopacity="1.0"
     inkscape:pageopacity="0.0"
     inkscape:pageshadow="2"
     inkscape:zoom="0.49497475"
     inkscape:cx="710.52314"
     inkscape:cy="-93.201617"
     inkscape:document-units="px"
     inkscape:current-layer="g4146"
     showgrid="false"
     fit-margin-top="0"
     fit-margin-left="0"
     fit-margin-right="0"
     fit-margin-bottom="0"
     inkscape:window-width="1600"
     inkscape:window-height="838"
     inkscape:window-x="859"
     inkscape:window-y="1072"
     inkscape:window-maximized="1" />
  <metadata
     id="metadata4366">
    <rdf:RDF>
      <cc:Work
         rdf:about="">
        <dc:format>image/svg+xml</dc:format>
        <dc:type
           rdf:resource="http://purl.org/dc/dcmitype/StillImage" />
        <dc:title />
      </cc:Work>
    </rdf:RDF>
  </metadata>
  <g
     inkscape:label="Layer 1"
     inkscape:groupmode="layer"
     id="layer1"
     transform="translate(47.435045,-31.470174)">
    <g
       id="g4146"
       transform="matrix(0.8,0,0,0.8,37.93702,25.710544)">
      <g
         style="fill:#000000;filter:url(#filter5118)"
         id="g5070"
         transform="translate(-111.11678,-16.284271)">
        <g
           style="fill:#000000"
           transform="translate(-218.19295,-178.797)"
           id="g5072">
          <path
             transform="translate(555.58389,63.639611)"
             style="font-style:normal;font-variant:normal;font-weight:normal;font-stretch:normal;font-size:166.26571655px;line-height:125%;font-family:'MV Boli';-inkscape-font-specification:'MV Boli, Normal';text-align:start;letter-spacing:0px;word-spacing:0px;writing-mode:lr-tb;text-anchor:start;fill:#000000;fill-opacity:1;stroke:none;stroke-width:1px;stroke-linecap:butt;stroke-linejoin:miter;stroke-opacity:1"
             d="m 4.3242188,159.0625 c -4.80096606,0 -10.281816,1.08149 -15.1992188,3.50391 -0.201765,0.0998 -0.4023,0.20198 -0.601562,0.30664 -3.346588,1.75168 -6.623911,4.16507 -9.373047,7.04297 -2.487296,2.60374 -4.758913,5.78339 -6.449219,9.32226 -1.036618,2.17038 -2.014823,4.63394 -2.732422,7.63867 l -0.002,0.008 -4.855469,20.35937 c -0.387425,-0.17069 -0.768146,-0.39472 -1.15625,-0.54883 -4.27797,-1.69865 -8.632715,-2.62509 -12.789062,-2.99804 -2.540572,-0.22795 -5.062585,-0.36133 -7.621094,-0.36133 -3.79252,0 -7.695331,0.42928 -11.542969,1.36914 -0.07038,0.0173 -0.140694,0.0349 -0.210937,0.0527 -3.046617,0.76983 -5.99267,1.79084 -8.806641,3.00977 -0.109035,0.0475 -0.217761,0.0957 -0.326172,0.14453 -2.780325,1.24738 -5.429015,2.69438 -7.947265,4.29492 -1.658596,1.05417 -3.30234,2.21234 -4.947266,3.38867 -3.075067,1.77335 -6.019742,3.72305 -8.699219,5.9375 -0.09296,0.0769 -0.185405,0.15434 -0.277344,0.23242 -0.137337,0.11657 -0.24818,0.26336 -0.384765,0.38086 -0.02802,-0.0264 -0.05199,-0.0577 -0.08008,-0.084 l -0.002,0 c -4.750447,-4.44008 -10.275237,-7.39193 -15.566397,-9.19531 -5.86194,-1.99791 -11.52246,-2.63672 -16.90822,-2.63672 -6.84971,0 -13.87749,1.27827 -20.35741,3.83594 -0.0482,0.0194 -0.0964,0.0389 -0.14453,0.0586 -5.30027,2.12693 -10.33186,4.93145 -14.92969,8.28711 -0.0405,0.0294 -0.0767,0.0643 -0.11718,0.0937 0.10174,-0.15876 0.22486,-0.30187 0.32617,-0.46094 1.64635,-2.58466 2.85035,-5.42568 3.5625,-8.40625 0.83964,-3.51583 0.99218,-6.31726 0.99218,-8.8125 0,-3.24655 -0.37781,-6.2409 -0.95117,-9.03906 -0.66512,-3.3087 -1.76929,-6.76648 -3.44922,-10.18164 -1.93382,-3.98381 -4.87424,-8.04468 -8.66992,-11.35938 -5.3339,-4.65962 -13.76506,-7.95703 -20.92969,-7.95703 -7.53571,0 -16.75426,3.32614 -22.69531,8.69727 -3.18004,2.87501 -5.85425,6.16613 -7.99023,9.58594 -0.038,0.0624 -0.0758,0.12485 -0.11328,0.1875 -0.35846,-0.57472 -0.64989,-1.14946 -1.06055,-1.72266 -3.90945,-5.45668 -9.90307,-9.332 -15.17188,-11.22656 -5.16958,-1.89098 -9.23347,-2.19727 -12.63867,-2.19727 -6.56719,0 -15.22505,2.023 -22.12695,7.55664 -6.90191,5.53365 -10.65591,13.33388 -12.1504,19.5918 l -0.008,0.0391 -18.48633,77.91211 c -0.46853,1.96446 -0.90914,4.01422 -1.33594,6.18359 -8.1e-4,0.004 -0.001,0.008 -0.002,0.0117 -0.42066,2.08485 -0.8091,4.18545 -1.16602,6.30274 -0.0418,0.24881 -0.0802,0.49818 -0.11523,0.74804 -0.29343,2.08877 -0.56173,4.16392 -0.80077,6.22852 -0.0272,0.23731 -0.0513,0.47496 -0.0723,0.71289 -0.21772,2.43108 -0.34961,4.8216 -0.34961,7.27734 0,1.99115 0.0864,3.9383 0.23242,5.92579 0.002,0.0267 0.004,0.0534 0.006,0.0801 0.2712,3.54859 0.97911,7.1411 2.1211,10.57813 0.0396,0.11811 0.0799,0.23595 0.12109,0.35351 1.53681,4.42413 4.18095,9.14393 7.93164,13.07032 0.20491,0.21428 0.41327,0.42525 0.625,0.63281 6.16945,6.05479 15.71683,9.14062 22.64453,9.14062 6.9554,4e-5 17.24484,-2.42812 24.6875,-10.04101 4.52021,-4.60056 7.77202,-10.57146 9.33985,-16.22461 l 0,-0.002 c 1.14247,-4.11969 1.68167,-8.23025 1.7871,-12.20118 l -0.0293,0.72852 c 0.0946,-1.78374 0.15894,-3.44638 0.2168,-5.08594 0.10309,0.0713 -3e-5,-0.007 0.12891,0.0899 0.1832,0.13772 0.36811,0.27314 0.55469,0.40625 0.33924,0.24179 0.78057,0.61359 1.40039,1.3789 0.0717,0.0883 0.14399,0.17623 0.21679,0.26367 0.50763,0.61111 1.09383,1.4747 1.72657,2.82227 0.0778,0.1655 0.15721,0.33022 0.23828,0.49414 0.31247,0.63241 0.55693,1.32013 0.73241,2.43359 5.7e-4,0.004 0.001,0.004 0.002,0.008 l 0.29688,1.95703 c 0.01,0.0619 0.0193,0.12373 0.0293,0.18555 0.18351,1.15267 0.37268,2.40865 0.56445,3.76367 0.0441,0.31398 0.0936,0.62718 0.14843,0.93945 0.59306,3.35235 1.55897,6.81239 3.05078,10.24805 0.13197,0.30257 0.26937,0.60275 0.41211,0.90039 2.23463,4.67855 5.85127,9.3712 10.3047,12.83984 7.19127,5.61296 15.3623,7.08594 21.31835,7.08594 4.65531,0 9.76585,-0.97431 14.375,-3.00586 3.43895,-1.51577 6.76618,-3.66753 9.67188,-6.22461 0.038,-0.0329 0.0676,-0.0725 0.10546,-0.10547 0.007,0.003 0.0129,0.007 0.0195,0.01 0.0957,-0.085 0.20997,-0.14844 0.30469,-0.23438 l -0.28125,0.2461 c 2.81212,1.31435 5.72713,2.47655 8.78906,3.30078 3.13433,0.84371 6.38795,1.47871 9.78906,1.8125 0.0267,0.003 0.0534,0.005 0.0801,0.008 2.38399,0.22689 4.67929,0.37305 7.13477,0.37305 9.25596,0 18.47846,-1.39553 27.22657,-4.33008 4.33905,-1.44714 8.48395,-3.34503 12.46483,-5.54297 0.32125,0.23724 0.621,0.53147 0.94531,0.75781 0.36509,0.25505 0.73629,0.50121 1.11329,0.73828 3.05754,1.92046 6.30037,3.47468 9.58984,4.66211 0.27903,0.10088 0.55967,0.19724 0.8418,0.28906 3.653449,1.1869 7.840103,2.09766 12.724611,2.09766 5.340336,0 10.354023,-0.79215 15.160156,-2.02539 4.433346,-1.12437 8.788026,-2.59487 13.025391,-4.38477 0.07697,-0.0322 0.153794,-0.0647 0.230469,-0.0976 2.623217,-1.1363 5.08771,-2.58611 7.599609,-3.94336 l 0.01953,0.0273 c 6.780877,9.60389 19.401478,13.58008 27.046876,13.58008 5.292089,0 12.667516,-0.64256 20.5253901,-6.41992 0.9601859,-0.69501 1.7862233,-1.41362 2.6015625,-2.13477 8.4965739,8.45614 18.8612984,9.80079 25.6718754,9.80078 5.776624,0 12.864008,-1.71371 18.765625,-5.54687 3.146313,-2.01534 5.990066,-4.59931 8.339843,-7.45117 2.734653,1.73079 5.518779,3.19676 8.246094,4.14844 4.417216,1.54135 9.126661,2.2871 13.605469,2.2871 4.293566,0 8.225721,-0.77184 11.826172,-1.89843 3.789805,2.29788 7.07228,3.2926 9.777343,3.92187 0.10468,0.024 0.2095,0.0475 0.314454,0.0703 4.084393,0.90012 7.0216,0.97851 9.90039,0.97851 4.856,0 11.32676,-0.93017 17.75976,-4.9707 3.13924,-1.97174 6.27982,-4.64275 8.88867,-7.91992 0.22158,-0.2777 0.43777,-0.55966 0.64844,-0.84571 0.14577,-0.19838 0.27136,-0.46638 0.41602,-0.67187 0.81068,1.30864 1.6473,2.5999 2.58008,3.7539 0.037,0.045 0.0741,0.09 0.11132,0.13477 2.59832,3.17328 5.92248,6.05777 9.5625,8.20117 l 0,0.002 c 5.38179,3.169 11.68371,4.56055 16.92578,4.56055 1.64345,0 3.55087,-0.22213 5.58204,-0.61133 0.39953,-0.0692 0.96764,-0.0631 1.33789,-0.14062 3.63773,-0.7616 6.08774,-1.82016 8.16992,-2.82617 3.45457,-1.66912 6.00733,-3.58841 8.14648,-5.4668 2.94119,-2.51849 5.06206,-5.03721 6.79297,-7.45313 l 0.002,0 c 1.51903,-2.12024 2.65523,-4.15702 3.67774,-6.17187 l 36.25781,-53.57422 0.0254,-0.0391 c 2.87092,-4.25763 5.38279,-8.80135 7.24414,-14.10352 1.90664,-5.33815 2.94336,-11.12827 2.94336,-16.84375 0,-6.09437 -1.66687,-13.79623 -6.21094,-20.39844 -7.6227,-11.12975 -20.46198,-13.90234 -27.6289,-13.90234 -4.23424,0 -8.9944,0.75434 -13.57031,2.61719 -0.17325,0.0705 -0.34579,0.14278 -0.51758,0.2168 -3.12651,1.34769 -6.19469,3.19306 -8.94141,5.43359 -2.74358,2.22751 -5.06851,4.82354 -6.9375,7.49609 -0.0519,0.0721 -0.1005,0.16363 -0.15234,0.23633 -0.005,-0.007 -0.0121,-0.0141 -0.0176,-0.0215 -0.0289,0.042 -0.069,0.081 -0.0977,0.12304 l 0.0918,-0.13086 c -1.54163,-2.09796 -3.32365,-4.09919 -5.39453,-5.90234 -7.06305,-6.2256 -16.3776,-8.57227 -23.17969,-8.57226 -6.75456,0 -14.09445,2.60232 -19.16601,6.29687 -4.87392,-1.76734 -9.22455,-2.22852 -12.97071,-2.22852 -2.04735,0 -4.14831,0.13566 -6.26953,0.43165 l -0.0488,0.008 c -0.0462,-0.005 -0.0845,-0.0125 -0.13086,-0.0176 -0.004,-4.9e-4 -0.009,4.9e-4 -0.0137,0 -2.29829,-0.25741 -4.62646,-0.42188 -7.10547,-0.42188 -4.68857,0 -9.353258,0.52829 -13.892571,1.49415 -7.323723,1.48646 -13.759333,4.729 -19.078125,8.60937 -3.36916,2.44775 -6.513268,5.16495 -9.546875,8 -6.875239,-6.12071 -16.818278,-9.63086 -24.451172,-9.63086 -0.77051,0 -1.535412,0.17273 -2.306641,0.20117 1.200199,-4.92549 2.518974,-10.12269 3.654297,-14.89844 l 0.0039,-0.0195 c 0.337489,-1.4146 0.633088,-2.8206 0.880859,-4.37695 0.01757,-0.10797 0.0345,-0.21605 0.05078,-0.32422 0.159671,-1.08644 0.453125,-0.68955 0.453125,-5.42187 0,-6.25159 -2.751096,-14.88811 -8.082031,-20.74219 -3.852932,-4.20159 -8.926554,-7.16982 -13.539062,-8.69141 -3.152435,-1.06761 -6.159634,-1.62469 -8.9218755,-1.83007 -1.6084708,-0.1619 -3.2374897,-0.2978 -4.9646397,-0.2978 z m -227.4374988,37.17188 0.23242,1.32421 c -0.0176,-0.11687 -0.0786,-0.26637 -0.0977,-0.38476 -0.0576,-0.32487 -0.0677,-0.60595 -0.13476,-0.93945 z m 0.66992,14.14453 -0.082,1.18164 c 0.0234,-0.25748 0.013,-0.50699 0.0332,-0.76367 0.008,-0.14372 0.0419,-0.27367 0.0488,-0.41797 z m -0.62109,5.81836 -0.19141,1.20703 c 0.0178,-0.0979 0.0178,-0.20649 0.0352,-0.30469 0.045,-0.30243 0.11482,-0.5988 0.15625,-0.90234 z m 201.046872,0.31054 0.873047,1.00781 c -0.188515,-0.2285 -0.419926,-0.42618 -0.615235,-0.65039 -0.09892,-0.11215 -0.156915,-0.24651 -0.257812,-0.35742 z m 166.835938,2.31055 0.65234,0.76953 c -0.14394,-0.1758 -0.31367,-0.31825 -0.46093,-0.49023 -0.0742,-0.086 -0.11633,-0.19416 -0.19141,-0.2793 z m -129.214844,0.38281 c -0.04078,0.0144 -0.07839,0.0363 -0.119141,0.0508 -0.0304,0.011 -0.06336,0.0144 -0.09375,0.0254 z M 183.40625,226.5 l 0.10156,0.26367 c -0.0186,-0.0493 -0.0476,-0.10099 -0.0664,-0.15039 -0.0148,-0.0385 -0.0202,-0.0748 -0.0352,-0.11328 z m -118.888672,1.5957 0.265625,0.32032 c -0.05405,-0.0667 -0.122961,-0.12323 -0.177734,-0.18946 -0.03379,-0.0408 -0.05389,-0.0902 -0.08789,-0.13086 z m 87.097652,2.72657 0.52344,1.73632 c -0.0581,-0.219 -0.19616,-0.44383 -0.25976,-0.66406 -0.1072,-0.35468 -0.14513,-0.72064 -0.26368,-1.07226 z m -35.22851,0.90234 c -0.009,0.0398 -0.0105,0.0793 -0.0195,0.11914 -0.008,0.0348 -0.0236,0.0726 -0.0312,0.10742 l 0.0508,-0.22656 z m -205.902345,5.37305 0.09766,0.25 c -0.02084,-0.0545 -0.05115,-0.10761 -0.07227,-0.16211 -0.01124,-0.0288 -0.01408,-0.0592 -0.02539,-0.0879 z m 275.976565,1.96289 0.0723,0.59961 c -0.007,-0.0665 -0.0256,-0.13653 -0.0332,-0.20313 -0.0169,-0.13019 -0.0217,-0.26647 -0.0391,-0.39648 z m -389.89258,1.625 0.125,0.0859 c -0.0223,-0.0154 -0.048,-0.0256 -0.0703,-0.041 -0.0195,-0.0133 -0.0352,-0.0316 -0.0547,-0.0449 z m -38.53125,53.89843 c 0.31022,-0.13437 1.2887,0.4699 -1.20313,0.89258 0.0107,-0.13819 0.0181,-0.2682 0.0293,-0.4082 0.11561,-0.0462 0.27814,-0.11549 0.39063,-0.16016 0.26271,-0.10405 0.52381,-0.21214 0.7832,-0.32422 z m 103.97461,12.44922 -0.10156,0.0234 c 0.0106,-0.003 0.0207,-0.007 0.0312,-0.01 0.0236,-0.006 0.0467,-0.008 0.0703,-0.0137 z m 103.310546,10.57032 -1.035157,0.94921 c 0.251053,-0.219 0.365528,-0.36085 0.595703,-0.56835 0.141556,-0.13435 0.298897,-0.24504 0.439454,-0.38086 z m 42.0605465,5.26171 -0.3339844,0.67774 c 0.038527,-0.0753 0.057667,-0.14759 0.095703,-0.22266 0.071728,-0.14696 0.1690418,-0.31011 0.2382814,-0.45508 z m 47.3339845,3.97852 -0.8125,1.29102 c 0.103299,-0.15448 0.155359,-0.31937 0.255859,-0.47461 0.174075,-0.27512 0.393021,-0.53972 0.556641,-0.81641 z m -225.546877,0.21289 -0.40625,0.63867 c 0.075,-0.11424 0.12916,-0.24602 0.20313,-0.36133 0.0596,-0.0945 0.14461,-0.18268 0.20312,-0.27734 z"
             id="path5074"
             inkscape:connector-curvature="0"
             sodipodi:nodetypes="sccscccccssccccsccccccssccccccscccssccscsscccccccccsccccccscccccccccccccccccccccsscccccsccsccccccscccccsccsccsscccsscccccccsccscccccccscscccccccccscsccccscccscccccscccsccccccccccccccccccccccccccccccccccccccccccccccccccccccccccccccccccccccccccccccccccc" />
        </g>
      </g>
      <g
         style="fill:#ffffff"
         transform="translate(-111.11678,-28.284271)"
         id="g5066">
        <g
           style="fill:#ffffff"
           id="g5063"
           transform="translate(-218.19295,-178.797)">
          <path
             sodipodi:nodetypes="sccscccccssccccsccccccssccccccscccssccscsscccccccccsccccccscccccccccccccccccccccsscccccsccsccccccscccccsccsccsscccsscccccccsccscccccccscscccccccccscsccccscccscccccscccsccccccccccccccccccccccccccccccccccccccccccccccccccccccccccccccccccccccccccccccccccc"
             inkscape:connector-curvature="0"
             id="path5051"
             d="m 4.3242188,159.0625 c -4.80096606,0 -10.281816,1.08149 -15.1992188,3.50391 -0.201765,0.0998 -0.4023,0.20198 -0.601562,0.30664 -3.346588,1.75168 -6.623911,4.16507 -9.373047,7.04297 -2.487296,2.60374 -4.758913,5.78339 -6.449219,9.32226 -1.036618,2.17038 -2.014823,4.63394 -2.732422,7.63867 l -0.002,0.008 -4.855469,20.35937 c -0.387425,-0.17069 -0.768146,-0.39472 -1.15625,-0.54883 -4.27797,-1.69865 -8.632715,-2.62509 -12.789062,-2.99804 -2.540572,-0.22795 -5.062585,-0.36133 -7.621094,-0.36133 -3.79252,0 -7.695331,0.42928 -11.542969,1.36914 -0.07038,0.0173 -0.140694,0.0349 -0.210937,0.0527 -3.046617,0.76983 -5.99267,1.79084 -8.806641,3.00977 -0.109035,0.0475 -0.217761,0.0957 -0.326172,0.14453 -2.780325,1.24738 -5.429015,2.69438 -7.947265,4.29492 -1.658596,1.05417 -3.30234,2.21234 -4.947266,3.38867 -3.075067,1.77335 -6.019742,3.72305 -8.699219,5.9375 -0.09296,0.0769 -0.185405,0.15434 -0.277344,0.23242 -0.137337,0.11657 -0.24818,0.26336 -0.384765,0.38086 -0.02802,-0.0264 -0.05199,-0.0577 -0.08008,-0.084 l -0.002,0 c -4.750447,-4.44008 -10.275237,-7.39193 -15.566397,-9.19531 -5.86194,-1.99791 -11.52246,-2.63672 -16.90822,-2.63672 -6.84971,0 -13.87749,1.27827 -20.35741,3.83594 -0.0482,0.0194 -0.0964,0.0389 -0.14453,0.0586 -5.30027,2.12693 -10.33186,4.93145 -14.92969,8.28711 -0.0405,0.0294 -0.0767,0.0643 -0.11718,0.0937 0.10174,-0.15876 0.22486,-0.30187 0.32617,-0.46094 1.64635,-2.58466 2.85035,-5.42568 3.5625,-8.40625 0.83964,-3.51583 0.99218,-6.31726 0.99218,-8.8125 0,-3.24655 -0.37781,-6.2409 -0.95117,-9.03906 -0.66512,-3.3087 -1.76929,-6.76648 -3.44922,-10.18164 -1.93382,-3.98381 -4.87424,-8.04468 -8.66992,-11.35938 -5.3339,-4.65962 -13.76506,-7.95703 -20.92969,-7.95703 -7.53571,0 -16.75426,3.32614 -22.69531,8.69727 -3.18004,2.87501 -5.85425,6.16613 -7.99023,9.58594 -0.038,0.0624 -0.0758,0.12485 -0.11328,0.1875 -0.35846,-0.57472 -0.64989,-1.14946 -1.06055,-1.72266 -3.90945,-5.45668 -9.90307,-9.332 -15.17188,-11.22656 -5.16958,-1.89098 -9.23347,-2.19727 -12.63867,-2.19727 -6.56719,0 -15.22505,2.023 -22.12695,7.55664 -6.90191,5.53365 -10.65591,13.33388 -12.1504,19.5918 l -0.008,0.0391 -18.48633,77.91211 c -0.46853,1.96446 -0.90914,4.01422 -1.33594,6.18359 -8.1e-4,0.004 -0.001,0.008 -0.002,0.0117 -0.42066,2.08485 -0.8091,4.18545 -1.16602,6.30274 -0.0418,0.24881 -0.0802,0.49818 -0.11523,0.74804 -0.29343,2.08877 -0.56173,4.16392 -0.80077,6.22852 -0.0272,0.23731 -0.0513,0.47496 -0.0723,0.71289 -0.21772,2.43108 -0.34961,4.8216 -0.34961,7.27734 0,1.99115 0.0864,3.9383 0.23242,5.92579 0.002,0.0267 0.004,0.0534 0.006,0.0801 0.2712,3.54859 0.97911,7.1411 2.1211,10.57813 0.0396,0.11811 0.0799,0.23595 0.12109,0.35351 1.53681,4.42413 4.18095,9.14393 7.93164,13.07032 0.20491,0.21428 0.41327,0.42525 0.625,0.63281 6.16945,6.05479 15.71683,9.14062 22.64453,9.14062 6.9554,4e-5 17.24484,-2.42812 24.6875,-10.04101 4.52021,-4.60056 7.77202,-10.57146 9.33985,-16.22461 l 0,-0.002 c 1.14247,-4.11969 1.68167,-8.23025 1.7871,-12.20118 l -0.0293,0.72852 c 0.0946,-1.78374 0.15894,-3.44638 0.2168,-5.08594 0.10309,0.0713 -3e-5,-0.007 0.12891,0.0899 0.1832,0.13772 0.36811,0.27314 0.55469,0.40625 0.33924,0.24179 0.78057,0.61359 1.40039,1.3789 0.0717,0.0883 0.14399,0.17623 0.21679,0.26367 0.50763,0.61111 1.09383,1.4747 1.72657,2.82227 0.0778,0.1655 0.15721,0.33022 0.23828,0.49414 0.31247,0.63241 0.55693,1.32013 0.73241,2.43359 5.7e-4,0.004 0.001,0.004 0.002,0.008 l 0.29688,1.95703 c 0.01,0.0619 0.0193,0.12373 0.0293,0.18555 0.18351,1.15267 0.37268,2.40865 0.56445,3.76367 0.0441,0.31398 0.0936,0.62718 0.14843,0.93945 0.59306,3.35235 1.55897,6.81239 3.05078,10.24805 0.13197,0.30257 0.26937,0.60275 0.41211,0.90039 2.23463,4.67855 5.85127,9.3712 10.3047,12.83984 7.19127,5.61296 15.3623,7.08594 21.31835,7.08594 4.65531,0 9.76585,-0.97431 14.375,-3.00586 3.43895,-1.51577 6.76618,-3.66753 9.67188,-6.22461 0.038,-0.0329 0.0676,-0.0725 0.10546,-0.10547 0.007,0.003 0.0129,0.007 0.0195,0.01 0.0957,-0.085 0.20997,-0.14844 0.30469,-0.23438 l -0.28125,0.2461 c 2.81212,1.31435 5.72713,2.47655 8.78906,3.30078 3.13433,0.84371 6.38795,1.47871 9.78906,1.8125 0.0267,0.003 0.0534,0.005 0.0801,0.008 2.38399,0.22689 4.67929,0.37305 7.13477,0.37305 9.25596,0 18.47846,-1.39553 27.22657,-4.33008 4.33905,-1.44714 8.48395,-3.34503 12.46483,-5.54297 0.32125,0.23724 0.621,0.53147 0.94531,0.75781 0.36509,0.25505 0.73629,0.50121 1.11329,0.73828 3.05754,1.92046 6.30037,3.47468 9.58984,4.66211 0.27903,0.10088 0.55967,0.19724 0.8418,0.28906 3.653449,1.1869 7.840103,2.09766 12.724611,2.09766 5.340336,0 10.354023,-0.79215 15.160156,-2.02539 4.433346,-1.12437 8.788026,-2.59487 13.025391,-4.38477 0.07697,-0.0322 0.153794,-0.0647 0.230469,-0.0976 2.623217,-1.1363 5.08771,-2.58611 7.599609,-3.94336 l 0.01953,0.0273 c 6.780877,9.60389 19.401478,13.58008 27.046876,13.58008 5.292089,0 12.667516,-0.64256 20.5253901,-6.41992 0.9601859,-0.69501 1.7862233,-1.41362 2.6015625,-2.13477 8.4965739,8.45614 18.8612984,9.80079 25.6718754,9.80078 5.776624,0 12.864008,-1.71371 18.765625,-5.54687 3.146313,-2.01534 5.990066,-4.59931 8.339843,-7.45117 2.734653,1.73079 5.518779,3.19676 8.246094,4.14844 4.417216,1.54135 9.126661,2.2871 13.605469,2.2871 4.293566,0 8.225721,-0.77184 11.826172,-1.89843 3.789805,2.29788 7.07228,3.2926 9.777343,3.92187 0.10468,0.024 0.2095,0.0475 0.314454,0.0703 4.084393,0.90012 7.0216,0.97851 9.90039,0.97851 4.856,0 11.32676,-0.93017 17.75976,-4.9707 3.13924,-1.97174 6.27982,-4.64275 8.88867,-7.91992 0.22158,-0.2777 0.43777,-0.55966 0.64844,-0.84571 0.14577,-0.19838 0.27136,-0.46638 0.41602,-0.67187 0.81068,1.30864 1.6473,2.5999 2.58008,3.7539 0.037,0.045 0.0741,0.09 0.11132,0.13477 2.59832,3.17328 5.92248,6.05777 9.5625,8.20117 l 0,0.002 c 5.38179,3.169 11.68371,4.56055 16.92578,4.56055 1.64345,0 3.55087,-0.22213 5.58204,-0.61133 0.39953,-0.0692 0.96764,-0.0631 1.33789,-0.14062 3.63773,-0.7616 6.08774,-1.82016 8.16992,-2.82617 3.45457,-1.66912 6.00733,-3.58841 8.14648,-5.4668 2.94119,-2.51849 5.06206,-5.03721 6.79297,-7.45313 l 0.002,0 c 1.51903,-2.12024 2.65523,-4.15702 3.67774,-6.17187 l 36.25781,-53.57422 0.0254,-0.0391 c 2.87092,-4.25763 5.38279,-8.80135 7.24414,-14.10352 1.90664,-5.33815 2.94336,-11.12827 2.94336,-16.84375 0,-6.09437 -1.66687,-13.79623 -6.21094,-20.39844 -7.6227,-11.12975 -20.46198,-13.90234 -27.6289,-13.90234 -4.23424,0 -8.9944,0.75434 -13.57031,2.61719 -0.17325,0.0705 -0.34579,0.14278 -0.51758,0.2168 -3.12651,1.34769 -6.19469,3.19306 -8.94141,5.43359 -2.74358,2.22751 -5.06851,4.82354 -6.9375,7.49609 -0.0519,0.0721 -0.1005,0.16363 -0.15234,0.23633 -0.005,-0.007 -0.0121,-0.0141 -0.0176,-0.0215 -0.0289,0.042 -0.069,0.081 -0.0977,0.12304 l 0.0918,-0.13086 c -1.54163,-2.09796 -3.32365,-4.09919 -5.39453,-5.90234 -7.06305,-6.2256 -16.3776,-8.57227 -23.17969,-8.57226 -6.75456,0 -14.09445,2.60232 -19.16601,6.29687 -4.87392,-1.76734 -9.22455,-2.22852 -12.97071,-2.22852 -2.04735,0 -4.14831,0.13566 -6.26953,0.43165 l -0.0488,0.008 c -0.0462,-0.005 -0.0845,-0.0125 -0.13086,-0.0176 -0.004,-4.9e-4 -0.009,4.9e-4 -0.0137,0 -2.29829,-0.25741 -4.62646,-0.42188 -7.10547,-0.42188 -4.68857,0 -9.353258,0.52829 -13.892571,1.49415 -7.323723,1.48646 -13.759333,4.729 -19.078125,8.60937 -3.36916,2.44775 -6.513268,5.16495 -9.546875,8 -6.875239,-6.12071 -16.818278,-9.63086 -24.451172,-9.63086 -0.77051,0 -1.535412,0.17273 -2.306641,0.20117 1.200199,-4.92549 2.518974,-10.12269 3.654297,-14.89844 l 0.0039,-0.0195 c 0.337489,-1.4146 0.633088,-2.8206 0.880859,-4.37695 0.01757,-0.10797 0.0345,-0.21605 0.05078,-0.32422 0.159671,-1.08644 0.453125,-0.68955 0.453125,-5.42187 0,-6.25159 -2.751096,-14.88811 -8.082031,-20.74219 -3.852932,-4.20159 -8.926554,-7.16982 -13.539062,-8.69141 -3.152435,-1.06761 -6.159634,-1.62469 -8.9218755,-1.83007 -1.6084708,-0.1619 -3.2374897,-0.2978 -4.9646397,-0.2978 z m -227.4374988,37.17188 0.23242,1.32421 c -0.0176,-0.11687 -0.0786,-0.26637 -0.0977,-0.38476 -0.0576,-0.32487 -0.0677,-0.60595 -0.13476,-0.93945 z m 0.66992,14.14453 -0.082,1.18164 c 0.0234,-0.25748 0.013,-0.50699 0.0332,-0.76367 0.008,-0.14372 0.0419,-0.27367 0.0488,-0.41797 z m -0.62109,5.81836 -0.19141,1.20703 c 0.0178,-0.0979 0.0178,-0.20649 0.0352,-0.30469 0.045,-0.30243 0.11482,-0.5988 0.15625,-0.90234 z m 201.046872,0.31054 0.873047,1.00781 c -0.188515,-0.2285 -0.419926,-0.42618 -0.615235,-0.65039 -0.09892,-0.11215 -0.156915,-0.24651 -0.257812,-0.35742 z m 166.835938,2.31055 0.65234,0.76953 c -0.14394,-0.1758 -0.31367,-0.31825 -0.46093,-0.49023 -0.0742,-0.086 -0.11633,-0.19416 -0.19141,-0.2793 z m -129.214844,0.38281 c -0.04078,0.0144 -0.07839,0.0363 -0.119141,0.0508 -0.0304,0.011 -0.06336,0.0144 -0.09375,0.0254 z M 183.40625,226.5 l 0.10156,0.26367 c -0.0186,-0.0493 -0.0476,-0.10099 -0.0664,-0.15039 -0.0148,-0.0385 -0.0202,-0.0748 -0.0352,-0.11328 z m -118.888672,1.5957 0.265625,0.32032 c -0.05405,-0.0667 -0.122961,-0.12323 -0.177734,-0.18946 -0.03379,-0.0408 -0.05389,-0.0902 -0.08789,-0.13086 z m 87.097652,2.72657 0.52344,1.73632 c -0.0581,-0.219 -0.19616,-0.44383 -0.25976,-0.66406 -0.1072,-0.35468 -0.14513,-0.72064 -0.26368,-1.07226 z m -35.22851,0.90234 c -0.009,0.0398 -0.0105,0.0793 -0.0195,0.11914 -0.008,0.0348 -0.0236,0.0726 -0.0312,0.10742 l 0.0508,-0.22656 z m -205.902345,5.37305 0.09766,0.25 c -0.02084,-0.0545 -0.05115,-0.10761 -0.07227,-0.16211 -0.01124,-0.0288 -0.01408,-0.0592 -0.02539,-0.0879 z m 275.976565,1.96289 0.0723,0.59961 c -0.007,-0.0665 -0.0256,-0.13653 -0.0332,-0.20313 -0.0169,-0.13019 -0.0217,-0.26647 -0.0391,-0.39648 z m -389.89258,1.625 0.125,0.0859 c -0.0223,-0.0154 -0.048,-0.0256 -0.0703,-0.041 -0.0195,-0.0133 -0.0352,-0.0316 -0.0547,-0.0449 z m -38.53125,53.89843 c 0.31022,-0.13437 1.2887,0.4699 -1.20313,0.89258 0.0107,-0.13819 0.0181,-0.2682 0.0293,-0.4082 0.11561,-0.0462 0.27814,-0.11549 0.39063,-0.16016 0.26271,-0.10405 0.52381,-0.21214 0.7832,-0.32422 z m 103.97461,12.44922 -0.10156,0.0234 c 0.0106,-0.003 0.0207,-0.007 0.0312,-0.01 0.0236,-0.006 0.0467,-0.008 0.0703,-0.0137 z m 103.310546,10.57032 -1.035157,0.94921 c 0.251053,-0.219 0.365528,-0.36085 0.595703,-0.56835 0.141556,-0.13435 0.298897,-0.24504 0.439454,-0.38086 z m 42.0605465,5.26171 -0.3339844,0.67774 c 0.038527,-0.0753 0.057667,-0.14759 0.095703,-0.22266 0.071728,-0.14696 0.1690418,-0.31011 0.2382814,-0.45508 z m 47.3339845,3.97852 -0.8125,1.29102 c 0.103299,-0.15448 0.155359,-0.31937 0.255859,-0.47461 0.174075,-0.27512 0.393021,-0.53972 0.556641,-0.81641 z m -225.546877,0.21289 -0.40625,0.63867 c 0.075,-0.11424 0.12916,-0.24602 0.20313,-0.36133 0.0596,-0.0945 0.14461,-0.18268 0.20312,-0.27734 z"
             style="font-style:normal;font-variant:normal;font-weight:normal;font-stretch:normal;font-size:166.26571655px;line-height:125%;font-family:'MV Boli';-inkscape-font-specification:'MV Boli, Normal';text-align:start;letter-spacing:0px;word-spacing:0px;writing-mode:lr-tb;text-anchor:start;fill:#ffffff;fill-opacity:1;stroke:none;stroke-width:1px;stroke-linecap:butt;stroke-linejoin:miter;stroke-opacity:1"
             transform="translate(555.58389,63.639611)" />
        </g>
      </g>
      <g
         transform="scale(0.97737609,1.0231476)"
         style="font-style:normal;font-weight:normal;font-size:166.26571655px;line-height:125%;font-family:sans-serif;letter-spacing:0px;word-spacing:0px;fill:#000000;fill-opacity:1;stroke:none;stroke-width:1px;stroke-linecap:butt;stroke-linejoin:miter;stroke-opacity:1"
         id="text4996">
        <path
           d="m -32.984859,51.540672 q 2.110796,0 3.409747,0.487106 1.380135,0.405922 2.110795,1.380136 0.73066,0.974213 0.974213,2.516717 0.324738,1.542504 0.324738,3.653299 0,1.867242 -0.162369,3.572115 -0.08118,1.623689 -0.405922,3.328562 -0.243554,1.704873 -0.649476,3.572115 -0.405922,1.867242 -0.893029,4.059222 -1.542504,6.494754 -3.734483,12.989509 -2.110796,6.41357 -4.221591,13.233067 l -3.003824,9.9045 q 4.627513,-1.21777 8.686734,-3.40975 4.140406,-2.19198 8.037259,-5.11462 3.896853,-2.922639 7.631337,-6.494754 3.734484,-3.653299 7.6313363,-7.631337 6.0888324,-6.251201 12.0964804,-12.908324 6.0076483,-6.738308 11.6093733,-13.720169 0.893029,-1.136582 1.867242,-3.247378 0.974214,-2.110795 2.273164,-4.22159 1.380136,-2.110795 3.166193,-3.653299 1.786058,-1.542505 4.302775,-1.542505 1.623689,0 2.841455,1.055398 1.298951,1.055398 2.110796,2.679086 0.811844,1.542504 1.217766,3.490931 0.405922,1.867242 0.405922,3.49093 0,1.380136 -0.243553,2.354349 -4.546328,6.819492 -9.742132,13.151878 -5.195804,6.251201 -10.878714,12.09648 -5.6017256,5.845279 -11.6093736,11.447005 -5.9264635,5.520539 -12.0152959,10.878709 8.3619965,2.84146 15.2626732,7.38779 6.9818613,4.54633 12.2588493,11.04108 5.358172,6.41357 9.011472,14.93794 3.653299,8.52436 5.358172,19.24071 -0.487106,1.46132 -1.380135,2.76027 -0.893029,1.38013 -2.110795,2.35435 -1.217767,1.05539 -2.760271,1.70487 -1.542504,0.64947 -3.328562,0.64947 -2.841455,0 -4.465143,-1.21776 -1.542505,-1.13658 -2.435533,-2.92264 -0.811845,-1.78606 -1.217767,-3.97804 -0.324738,-2.19198 -0.649475,-4.1404 l -0.324738,-2.02962 q -0.893029,-5.43935 -3.328562,-10.14805 -2.3543482,-4.78988 -5.6017255,-8.52436 -3.1661928,-3.73449 -6.9818611,-6.33239 -3.7344839,-2.67909 -7.3877833,-4.05922 l -2.3543481,-0.89303 q -1.46132,-0.56829 -3.328562,-1.21777 -1.786058,-0.64947 -3.734484,-1.21776 -1.867242,-0.56829 -3.653299,-0.89303 -1.786058,-0.40592 -3.166193,-0.40592 -0.811845,0 -3.166193,0.97421 -2.354349,0.89303 -5.195804,2.02961 -2.76027,1.13658 -5.439357,2.19198 -2.679086,1.0554 -3.978037,1.38013 l -2.029611,8.28082 q -0.893028,3.6533 -1.298951,7.06304 -0.324737,3.32856 -0.487106,6.33239 -0.08119,2.51672 -0.243553,5.43935 -0.08119,2.92264 -0.811845,5.43936 -0.73066,2.51672 -2.516717,4.22159 -1.704873,1.70488 -5.114619,1.70488 -2.110796,0 -3.409747,-1.21777 -1.217766,-1.21777 -1.867241,-3.00383 -0.649476,-1.86724 -0.811845,-3.89685 -0.162369,-2.11079 -0.162369,-3.81567 0,-2.11079 0.243554,-4.70869 0.324737,-2.67909 0.73066,-5.43936 0.487106,-2.76027 1.055397,-5.43936 0.568291,-2.76027 1.136582,-5.03343 l 18.915973,-76.150999 q 1.46132,-5.845279 7.631336,-5.845279 z"
           style="font-style:normal;font-variant:normal;font-weight:normal;font-stretch:normal;font-size:166.26571655px;line-height:125%;font-family:'MV Boli';-inkscape-font-specification:'MV Boli, Normal';text-align:start;writing-mode:lr-tb;text-anchor:start"
           id="path4165" />
        <path
           d="m 46.332329,132.31918 q 0,-3.49093 1.867242,-5.92646 1.867242,-2.43554 4.952251,-3.24738 0.893028,-1.78606 2.76027,-4.78988 1.867242,-3.08501 4.627513,-6.65712 2.760271,-3.57212 6.251201,-7.14423 3.572115,-3.6533 7.793706,-6.575943 4.302774,-3.003824 9.17384,-4.871066 4.952251,-1.867242 10.472792,-1.867242 4.708697,0 8.199626,1.136582 3.49093,1.136582 5.7641,3.166193 2.27316,2.02961 3.40974,4.871066 1.13658,2.76027 1.13658,6.00765 0,2.76027 -0.73066,5.27699 -1.13658,4.54632 -4.22159,7.95607 -3.085,3.40975 -7.30659,6.00765 -4.140411,2.51672 -9.092661,4.22159 -4.871066,1.70487 -9.823316,2.84145 -4.871066,1.13659 -9.417394,1.78606 -4.546329,0.56829 -7.87489,0.89303 -0.73066,1.46132 -1.298951,3.73448 -0.487107,2.19198 -0.487107,4.30278 0,4.7087 3.734484,7.3066 3.734484,2.5979 10.310423,2.5979 3.815668,0 7.306599,-0.81185 3.49093,-0.89302 6.575939,-2.19197 3.166193,-1.38014 5.926463,-2.92264 2.760271,-1.62369 5.033431,-3.1662 2.92264,-1.94842 5.52055,-3.24737 2.67908,-1.38014 4.70869,-1.38014 2.02961,0 2.5979,1.0554 0.5683,0.97421 0.5683,2.11079 0,0.64948 -0.0812,1.29895 0,0.5683 -0.0812,0.97422 -0.40593,2.11079 -1.62369,4.22159 -1.21777,2.11079 -3.08501,3.6533 -8.44318,6.65712 -17.373469,9.49858 -8.849103,2.84145 -18.915973,2.84145 -1.948426,0 -4.627512,-0.24355 -2.597902,-0.24356 -5.439357,-0.97422 -2.841455,-0.73066 -5.601726,-2.11079 -2.760271,-1.38014 -4.95225,-3.6533 -2.110796,-2.27316 -3.490931,-5.60173 -1.298951,-3.32856 -1.298951,-8.03725 0,-3.81567 1.055398,-8.52437 -1.055398,-0.16237 -2.029611,-1.0554 -0.893029,-0.97421 -0.893029,-2.76027 z m 50.821455,-22.48809 q 0.162369,-0.40592 0.162369,-0.73066 0,-0.32473 0,-0.73066 0,-2.19198 -1.623689,-3.24737 -1.623689,-1.13659 -3.896853,-1.13659 -3.572115,0 -7.063045,1.86725 -3.409747,1.86724 -6.494755,4.70869 -3.003824,2.76027 -5.358172,6.00765 -2.354349,3.16619 -3.6533,5.7641 5.845279,-0.48711 10.716345,-1.54251 4.871066,-1.13658 8.443181,-2.76027 3.653299,-1.70487 5.845279,-3.73448 2.273164,-2.1108 2.92264,-4.46515 z m -9.417394,-22.000977 0,0 z"
           style="font-style:normal;font-variant:normal;font-weight:normal;font-stretch:normal;font-size:166.26571655px;line-height:125%;font-family:'MV Boli';-inkscape-font-specification:'MV Boli, Normal';text-align:start;writing-mode:lr-tb;text-anchor:start"
           id="path4167" />
        <path
           d="m 131.57598,149.28673 q 0.64948,0 1.13659,0.16237 0.56829,0.16237 1.21776,0.40592 0.64948,0.16237 1.46132,0.32474 0.81185,0.16237 2.1108,0.16237 3.81567,0 8.44318,-0.81185 4.70869,-0.81184 8.8491,-2.11079 4.14041,-1.29896 7.06305,-2.92264 3.00382,-1.70488 3.40974,-3.49093 0.24356,-0.97422 0.24356,-1.70488 0,-1.38013 -1.38014,-2.5979 -1.29895,-1.29895 -3.32856,-2.43553 -2.02961,-1.13658 -4.38396,-2.1108 -2.35435,-0.97421 -4.38396,-1.78606 l -2.76027,-1.13658 q -2.1108,-0.81184 -4.14041,-1.94842 -2.02961,-1.21777 -3.81566,-2.76027 -1.70488,-1.54251 -3.08501,-3.57212 -1.29895,-2.11079 -1.94843,-4.78988 -0.32474,-1.13658 -0.56829,-2.27316 -0.16237,-1.13659 -0.16237,-2.43554 0,-2.11079 1.38014,-4.78988 1.46132,-2.76027 3.81566,-5.43936 2.43554,-2.679082 5.43936,-5.114615 3.08501,-2.435533 6.41357,-4.059222 2.43553,-1.704873 4.7087,-3.085008 2.27316,-1.380136 4.54633,-2.354349 2.35434,-0.974213 4.70869,-1.542504 2.43554,-0.568291 5.11462,-0.568291 2.43554,0 5.27699,0.243553 2.84146,0.243554 5.1958,1.136582 2.35435,0.893029 3.89686,2.679087 1.62369,1.704873 1.62369,4.627512 0,0.893029 -0.24356,2.354349 -0.24355,1.461319 -0.81184,2.922639 -0.56829,1.46132 -1.38014,2.516717 -0.81184,1.0554 -1.94842,1.0554 -1.86725,0 -3.08501,-0.73066 -1.21777,-0.73066 -2.19198,-1.542506 -0.97421,-0.893029 -2.02961,-1.623688 -1.0554,-0.73066 -2.5979,-0.73066 -1.86725,0 -4.38396,0.73066 -2.43554,0.649475 -5.03344,1.867244 -2.5979,1.13658 -5.11462,2.67908 -2.43553,1.54251 -4.46514,3.1662 -1.94843,1.62369 -3.16619,3.24737 -1.21777,1.54251 -1.21777,2.84146 0,1.38013 0.89303,2.27316 0.89303,0.89303 2.27316,1.54251 1.78606,0.97421 4.05922,1.94842 2.35435,0.97422 4.7087,1.94843 2.35435,0.97421 4.54633,1.94843 2.27316,0.97421 3.89685,1.78605 2.19198,1.13659 3.89685,2.27317 1.78606,1.0554 3.00383,2.35435 1.21776,1.29895 1.86724,2.92264 0.64948,1.62368 0.64948,3.81566 0,1.0554 -0.16237,2.1108 -0.16237,1.0554 -0.48711,2.43553 -0.24355,1.21777 -0.89303,2.84146 -0.56829,1.62369 -1.29895,3.24737 -0.64947,1.54251 -1.38013,2.84146 -0.73066,1.21777 -1.21777,1.62369 -3.16619,2.92264 -7.46897,5.52054 -4.30277,2.51672 -9.01147,4.46514 -4.62751,1.86725 -9.33621,3.00383 -4.62751,1.13658 -8.52437,1.13658 -1.94842,0 -4.30277,-0.73066 -2.35435,-0.81184 -4.38396,-2.02961 -1.94843,-1.29895 -3.32856,-2.92264 -1.29895,-1.62369 -1.29895,-3.24738 0,-0.81184 0.4871,-1.78606 0.48711,-1.05539 1.21777,-1.86724 0.73066,-0.89303 1.5425,-1.46132 0.89303,-0.64947 1.62369,-0.64947 z"
           style="font-style:normal;font-variant:normal;font-weight:normal;font-stretch:normal;font-size:166.26571655px;line-height:125%;font-family:'MV Boli';-inkscape-font-specification:'MV Boli, Normal';text-align:start;writing-mode:lr-tb;text-anchor:start"
           id="path4169" />
        <path
           d="m 254.48922,168.28388 q -5.03343,0 -6.90068,-2.19197 -1.86724,-2.19198 -1.86724,-6.00765 0,-2.02961 0.40592,-4.38396 0.40593,-2.35435 1.0554,-4.87107 1.13658,-4.30277 2.51672,-8.52436 1.46132,-4.30278 2.84145,-8.60555 1.46132,-4.38396 2.76028,-8.68674 1.38013,-4.38396 2.43553,-8.76792 0.0812,-0.40592 0.0812,-1.05539 0,-1.13659 -0.56829,-1.78606 -0.56829,-0.64948 -1.70487,-0.64948 -1.78606,0 -3.89685,0.73066 -2.02961,0.73066 -3.40975,1.62369 -5.43936,3.6533 -9.57976,7.22542 -4.05922,3.57211 -7.46897,7.46896 -3.40975,3.89686 -6.49476,8.362 -3.00382,4.38396 -6.33238,9.66095 -2.84146,5.27699 -4.22159,9.01147 -1.38014,3.6533 -2.5979,5.92646 -1.13659,2.27317 -2.59791,3.24738 -1.46131,1.0554 -4.38395,1.0554 -3.24738,0 -4.62752,-1.86724 -1.29895,-1.86725 -1.29895,-4.87107 0,-2.35435 0.73066,-5.27699 L 226.15585,47.725003 q 0.24356,-0.974213 0.81185,-2.110795 0.56829,-1.136582 1.5425,-2.110795 0.97422,-0.974213 2.27317,-1.623689 1.38013,-0.649475 3.08501,-0.649475 1.29895,0 2.76027,0.162369 1.46132,0.08118 2.5979,0.487106 1.21776,0.324738 1.94842,1.136582 0.81185,0.811845 0.81185,2.110795 0,0.324738 -0.16237,1.380136 -0.16237,0.974213 -0.48711,2.273164 -4.38396,17.617022 -9.41739,36.695363 -4.95225,19.078346 -10.06687,38.562606 4.95225,-6.08883 10.31042,-11.12227 5.35817,-5.11462 10.9599,-8.76792 5.68291,-3.6533 11.69056,-5.682907 6.08883,-2.110795 12.58359,-2.110795 4.1404,0 6.41357,2.679086 2.27316,2.597906 2.27316,6.657126 0,1.86724 -0.48711,3.6533 -0.97421,3.73448 -2.19198,7.38778 -1.21776,3.57212 -2.51671,7.22541 -1.29895,3.6533 -2.59791,7.46897 -1.29895,3.73449 -2.27316,7.71252 -1.29895,5.11462 -1.78606,9.74214 -0.4871,4.54632 -0.64947,7.30659 -0.16237,2.35435 -0.73066,4.54633 -0.56829,2.19198 -1.70488,3.81567 -1.05539,1.70487 -2.76027,2.67909 -1.62368,1.05539 -3.89685,1.05539 z m 3.73448,-80.453767 0,0 z"
           style="font-style:normal;font-variant:normal;font-weight:normal;font-stretch:normal;font-size:166.26571655px;line-height:125%;font-family:'MV Boli';-inkscape-font-specification:'MV Boli, Normal';text-align:start;writing-mode:lr-tb;text-anchor:start"
           id="path4171" />
        <path
           d="m 329.50362,160.16544 q 0,-2.35435 0.56829,-5.60172 0.56829,-3.32857 0.56829,-8.19963 -2.67909,1.94842 -5.92647,4.62751 -3.24737,2.67909 -6.7383,5.11462 -3.49093,2.43553 -6.98186,4.14041 -3.40975,1.62368 -6.41357,1.62368 -2.43554,0 -4.62752,-0.73066 -2.19198,-0.73066 -3.73448,-1.94842 -4.30278,-3.40975 -6.2512,-6.81949 -1.86724,-3.40975 -1.86724,-7.95608 0,-2.02961 0.32473,-4.22159 0.40593,-2.19198 1.13659,-5.03343 3.085,-12.82714 10.55397,-23.70586 7.55015,-10.9599 18.67242,-18.672417 4.30278,-3.003824 8.60555,-3.815668 4.30278,-0.893029 8.52437,-0.893029 1.86724,0 4.1404,0.243553 2.35435,0.243554 4.22159,0.487107 1.86724,-0.405922 3.00383,-0.568291 1.21776,-0.162369 2.51671,-0.162369 2.43554,0 4.05923,0.649475 1.62368,0.649476 2.5979,1.786058 0.97421,1.055398 1.38013,2.516717 0.48711,1.380136 0.48711,2.92264 0,2.110795 -0.64948,4.059224 -0.64947,1.86724 -1.29895,3.81567 l -10.71634,42.78419 q -0.32474,3.49093 -0.56829,6.41357 -0.24356,2.92264 -0.97422,5.43936 -0.24355,0.73066 -0.64947,1.86724 -0.32474,1.0554 -1.13658,2.1108 -0.81185,0.97421 -2.02961,1.70487 -1.21777,0.73066 -3.1662,0.73066 -2.51671,0 -4.05922,-0.32474 -1.46132,-0.32474 -2.27316,-0.89303 -0.81185,-0.64947 -1.0554,-1.46132 -0.24355,-0.89303 -0.24355,-2.02961 z m -26.95324,-24.5177 q -0.32473,1.13659 -0.73065,3.24738 -0.32474,2.1108 -0.32474,4.22159 0,2.19198 0.64947,3.97804 0.64948,1.70487 2.84146,1.70487 3.40974,0 6.33238,-1.46132 3.00383,-1.5425 5.60173,-3.6533 3.49093,-2.84145 7.06304,-6.33238 3.6533,-3.57212 6.8195,-7.46897 3.24737,-3.89685 5.68291,-7.95608 2.51671,-4.1404 3.6533,-8.19962 0.64947,-2.35435 1.05539,-5.43936 0.48711,-3.08501 0.48711,-5.52054 0,-1.0554 -0.48711,-2.02961 -0.4871,-1.0554 -1.86724,-1.0554 -3.97803,0 -8.03726,1.5425 -3.97803,1.54251 -7.71252,4.14041 -3.73448,2.5979 -7.14423,6.17002 -3.32856,3.49093 -6.08883,7.55015 -2.76027,3.97804 -4.78988,8.28081 -1.94843,4.22159 -3.00383,8.28081 z"
           style="font-style:normal;font-variant:normal;font-weight:normal;font-stretch:normal;font-size:166.26571655px;line-height:125%;font-family:'MV Boli';-inkscape-font-specification:'MV Boli, Normal';text-align:start;writing-mode:lr-tb;text-anchor:start"
           id="path4173" />
        <path
           d="m 396.64316,166.90375 q -0.40592,0.0812 -0.73066,0.0812 -0.24356,0.0812 -0.56829,0.0812 -1.70488,0 -3.00383,-0.73066 -1.29895,-0.73066 -2.27316,-1.86724 -0.89303,-1.0554 -1.38014,-2.27317 -0.4871,-1.29895 -0.4871,-2.43553 -0.40592,-1.70487 -1.13658,-4.87107 -0.73066,-3.16619 -1.70488,-7.14423 -0.89303,-3.97803 -1.94842,-8.52436 -0.97422,-4.62751 -1.94843,-9.25503 -0.97421,-4.62751 -1.78606,-9.01147 -0.81184,-4.38396 -1.38013,-8.03726 -0.40593,-2.5979 -0.89303,-4.87106 -0.48711,-2.27317 -0.89303,-4.30278 -0.40592,-2.11079 -0.73066,-4.05922 -0.24355,-2.029611 -0.24355,-4.059222 0,-2.273164 0.4871,-4.302775 0.48711,-2.110795 1.38014,-3.653299 0.97421,-1.623689 2.27316,-2.597902 1.38014,-0.974213 3.00383,-0.974213 3.24737,0 5.11462,1.623688 1.94842,1.542505 3.00382,4.221591 1.0554,2.597902 1.46132,6.088832 0.48711,3.490931 0.73066,7.22541 0.32474,4.7087 1.0554,10.22924 0.73066,5.43936 1.62368,10.9599 0.89303,5.43936 1.78606,10.55398 0.97422,5.03343 1.70488,8.93029 2.43553,-2.51672 8.52436,-11.20346 3.00382,-4.22159 5.52054,-7.7937 2.5979,-3.57212 4.87107,-6.81949 2.27316,-3.32857 4.30277,-6.57594 2.02961,-3.24738 3.89686,-6.73831 1.94842,-3.49093 3.73448,-7.387784 1.86724,-3.978038 3.73448,-8.767919 0.56829,-0.974213 1.38014,-2.029611 0.81184,-1.136582 1.86724,-1.948426 1.13658,-0.893029 2.51672,-1.46132 1.46132,-0.568291 3.24738,-0.568291 3.73448,0 5.03343,1.867242 1.38014,1.867242 1.38014,4.708697 0,3.815668 -1.38014,7.468968 -1.29895,3.572114 -4.22159,7.712524 l -38.0755,53.74409 q -1.13658,2.43553 -2.35435,4.05922 -1.21776,1.62369 -2.43553,2.5979 -1.13658,0.97422 -2.19198,1.46132 -1.0554,0.48711 -1.86724,0.64948 z"
           style="font-style:normal;font-variant:normal;font-weight:normal;font-stretch:normal;font-size:166.26571655px;line-height:125%;font-family:'MV Boli';-inkscape-font-specification:'MV Boli, Normal';text-align:start;writing-mode:lr-tb;text-anchor:start"
           id="path4175" />
      </g>
    </g>
  </g>
</svg>
