<?xml version="1.0" encoding="UTF-8" standalone="no"?>
<!-- Created with Inkscape (http://www.inkscape.org/) -->

<svg
   xmlns:dc="http://purl.org/dc/elements/1.1/"
   xmlns:cc="http://creativecommons.org/ns#"
   xmlns:rdf="http://www.w3.org/1999/02/22-rdf-syntax-ns#"
   xmlns:svg="http://www.w3.org/2000/svg"
   xmlns="http://www.w3.org/2000/svg"
   xmlns:sodipodi="http://sodipodi.sourceforge.net/DTD/sodipodi-0.dtd"
   xmlns:inkscape="http://www.inkscape.org/namespaces/inkscape"
   width="100.15707mm"
   height="42.243263mm"
   viewBox="0 0 354.88724 149.68085"
   id="svg5189"
   version="1.1"
   inkscape:version="0.91 r13725"
   sodipodi:docname="lastname.svg">
  <defs
     id="defs5191">
    <filter
       inkscape:collect="always"
       style="color-interpolation-filters:sRGB"
       id="filter5164"
       x="-0.037225455"
       width="1.0744509"
       y="-0.098292664"
       height="1.1965853">
      <feGaussianBlur
         inkscape:collect="always"
         stdDeviation="8.0048364"
         id="feGaussianBlur5166" />
    </filter>
  </defs>
  <sodipodi:namedview
     id="base"
     pagecolor="#ffffff"
     bordercolor="#666666"
     borderopacity="1.0"
     inkscape:pageopacity="0.0"
     inkscape:pageshadow="2"
     inkscape:zoom="0.35"
     inkscape:cx="-846.69739"
     inkscape:cy="120.55473"
     inkscape:document-units="px"
     inkscape:current-layer="layer1"
     showgrid="false"
     fit-margin-top="0"
     fit-margin-left="0"
     fit-margin-right="0"
     fit-margin-bottom="0"
     inkscape:window-width="1600"
     inkscape:window-height="838"
     inkscape:window-x="859"
     inkscape:window-y="1072"
     inkscape:window-maximized="1" />
  <metadata
     id="metadata5194">
    <rdf:RDF>
      <cc:Work
         rdf:about="">
        <dc:format>image/svg+xml</dc:format>
        <dc:type
           rdf:resource="http://purl.org/dc/dcmitype/StillImage" />
        <dc:title></dc:title>
      </cc:Work>
    </rdf:RDF>
  </metadata>
  <g
     inkscape:label="Layer 1"
     inkscape:groupmode="layer"
     id="layer1"
     transform="translate(-116.84223,-388.95035)">
    <g
       id="g5168"
       transform="matrix(0.64,0,0,0.64,-283.56341,500.09389)">
      <path
         transform="translate(197.9899,-369.81736)"
         style="font-style:normal;font-variant:normal;font-weight:normal;font-stretch:normal;font-size:161.58976746px;line-height:125%;font-family:'MV Boli';-inkscape-font-specification:'MV Boli, Normal';text-align:start;letter-spacing:0px;word-spacing:0px;writing-mode:lr-tb;text-anchor:start;fill:#000000;fill-opacity:1;stroke:none;stroke-width:1px;stroke-linecap:butt;stroke-linejoin:miter;stroke-opacity:1;filter:url(#filter5164)"
         d="m 513.30469,215.36719 c -5.71588,0 -13.4423,1.61589 -19.91992,6.59961 -3.84733,2.96007 -6.98175,6.71579 -9.18165,10.52148 -0.20672,0.35764 -0.35771,0.72575 -0.55273,1.08594 -2.90395,1.63477 -5.54209,3.46454 -7.55273,5.45508 -4.67714,4.6209 -6.86107,9.27771 -8.30664,13.26758 a 26.568527,26.568527 0 0 0 -0.16016,0.45117 c -1.97929,5.78674 -2.17383,10.20851 -2.17383,14.45312 0,2.82382 0.30504,5.70885 0.93164,8.52735 a 26.568527,26.568527 0 0 0 0.084,0.36523 c 0.66696,2.81238 1.89267,5.6908 3.41406,8.45898 -0.89899,2.9914 -1.79706,5.98337 -2.69336,8.84571 a 26.568527,26.568527 0 0 0 -0.0898,0.29101 c -1.18159,3.93066 -2.33523,7.74562 -3.4629,11.43946 a 26.568527,26.568527 0 0 0 -0.0625,0.20507 c -1.22518,4.13307 -2.30344,8.17476 -3.22851,12.14063 -1.01449,4.33528 -1.90896,8.27101 -2.68555,11.82227 -0.75003,3.37456 -1.47705,6.69939 -2.17968,9.97265 l -2.89063,13.33399 c -0.36371,1.67649 -0.68336,2.82637 -0.82617,3.2832 -0.32456,0.9712 -0.61306,1.7711 -0.77735,2.18164 -0.35082,0.87656 -0.65063,1.58768 -0.87304,2.08789 a 26.568527,26.568527 0 0 0 -0.48438,1.16016 c -0.67681,1.73954 -1.08066,3.4783 -1.51172,5.21484 -0.81126,2.81399 -1.26562,5.63627 -1.26562,8.18359 l 0,0.91993 c 0,2.88486 0.31734,5.53996 0.80273,7.99609 a 26.568527,26.568527 0 0 0 0.27149,1.2207 c 0.62644,2.53595 1.51509,5.15744 2.75586,7.77344 a 26.568527,26.568527 0 0 0 0.24218,0.5 c 1.74241,3.48322 4.35779,7.21713 8.01758,10.38281 5.21938,4.51465 13.23669,7.3125 19.68555,7.3125 7.57882,0 15.16626,-3.27968 20.10742,-7.20117 3.28408,-2.55682 6.18785,-5.59778 8.46875,-8.875 1.86027,-2.67292 3.46228,-5.52933 4.77539,-8.48242 1.10594,-2.48725 2.13271,-5.08374 2.9336,-8.50586 a 26.568527,26.568527 0 0 0 0.0234,-0.0977 c 0.80727,-3.50998 1.4972,-6.7615 2.07227,-9.80078 a 26.568527,26.568527 0 0 0 0.0176,-0.0996 c 0.48999,-2.64475 0.98104,-5.26171 1.4707,-7.84961 a 26.568527,26.568527 0 0 0 0.0176,-0.0996 c 0.12506,-0.67503 0.26622,-1.4216 0.39453,-2.11132 1.82275,-0.43196 3.60828,-0.81853 5.44336,-1.26563 6.94424,-1.69188 13.76717,-3.77892 20.44922,-6.26172 a 26.568527,26.568527 0 0 0 0.002,0 c 0.44369,-0.16486 0.8649,-0.38123 1.30664,-0.55078 a 26.568527,26.568527 0 0 0 -0.0684,0.45703 c -0.33844,2.56875 -0.52539,5.17743 -0.52539,7.82227 0,6.35568 1.21592,13.30719 4.39258,19.83008 a 26.568527,26.568527 0 0 0 0.20117,0.40429 c 3.14727,6.19329 7.31274,10.88259 11.73828,14.82617 a 26.568527,26.568527 0 0 0 0.0371,0.0332 c 3.65176,3.24182 7.78013,5.5327 11.73633,7.01562 4.35379,1.63192 9.0784,2.44531 13.56445,2.44531 3.90023,0 7.48834,-0.66435 10.76953,-1.66406 3.36799,2.05164 6.37979,2.99952 8.90625,3.63086 a 26.568527,26.568527 0 0 0 0.32227,0.0781 c 4.07363,0.96433 7.00261,1.05078 9.83984,1.05078 4.93777,0 11.59347,-1.13981 17.75782,-5.29883 0.34416,-0.2322 0.66924,-0.56045 1.01172,-0.81055 6.04537,4.22085 13.48257,6.8613 19.25195,6.86133 5.09902,0 11.20189,-1.37329 16.53711,-4.41406 4.0753,-2.27637 8.42663,-5.799 11.59179,-10.65234 a 26.568527,26.568527 0 0 0 2.65821,-5.28126 c 1.59131,-4.29452 2.28229,-8.4477 2.5039,-12.31054 0.10808,-1.88393 0.15141,-3.77458 0.16797,-5.66797 0.96875,-4.47408 1.93429,-8.86877 2.89453,-12.96289 0.0918,-0.38033 0.15941,-0.70464 0.25,-1.08203 0.16645,2.67084 0.41046,5.33704 0.79102,7.99023 a 26.568527,26.568527 0 0 0 0.01,0.0606 c 0.80197,5.50096 2.28036,10.99261 4.61719,16.24805 a 26.568527,26.568527 0 0 0 0.16016,0.35742 c 2.75501,5.95756 6.99516,11.78523 12.51953,16.26367 a 26.568527,26.568527 0 0 0 0.23242,0.18555 c 7.24677,5.74122 16.72856,8.33789 24.67969,8.33789 6.83298,0 10.65599,-1.85793 13.49805,-3.32617 1.89379,-0.93551 3.60859,-1.9337 5.15429,-2.97657 1.68773,-1.13867 3.21309,-2.37774 4.66407,-3.65234 0.007,0.006 0.0123,0.0136 0.0195,0.0195 0.10269,-0.0872 0.20041,-0.18371 0.30273,-0.27148 0.0482,-0.043 0.10828,-0.0799 0.15625,-0.12305 L 758,393.44141 c 0.005,0.004 0.009,0.008 0.0137,0.0117 a 26.568527,26.568527 0 0 0 0.33203,0.26758 c 5.77938,4.61203 14.21754,7.64453 21.7793,7.64453 5.81522,4e-5 12.70023,-1.78881 18.23047,-5.3789 3.61125,-2.33012 6.57007,-5.25926 8.99219,-8.3086 1.64551,1.87528 3.32469,3.69615 5.10351,5.28125 a 26.568527,26.568527 0 0 0 0.0371,0.0332 c 3.65176,3.24182 7.78013,5.5327 11.73633,7.01562 4.35379,1.63192 9.0784,2.44531 13.56445,2.44531 3.90022,0 7.48832,-0.66435 10.76953,-1.66406 3.36801,2.05166 6.37984,2.99953 8.90625,3.63086 a 26.568527,26.568527 0 0 0 0.32227,0.0781 c 4.07363,0.96433 7.00261,1.05078 9.83984,1.05078 4.93777,0 11.5775,-1.12771 17.75977,-5.29883 0.34238,-0.231 0.66364,-0.55619 1.0039,-0.80469 0.86108,0.67695 1.65552,1.4486 2.56641,2.0293 5.47291,3.51804 12.19753,5.24609 17.80664,5.24609 8.1146,0 18.52357,-4.8203 23.9961,-11.27343 3.48756,-4.0965 5.87822,-8.67124 7.28906,-12.99805 a 26.568527,26.568527 0 0 0 0.0762,-0.24219 c 1.13274,-3.58972 1.84531,-7.23253 2.21094,-10.83008 a 26.568527,26.568527 0 0 0 0.008,-0.0723 c 0.26852,-2.71741 0.42773,-5.40064 0.42773,-8.13672 l 0,-0.0742 c 0.193,-1.39212 0.40119,-2.87328 0.76172,-5.0625 a 26.568527,26.568527 0 0 0 0.0117,-0.0762 c 0.40417,-2.49939 0.92709,-5.20445 1.57031,-8.09766 a 26.568527,26.568527 0 0 0 0.002,-0.0117 l 18.60156,-83.83398 a 26.568527,26.568527 0 0 0 0.16211,-0.80664 26.568527,26.568527 0 0 0 0.0918,-0.35938 c 0.50039,-2.06318 0.9707,-4.47467 0.9707,-7.85156 0,-6.24904 -2.30139,-13.22674 -5.8125,-18.16211 -2.47235,-3.47518 -5.74189,-6.48883 -9.2168,-8.76953 -2.70483,-1.83936 -5.67088,-3.38306 -8.74023,-4.4375 -3.11696,-1.08869 -6.84443,-1.97461 -11.27735,-1.97461 -9.32913,0 -20.2158,6.27328 -24.98242,12.76172 a 26.568527,26.568527 0 0 0 -0.0703,0.0977 c -3.20681,4.40738 -5.01679,8.83379 -6.20703,12.9707 -1.01814,3.53835 -1.6704,7.0741 -2.0625,10.60156 -0.19068,1.71528 -0.32722,3.29655 -0.4707,4.89649 l -2.35352,10.5039 c -4.66601,-1.73563 -8.90675,-2.21679 -12.51562,-2.2168 -1.91744,0 -3.87479,0.15798 -5.83594,0.43165 l -0.002,0 c -0.0131,0.002 -0.0259,0.002 -0.0391,0.004 -2.19682,-0.26107 -4.43732,-0.43555 -6.84765,-0.43555 -4.58486,0 -9.14633,0.55533 -13.5625,1.56446 -5.18767,1.13366 -9.81759,3.20773 -13.88282,5.73242 -0.40813,-0.50515 -0.70496,-1.08459 -1.14843,-1.5625 -6.44555,-6.94587 -16.85105,-10.41992 -24.38282,-10.41992 -10.79078,0 -15.41733,3.99725 -18.93554,6.58398 a 26.568527,26.568527 0 0 0 -0.40039,0.30078 c -3.33795,2.55236 -5.99726,5.35574 -8.27539,8.22657 -3.84645,-1.7522 -8.33273,-3.0625 -13.3125,-3.0625 -4.53201,0 -10.37118,0.71374 -16.22266,3.68554 -3.15515,-4.25501 -7.43371,-7.71876 -11.66406,-9.85937 -5.62495,-2.84632 -11.12493,-3.61524 -15.64063,-3.61524 -5.93191,0 -12.88696,1.90352 -18.40625,5.50782 l 1.44141,0.64062 c -0.22631,-0.10906 -0.5064,-0.17283 -0.73633,-0.2793 -0.24571,-0.10724 -0.45593,-0.25911 -0.70508,-0.36132 -4.7e-4,3e-4 -10e-4,-3.1e-4 -0.002,0 -0.0306,0.02 -0.0652,0.0346 -0.0957,0.0547 -10e-4,-5.7e-4 -0.003,-0.001 -0.004,-0.002 -0.007,0.005 -0.0122,0.009 -0.0195,0.0137 -0.13428,0.0886 -0.2894,0.14956 -0.42188,0.24024 l 0.40625,-0.26758 c -1.72102,-0.75906 -3.47671,-1.49285 -5.41015,-2.0586 -1.56504,-0.48983 -3.14766,-0.9285 -4.75,-1.2539 -2.59702,-0.53974 -5.24466,-0.81247 -7.83008,-0.8125 -4.0898,0 -8.17183,0.85031 -12.10742,2.05078 -5.47228,-2.95806 -11.19862,-3.97461 -15.57227,-3.97461 -5.21538,0 -13.27072,1.6704 -19.85156,7.00391 -0.59396,-0.31422 -1.17733,-0.80375 -1.76563,-1.06836 a 26.568527,26.568527 0 0 0 -0.002,0 c -5.50666,-2.47683 -10.4649,-3.00781 -14.61523,-3.00782 -1.91745,0 -3.87476,0.15798 -5.83594,0.43165 l -0.002,0 c -0.0132,0.002 -0.0259,0.002 -0.0391,0.004 -2.1968,-0.26106 -4.43732,-0.43554 -6.84765,-0.43555 -4.58486,0 -9.14633,0.55533 -13.5625,1.56446 -0.73996,0.1617 -1.42669,0.40915 -2.14454,0.60742 -0.93569,-5.51412 -2.69979,-11.01396 -5.55664,-16.00586 -3.42548,-6.1055 -8.05927,-11.63468 -13.47265,-16.07812 -5.0825,-4.25996 -10.82466,-7.69451 -16.88086,-10.20899 -5.15661,-2.16005 -10.48001,-3.8527 -15.91797,-4.99414 a 26.568527,26.568527 0 0 0 -0.0684,-0.0137 c -3.09693,-0.6415 -6.25933,-1.11289 -10.33789,-1.65625 -0.24788,-0.0334 -0.55135,-0.0286 -0.80078,-0.0606 -1.34324,-1.52244 -2.80641,-2.99016 -4.44531,-4.29101 -5.21912,-4.14264 -12.89694,-6.76172 -19.41797,-6.76172 z m 27.41015,15.72265 0.5,0.81055 c -0.0858,-0.14473 -0.21806,-0.28119 -0.30664,-0.42578 -0.0773,-0.12309 -0.11474,-0.26236 -0.19336,-0.38477 z m -52.15039,0.0332 c -0.0918,0.0326 -0.15874,0.0916 -0.25,0.125 -0.18444,0.0704 -0.40564,0.11772 -0.58789,0.18945 l 0.83789,-0.31445 z m 56.10157,7.71679 0.16015,0.41016 c -0.003,-0.008 -0.009,-0.0154 -0.0117,-0.0234 -0.053,-0.13335 -0.0946,-0.25213 -0.14843,-0.38672 z m 138.67187,37.17383 1.4707,1.08594 c -0.18539,-0.14716 -0.38709,-0.22586 -0.57421,-0.36719 -0.30675,-0.22914 -0.5818,-0.5025 -0.89649,-0.71875 z m -18.76758,6.54688 c -0.0184,0.0142 -0.0324,0.0327 -0.0508,0.0469 -0.0242,0.0188 -0.052,0.0339 -0.0762,0.0527 l 0.12695,-0.0996 z m -9.30273,2.92578 0.59375,0.75 c -0.12894,-0.16915 -0.28744,-0.31041 -0.41992,-0.47656 -0.0686,-0.0855 -0.10423,-0.18865 -0.17383,-0.27344 z m 250.60156,0 0.59375,0.75 c -0.12928,-0.16961 -0.28707,-0.31191 -0.41992,-0.47852 -0.0685,-0.0853 -0.10437,-0.18687 -0.17383,-0.27148 z m -155.52344,2.78515 c -0.0286,0.0238 -0.0515,0.0523 -0.0801,0.0762 -0.0218,0.0183 -0.0446,0.0265 -0.0664,0.0449 l 0.14648,-0.1211 z m -19.29297,6.99024 0.36915,0.69336 c -0.0435,-0.0844 -0.1141,-0.16174 -0.15821,-0.2461 -0.0766,-0.14284 -0.13292,-0.30614 -0.21094,-0.44726 z m 180.89258,1.71875 0.44531,1.58398 c -0.0488,-0.19754 -0.16734,-0.4083 -0.2207,-0.60742 -0.0915,-0.3239 -0.12358,-0.65468 -0.22461,-0.97656 z m -417.8457,3.68555 c 1.4528,0.15985 2.96202,0.38085 4.25,0.38086 -1.09468,-1e-5 -2.52555,-0.0668 -4.25,-0.38086 z m 246.12695,1.34375 c -0.029,0.0678 -0.0396,0.13533 -0.0684,0.20312 -0.016,0.0384 -0.0486,0.0769 -0.0644,0.11523 l 0.13281,-0.31835 z m 105.69336,7.82617 -0.27148,1.2207 c 0.0692,-0.28021 0.12315,-0.63204 0.1914,-0.92187 0.0212,-0.10273 0.0597,-0.19572 0.0801,-0.29883 z m -82.81054,1.72851 -0.084,0.73438 c 0.007,-0.0567 0.005,-0.13039 0.0117,-0.1875 0.022,-0.20171 0.0498,-0.31904 0.0723,-0.54688 z m -169.75977,2.89649 -0.25195,0.39844 c 0.0267,-0.0415 0.0418,-0.0912 0.0684,-0.13282 0.0568,-0.0909 0.12731,-0.1745 0.18359,-0.26562 z m -7.72852,9.92773 -0.15429,0.15821 c 0.0272,-0.0278 0.049,-0.0601 0.0762,-0.0879 0.0244,-0.0253 0.0537,-0.045 0.0781,-0.0703 z m 84.66407,1.54688 a 26.568527,26.568527 0 0 0 1.13867,2.2539 c -0.86487,-1.36533 -1.03487,-2.02045 -1.13867,-2.2539 z m 8.6914,13.08007 c 0.0247,0.0243 0.0534,0.0383 0.0781,0.0625 0.0488,0.0476 0.0694,0.0829 0.11914,0.13086 l -0.19727,-0.19336 z m -131.44922,3.42188 c -0.0166,0.0727 -0.0246,0.13659 -0.041,0.20898 -0.0114,0.0528 -0.0297,0.10346 -0.041,0.15625 l 0.082,-0.36523 z m 250.60157,0 c -0.0165,0.0721 -0.0247,0.13708 -0.041,0.20898 -0.0114,0.0528 -0.0297,0.10346 -0.041,0.15625 l 0.082,-0.36523 z m 74.65625,21.51953 c -10e-4,0.0111 -6.8e-4,0.0241 -0.002,0.0352 -0.003,0.0299 -0.008,0.06 -0.0117,0.0898 l 0.0137,-0.125 z m -64.33399,22.45703 -0.41211,0.55078 c 0.0879,-0.11446 0.14987,-0.23478 0.23633,-0.34961 0.051,-0.0691 0.12544,-0.13198 0.17578,-0.20117 z"
         id="path5162"
         inkscape:connector-curvature="0" />
      <path
         transform="translate(197.9899,-379.81736)"
         style="font-style:normal;font-variant:normal;font-weight:normal;font-stretch:normal;font-size:161.58976746px;line-height:125%;font-family:'MV Boli';-inkscape-font-specification:'MV Boli, Normal';text-align:start;letter-spacing:0px;word-spacing:0px;writing-mode:lr-tb;text-anchor:start;fill:#ffffff;fill-opacity:1;stroke:none;stroke-width:1px;stroke-linecap:butt;stroke-linejoin:miter;stroke-opacity:1"
         d="m 513.30469,215.36719 c -5.71588,0 -13.4423,1.61589 -19.91992,6.59961 -3.84733,2.96007 -6.98175,6.71579 -9.18165,10.52148 -0.20672,0.35764 -0.35771,0.72575 -0.55273,1.08594 -2.90395,1.63477 -5.54209,3.46454 -7.55273,5.45508 -4.67714,4.6209 -6.86107,9.27771 -8.30664,13.26758 a 26.568527,26.568527 0 0 0 -0.16016,0.45117 c -1.97929,5.78674 -2.17383,10.20851 -2.17383,14.45312 0,2.82382 0.30504,5.70885 0.93164,8.52735 a 26.568527,26.568527 0 0 0 0.084,0.36523 c 0.66696,2.81238 1.89267,5.6908 3.41406,8.45898 -0.89899,2.9914 -1.79706,5.98337 -2.69336,8.84571 a 26.568527,26.568527 0 0 0 -0.0898,0.29101 c -1.18159,3.93066 -2.33523,7.74562 -3.4629,11.43946 a 26.568527,26.568527 0 0 0 -0.0625,0.20507 c -1.22518,4.13307 -2.30344,8.17476 -3.22851,12.14063 -1.01449,4.33528 -1.90896,8.27101 -2.68555,11.82227 -0.75003,3.37456 -1.47705,6.69939 -2.17968,9.97265 l -2.89063,13.33399 c -0.36371,1.67649 -0.68336,2.82637 -0.82617,3.2832 -0.32456,0.9712 -0.61306,1.7711 -0.77735,2.18164 -0.35082,0.87656 -0.65063,1.58768 -0.87304,2.08789 a 26.568527,26.568527 0 0 0 -0.48438,1.16016 c -0.67681,1.73954 -1.08066,3.4783 -1.51172,5.21484 -0.81126,2.81399 -1.26562,5.63627 -1.26562,8.18359 l 0,0.91993 c 0,2.88486 0.31734,5.53996 0.80273,7.99609 a 26.568527,26.568527 0 0 0 0.27149,1.2207 c 0.62644,2.53595 1.51509,5.15744 2.75586,7.77344 a 26.568527,26.568527 0 0 0 0.24218,0.5 c 1.74241,3.48322 4.35779,7.21713 8.01758,10.38281 5.21938,4.51465 13.23669,7.3125 19.68555,7.3125 7.57882,0 15.16626,-3.27968 20.10742,-7.20117 3.28408,-2.55682 6.18785,-5.59778 8.46875,-8.875 1.86027,-2.67292 3.46228,-5.52933 4.77539,-8.48242 1.10594,-2.48725 2.13271,-5.08374 2.9336,-8.50586 a 26.568527,26.568527 0 0 0 0.0234,-0.0977 c 0.80727,-3.50998 1.4972,-6.7615 2.07227,-9.80078 a 26.568527,26.568527 0 0 0 0.0176,-0.0996 c 0.48999,-2.64475 0.98104,-5.26171 1.4707,-7.84961 a 26.568527,26.568527 0 0 0 0.0176,-0.0996 c 0.12506,-0.67503 0.26622,-1.4216 0.39453,-2.11132 1.82275,-0.43196 3.60828,-0.81853 5.44336,-1.26563 6.94424,-1.69188 13.76717,-3.77892 20.44922,-6.26172 a 26.568527,26.568527 0 0 0 0.002,0 c 0.44369,-0.16486 0.8649,-0.38123 1.30664,-0.55078 a 26.568527,26.568527 0 0 0 -0.0684,0.45703 c -0.33844,2.56875 -0.52539,5.17743 -0.52539,7.82227 0,6.35568 1.21592,13.30719 4.39258,19.83008 a 26.568527,26.568527 0 0 0 0.20117,0.40429 c 3.14727,6.19329 7.31274,10.88259 11.73828,14.82617 a 26.568527,26.568527 0 0 0 0.0371,0.0332 c 3.65176,3.24182 7.78013,5.5327 11.73633,7.01562 4.35379,1.63192 9.0784,2.44531 13.56445,2.44531 3.90023,0 7.48834,-0.66435 10.76953,-1.66406 3.36799,2.05164 6.37979,2.99952 8.90625,3.63086 a 26.568527,26.568527 0 0 0 0.32227,0.0781 c 4.07363,0.96433 7.00261,1.05078 9.83984,1.05078 4.93777,0 11.59347,-1.13981 17.75782,-5.29883 0.34416,-0.2322 0.66924,-0.56045 1.01172,-0.81055 6.04537,4.22085 13.48257,6.8613 19.25195,6.86133 5.09902,0 11.20189,-1.37329 16.53711,-4.41406 4.0753,-2.27637 8.42663,-5.799 11.59179,-10.65234 a 26.568527,26.568527 0 0 0 2.65821,-5.28126 c 1.59131,-4.29452 2.28229,-8.4477 2.5039,-12.31054 0.10808,-1.88393 0.15141,-3.77458 0.16797,-5.66797 0.96875,-4.47408 1.93429,-8.86877 2.89453,-12.96289 0.0918,-0.38033 0.15941,-0.70464 0.25,-1.08203 0.16645,2.67084 0.41046,5.33704 0.79102,7.99023 a 26.568527,26.568527 0 0 0 0.01,0.0606 c 0.80197,5.50096 2.28036,10.99261 4.61719,16.24805 a 26.568527,26.568527 0 0 0 0.16016,0.35742 c 2.75501,5.95756 6.99516,11.78523 12.51953,16.26367 a 26.568527,26.568527 0 0 0 0.23242,0.18555 c 7.24677,5.74122 16.72856,8.33789 24.67969,8.33789 6.83298,0 10.65599,-1.85793 13.49805,-3.32617 1.89379,-0.93551 3.60859,-1.9337 5.15429,-2.97657 1.68773,-1.13867 3.21309,-2.37774 4.66407,-3.65234 0.007,0.006 0.0123,0.0136 0.0195,0.0195 0.10269,-0.0872 0.20041,-0.18371 0.30273,-0.27148 0.0482,-0.043 0.10828,-0.0799 0.15625,-0.12305 L 758,393.44141 c 0.005,0.004 0.009,0.008 0.0137,0.0117 a 26.568527,26.568527 0 0 0 0.33203,0.26758 c 5.77938,4.61203 14.21754,7.64453 21.7793,7.64453 5.81522,4e-5 12.70023,-1.78881 18.23047,-5.3789 3.61125,-2.33012 6.57007,-5.25926 8.99219,-8.3086 1.64551,1.87528 3.32469,3.69615 5.10351,5.28125 a 26.568527,26.568527 0 0 0 0.0371,0.0332 c 3.65176,3.24182 7.78013,5.5327 11.73633,7.01562 4.35379,1.63192 9.0784,2.44531 13.56445,2.44531 3.90022,0 7.48832,-0.66435 10.76953,-1.66406 3.36801,2.05166 6.37984,2.99953 8.90625,3.63086 a 26.568527,26.568527 0 0 0 0.32227,0.0781 c 4.07363,0.96433 7.00261,1.05078 9.83984,1.05078 4.93777,0 11.5775,-1.12771 17.75977,-5.29883 0.34238,-0.231 0.66364,-0.55619 1.0039,-0.80469 0.86108,0.67695 1.65552,1.4486 2.56641,2.0293 5.47291,3.51804 12.19753,5.24609 17.80664,5.24609 8.1146,0 18.52357,-4.8203 23.9961,-11.27343 3.48756,-4.0965 5.87822,-8.67124 7.28906,-12.99805 a 26.568527,26.568527 0 0 0 0.0762,-0.24219 c 1.13274,-3.58972 1.84531,-7.23253 2.21094,-10.83008 a 26.568527,26.568527 0 0 0 0.008,-0.0723 c 0.26852,-2.71741 0.42773,-5.40064 0.42773,-8.13672 l 0,-0.0742 c 0.193,-1.39212 0.40119,-2.87328 0.76172,-5.0625 a 26.568527,26.568527 0 0 0 0.0117,-0.0762 c 0.40417,-2.49939 0.92709,-5.20445 1.57031,-8.09766 a 26.568527,26.568527 0 0 0 0.002,-0.0117 l 18.60156,-83.83398 a 26.568527,26.568527 0 0 0 0.16211,-0.80664 26.568527,26.568527 0 0 0 0.0918,-0.35938 c 0.50039,-2.06318 0.9707,-4.47467 0.9707,-7.85156 0,-6.24904 -2.30139,-13.22674 -5.8125,-18.16211 -2.47235,-3.47518 -5.74189,-6.48883 -9.2168,-8.76953 -2.70483,-1.83936 -5.67088,-3.38306 -8.74023,-4.4375 -3.11696,-1.08869 -6.84443,-1.97461 -11.27735,-1.97461 -9.32913,0 -20.2158,6.27328 -24.98242,12.76172 a 26.568527,26.568527 0 0 0 -0.0703,0.0977 c -3.20681,4.40738 -5.01679,8.83379 -6.20703,12.9707 -1.01814,3.53835 -1.6704,7.0741 -2.0625,10.60156 -0.19068,1.71528 -0.32722,3.29655 -0.4707,4.89649 l -2.35352,10.5039 c -4.66601,-1.73563 -8.90675,-2.21679 -12.51562,-2.2168 -1.91744,0 -3.87479,0.15798 -5.83594,0.43165 l -0.002,0 c -0.0131,0.002 -0.0259,0.002 -0.0391,0.004 -2.19682,-0.26107 -4.43732,-0.43555 -6.84765,-0.43555 -4.58486,0 -9.14633,0.55533 -13.5625,1.56446 -5.18767,1.13366 -9.81759,3.20773 -13.88282,5.73242 -0.40813,-0.50515 -0.70496,-1.08459 -1.14843,-1.5625 -6.44555,-6.94587 -16.85105,-10.41992 -24.38282,-10.41992 -10.79078,0 -15.41733,3.99725 -18.93554,6.58398 a 26.568527,26.568527 0 0 0 -0.40039,0.30078 c -3.33795,2.55236 -5.99726,5.35574 -8.27539,8.22657 -3.84645,-1.7522 -8.33273,-3.0625 -13.3125,-3.0625 -4.53201,0 -10.37118,0.71374 -16.22266,3.68554 -3.15515,-4.25501 -7.43371,-7.71876 -11.66406,-9.85937 -5.62495,-2.84632 -11.12493,-3.61524 -15.64063,-3.61524 -5.93191,0 -12.88696,1.90352 -18.40625,5.50782 l 1.44141,0.64062 c -0.22631,-0.10906 -0.5064,-0.17283 -0.73633,-0.2793 -0.24571,-0.10724 -0.45593,-0.25911 -0.70508,-0.36132 -4.7e-4,3e-4 -10e-4,-3.1e-4 -0.002,0 -0.0306,0.02 -0.0652,0.0346 -0.0957,0.0547 -10e-4,-5.7e-4 -0.003,-0.001 -0.004,-0.002 -0.007,0.005 -0.0122,0.009 -0.0195,0.0137 -0.13428,0.0886 -0.2894,0.14956 -0.42188,0.24024 l 0.40625,-0.26758 c -1.72102,-0.75906 -3.47671,-1.49285 -5.41015,-2.0586 -1.56504,-0.48983 -3.14766,-0.9285 -4.75,-1.2539 -2.59702,-0.53974 -5.24466,-0.81247 -7.83008,-0.8125 -4.0898,0 -8.17183,0.85031 -12.10742,2.05078 -5.47228,-2.95806 -11.19862,-3.97461 -15.57227,-3.97461 -5.21538,0 -13.27072,1.6704 -19.85156,7.00391 -0.59396,-0.31422 -1.17733,-0.80375 -1.76563,-1.06836 a 26.568527,26.568527 0 0 0 -0.002,0 c -5.50666,-2.47683 -10.4649,-3.00781 -14.61523,-3.00782 -1.91745,0 -3.87476,0.15798 -5.83594,0.43165 l -0.002,0 c -0.0132,0.002 -0.0259,0.002 -0.0391,0.004 -2.1968,-0.26106 -4.43732,-0.43554 -6.84765,-0.43555 -4.58486,0 -9.14633,0.55533 -13.5625,1.56446 -0.73996,0.1617 -1.42669,0.40915 -2.14454,0.60742 -0.93569,-5.51412 -2.69979,-11.01396 -5.55664,-16.00586 -3.42548,-6.1055 -8.05927,-11.63468 -13.47265,-16.07812 -5.0825,-4.25996 -10.82466,-7.69451 -16.88086,-10.20899 -5.15661,-2.16005 -10.48001,-3.8527 -15.91797,-4.99414 a 26.568527,26.568527 0 0 0 -0.0684,-0.0137 c -3.09693,-0.6415 -6.25933,-1.11289 -10.33789,-1.65625 -0.24788,-0.0334 -0.55135,-0.0286 -0.80078,-0.0606 -1.34324,-1.52244 -2.80641,-2.99016 -4.44531,-4.29101 -5.21912,-4.14264 -12.89694,-6.76172 -19.41797,-6.76172 z m 27.41015,15.72265 0.5,0.81055 c -0.0858,-0.14473 -0.21806,-0.28119 -0.30664,-0.42578 -0.0773,-0.12309 -0.11474,-0.26236 -0.19336,-0.38477 z m -52.15039,0.0332 c -0.0918,0.0326 -0.15874,0.0916 -0.25,0.125 -0.18444,0.0704 -0.40564,0.11772 -0.58789,0.18945 l 0.83789,-0.31445 z m 56.10157,7.71679 0.16015,0.41016 c -0.003,-0.008 -0.009,-0.0154 -0.0117,-0.0234 -0.053,-0.13335 -0.0946,-0.25213 -0.14843,-0.38672 z m 138.67187,37.17383 1.4707,1.08594 c -0.18539,-0.14716 -0.38709,-0.22586 -0.57421,-0.36719 -0.30675,-0.22914 -0.5818,-0.5025 -0.89649,-0.71875 z m -18.76758,6.54688 c -0.0184,0.0142 -0.0324,0.0327 -0.0508,0.0469 -0.0242,0.0188 -0.052,0.0339 -0.0762,0.0527 l 0.12695,-0.0996 z m -9.30273,2.92578 0.59375,0.75 c -0.12894,-0.16915 -0.28744,-0.31041 -0.41992,-0.47656 -0.0686,-0.0855 -0.10423,-0.18865 -0.17383,-0.27344 z m 250.60156,0 0.59375,0.75 c -0.12928,-0.16961 -0.28707,-0.31191 -0.41992,-0.47852 -0.0685,-0.0853 -0.10437,-0.18687 -0.17383,-0.27148 z m -155.52344,2.78515 c -0.0286,0.0238 -0.0515,0.0523 -0.0801,0.0762 -0.0218,0.0183 -0.0446,0.0265 -0.0664,0.0449 l 0.14648,-0.1211 z m -19.29297,6.99024 0.36915,0.69336 c -0.0435,-0.0844 -0.1141,-0.16174 -0.15821,-0.2461 -0.0766,-0.14284 -0.13292,-0.30614 -0.21094,-0.44726 z m 180.89258,1.71875 0.44531,1.58398 c -0.0488,-0.19754 -0.16734,-0.4083 -0.2207,-0.60742 -0.0915,-0.3239 -0.12358,-0.65468 -0.22461,-0.97656 z m -417.8457,3.68555 c 1.4528,0.15985 2.96202,0.38085 4.25,0.38086 -1.09468,-1e-5 -2.52555,-0.0668 -4.25,-0.38086 z m 246.12695,1.34375 c -0.029,0.0678 -0.0396,0.13533 -0.0684,0.20312 -0.016,0.0384 -0.0486,0.0769 -0.0644,0.11523 l 0.13281,-0.31835 z m 105.69336,7.82617 -0.27148,1.2207 c 0.0692,-0.28021 0.12315,-0.63204 0.1914,-0.92187 0.0212,-0.10273 0.0597,-0.19572 0.0801,-0.29883 z m -82.81054,1.72851 -0.084,0.73438 c 0.007,-0.0567 0.005,-0.13039 0.0117,-0.1875 0.022,-0.20171 0.0498,-0.31904 0.0723,-0.54688 z m -169.75977,2.89649 -0.25195,0.39844 c 0.0267,-0.0415 0.0418,-0.0912 0.0684,-0.13282 0.0568,-0.0909 0.12731,-0.1745 0.18359,-0.26562 z m -7.72852,9.92773 -0.15429,0.15821 c 0.0272,-0.0278 0.049,-0.0601 0.0762,-0.0879 0.0244,-0.0253 0.0537,-0.045 0.0781,-0.0703 z m 84.66407,1.54688 a 26.568527,26.568527 0 0 0 1.13867,2.2539 c -0.86487,-1.36533 -1.03487,-2.02045 -1.13867,-2.2539 z m 8.6914,13.08007 c 0.0247,0.0243 0.0534,0.0383 0.0781,0.0625 0.0488,0.0476 0.0694,0.0829 0.11914,0.13086 l -0.19727,-0.19336 z m -131.44922,3.42188 c -0.0166,0.0727 -0.0246,0.13659 -0.041,0.20898 -0.0114,0.0528 -0.0297,0.10346 -0.041,0.15625 l 0.082,-0.36523 z m 250.60157,0 c -0.0165,0.0721 -0.0247,0.13708 -0.041,0.20898 -0.0114,0.0528 -0.0297,0.10346 -0.041,0.15625 l 0.082,-0.36523 z m 74.65625,21.51953 c -10e-4,0.0111 -6.8e-4,0.0241 -0.002,0.0352 -0.003,0.0299 -0.008,0.06 -0.0117,0.0898 l 0.0137,-0.125 z m -64.33399,22.45703 -0.41211,0.55078 c 0.0879,-0.11446 0.14987,-0.23478 0.23633,-0.34961 0.051,-0.0691 0.12544,-0.13198 0.17578,-0.20117 z"
         id="path5160"
         inkscape:connector-curvature="0" />
      <g
         transform="scale(0.94302871,1.0604131)"
         style="font-style:normal;font-weight:normal;font-size:161.58976746px;line-height:125%;font-family:sans-serif;letter-spacing:0px;word-spacing:0px;fill:#000000;fill-opacity:1;stroke:none;stroke-width:1px;stroke-linecap:butt;stroke-linejoin:miter;stroke-opacity:1"
         id="text5132">
        <path
           d="m 712.13335,0.03622349 q 0.3156,-1.42022259 0.86791,-2.68264259 0.63121,-1.2624201 1.34132,-2.8404452 0.71011,-1.578025 1.49913,-3.7083589 0.78901,-2.2092348 1.57802,-5.4441868 l 3.07715,-12.6242 q 1.10462,-4.576273 2.28814,-9.310348 1.18351,-4.812977 2.76154,-10.809472 1.26242,-4.812976 2.99825,-10.020459 1.81473,-5.286384 3.70836,-10.888373 1.97253,-5.601989 3.94506,-11.519583 1.97253,-5.917594 3.55056,-12.229695 0.0789,-0.236703 0.0789,-0.63121 0,-0.63121 -0.39451,-0.789012 -0.39451,-0.157803 -1.02572,-0.157803 -1.97253,0 -3.31385,-0.552308 -1.26242,-0.63121 -2.05143,-1.578025 -0.71011,-0.946815 -1.02572,-2.130334 -0.3156,-1.26242 -0.3156,-2.603738 0,-3.47166 0.78901,-5.52309 0.86791,-2.13034 2.13033,-3.23495 1.34133,-1.18352 2.84045,-1.65693 1.57802,-0.55231 2.99825,-0.86791 1.49912,-0.31561 2.60374,-0.63121 1.10462,-0.39451 1.57802,-1.34132 0.78902,-1.65693 1.42023,-3.47166 0.71011,-1.89363 1.73582,-3.47165 1.02572,-1.57803 2.52484,-2.60375 1.49913,-1.02571 3.94507,-1.02571 1.73582,0 3.07715,0.94681 1.34132,0.94682 2.28813,2.36704 1.02572,1.42022 1.73583,3.07715 0.71011,1.57802 1.26242,2.91935 8.12683,0.2367 14.04442,0.94681 5.9965,0.71011 8.99475,1.26242 5.91759,1.10462 11.83518,3.31385 5.9965,2.20924 10.73057,5.75979 4.81298,3.47166 7.81123,8.284637 3.07715,4.734075 3.07715,10.888373 0,3.15605 -0.71011,6.548804 l -0.55231,2.761544 q -0.63121,3.313852 -2.68265,6.154297 -1.97253,2.840445 -4.49737,5.128582 -7.02221,6.469903 -15.38574,10.888373 -8.36353,4.339569 -17.43718,7.337816 -9.07364,2.998248 -18.54179,5.049681 -9.46815,2.051432 -18.6996,3.866161 l -2.20924,0.315605 q -1.81472,0.236704 -2.13033,1.341321 -1.57802,5.444187 -2.52484,9.547052 -0.86791,4.102865 -1.65693,7.890125 -0.78901,3.708359 -1.57802,7.49562 -0.78901,3.7083584 -1.97253,8.2846312 -0.39451,1.49912377 -1.42022,3.5505564 -1.02572,2.0514326 -2.44594,3.8661614 -1.42023,1.8147288 -3.31386,3.0771489 -1.81473,1.3413213 -3.86616,1.3413213 -1.42022,0 -2.44594,-0.7890125 -1.02571,-0.7890126 -1.73582,-2.0514326 -0.63121,-1.1835188 -1.02572,-2.6037414 -0.31561,-1.4202226 -0.31561,-2.6826426 0,-0.4734075 0,-0.86791382 0,-0.47340752 0.15781,-0.86791379 z M 743.45714,-58.271803 q -0.1578,0.552309 -0.4734,1.420223 -0.23671,0.789012 -0.47341,1.735827 -0.2367,0.867914 -0.39451,1.656927 -0.1578,0.710111 -0.1578,1.025716 0,0.394506 0.0789,0.710111 0.1578,0.236704 0.55231,0.236704 0.2367,0 1.49912,-0.157803 1.26242,-0.236703 2.99825,-0.552308 1.81473,-0.315605 3.86616,-0.710112 2.05144,-0.394506 3.94507,-0.789012 5.12858,-1.104618 10.96727,-2.761544 5.83869,-1.735828 11.59848,-3.866162 5.8387,-2.130333 11.12508,-4.576272 5.28639,-2.445939 9.38925,-5.207483 4.33957,-2.919346 6.94331,-5.838693 2.60374,-2.919346 2.60374,-6.233199 0,-1.972531 -0.55231,-3.471655 -0.4734,-1.578025 -1.10461,-2.840445 -2.36704,-3.866162 -5.9176,-6.075397 -3.55055,-2.209235 -7.73232,-3.313852 -4.18177,-1.104618 -8.75804,-1.420223 -4.57627,-0.315605 -8.99474,-0.315605 -1.18352,0 -3.62946,0.157803 -2.36704,0.157802 -5.04968,0.394506 -2.60374,0.236704 -4.89188,0.63121 -2.20923,0.315605 -2.99825,0.789012 -0.3945,0.236704 -0.71011,0.789013 -0.2367,0.552309 -0.3945,0.946815 -0.63121,1.578025 -1.73583,4.41847 -1.10462,2.761544 -2.36704,6.233199 -1.26242,3.471655 -2.68264,7.337817 -1.34132,3.866161 -2.60374,7.57452 -1.26242,3.629458 -2.36704,6.864409 -1.02572,3.15605 -1.57803,5.207483 z"
           style="font-style:normal;font-variant:normal;font-weight:normal;font-stretch:normal;font-size:161.58976746px;line-height:125%;font-family:'MV Boli';-inkscape-font-specification:'MV Boli, Normal';text-align:start;writing-mode:lr-tb;text-anchor:start"
           id="path5290"
           inkscape:connector-curvature="0" />
        <path
           d="m 856.83824,0.35182851 q 0,-2.28813631 0.55231,-5.44418651 0.55231,-3.2349514 0.55231,-7.969027 -2.60374,1.89363 -5.75979,4.4973718 -3.15605,2.6037414 -6.54881,4.970779 -3.39275,2.3670376 -6.7855,4.02396396 -3.31386,1.57802504 -6.2332,1.57802504 -2.36704,0 -4.49737,-0.7101112 -2.13034,-0.71011133 -3.62946,-1.89363014 -4.18177,-3.31385266 -6.0754,-6.62770526 -1.81473,-3.3138522 -1.81473,-7.7323232 0,-1.972531 0.31561,-4.102865 0.3945,-2.130334 1.10462,-4.891878 2.99824,-12.466398 10.25716,-23.039166 7.33782,-10.651669 18.14729,-18.147288 4.18176,-2.919346 8.36353,-3.708359 4.18177,-0.867914 8.28463,-0.867914 1.81473,0 4.02397,0.236704 2.28813,0.236704 4.10286,0.473408 1.81473,-0.394507 2.91935,-0.552309 1.18352,-0.157803 2.44594,-0.157803 2.36703,0 3.94506,0.63121 1.57802,0.63121 2.52484,1.735828 0.94681,1.025716 1.34132,2.445939 0.47341,1.341321 0.47341,2.840445 0,2.051432 -0.63121,3.945063 -0.63121,1.814728 -1.26242,3.708358 l -10.41497,41.580961 q -0.3156,3.3927541 -0.55231,6.2331992 -0.2367,2.8404451 -0.94681,5.286384 -0.23671,0.71011126 -0.63121,1.81472882 -0.31561,1.02571628 -1.10462,2.05143258 -0.78901,0.9468151 -1.97253,1.6569263 -1.18352,0.7101113 -3.07715,0.7101113 -2.44594,0 -3.94506,-0.315605 -1.42022,-0.315605 -2.20924,-0.8679138 -0.78901,-0.63121 -1.02571,-1.4202226 -0.23671,-0.8679137 -0.23671,-1.97253129 z M 830.64303,-23.47635 q -0.31561,1.104617 -0.71011,3.15605 -0.31561,2.051433 -0.31561,4.102865 0,2.130334 0.63121,3.866162 0.63121,1.656926 2.76154,1.656926 3.31386,0 6.1543,-1.420223 2.91935,-1.499123 5.44419,-3.550556 3.39275,-2.761544 6.86441,-6.154298 3.55055,-3.471655 6.6277,-7.258915 3.15605,-3.78726 5.52309,-7.732323 2.44594,-4.023964 3.55056,-7.969027 0.63121,-2.288136 1.02571,-5.286384 0.47341,-2.998247 0.47341,-5.365285 0,-1.025716 -0.47341,-1.972531 -0.4734,-1.025716 -1.81473,-1.025716 -3.86616,0 -7.81122,1.499123 -3.86616,1.499124 -7.49562,4.023964 -3.62946,2.52484 -6.94331,5.996496 -3.23495,3.392753 -5.91759,7.337816 -2.68265,3.866162 -4.65518,8.047928 -1.89363,4.102865 -2.91934,8.047928 z"
           style="font-style:normal;font-variant:normal;font-weight:normal;font-stretch:normal;font-size:161.58976746px;line-height:125%;font-family:'MV Boli';-inkscape-font-specification:'MV Boli, Normal';text-align:start;writing-mode:lr-tb;text-anchor:start"
           id="path5292"
           inkscape:connector-curvature="0" />
        <path
           d="m 898.34031,-4.3822467 q 1.02572,-5.5230878 2.36704,-12.1507933 1.34132,-6.627705 2.76154,-13.413213 1.42022,-6.785508 2.76154,-13.334312 1.34133,-6.548804 2.28814,-11.99299 -0.0789,-0.789013 -0.0789,-1.341322 0,-0.63121 0,-1.341321 0,-2.445939 0.3156,-4.891878 0.31561,-2.445939 0.86792,-4.497371 0.86791,-2.998248 1.89363,-4.023964 1.10462,-1.104618 3.47165,-1.104618 2.28814,0 3.62946,0.946815 1.42022,0.867914 2.20924,2.367038 0.78901,1.499124 1.02571,3.471655 0.23671,1.89363 0.23671,3.945063 0,1.104617 -0.0789,2.445939 -0.0789,1.341321 -0.0789,2.130334 2.20924,-2.288137 4.65518,-4.655174 2.52484,-2.445939 5.28638,-4.339569 2.84045,-1.972532 5.9176,-3.234952 3.15605,-1.26242 6.5488,-1.26242 1.34132,0 2.60374,0.236704 1.34132,0.236704 2.68264,0.63121 1.57803,0.394506 3.23495,1.104618 1.73583,0.63121 3.31386,1.814728 2.60374,1.972532 4.33957,4.970779 1.81473,2.919347 1.81473,5.996496 0,1.183518 -0.47341,2.603741 -0.47341,1.341321 -1.34132,2.52484 -0.78902,1.104618 -1.89363,1.89363 -1.10462,0.710112 -2.44594,0.710112 -1.34132,0 -3.31386,-0.631211 -1.89363,-0.710111 -3.15605,-1.814728 -0.5523,-0.473408 -1.18351,-1.341322 -0.55231,-0.867913 -1.10462,-1.735827 -0.47341,-0.867914 -0.94682,-1.578025 -0.3945,-0.789013 -0.63121,-1.025717 -0.3945,-0.0789 -0.86791,-0.0789 -0.47341,-0.0789 -0.86791,-0.0789 -4.02397,0 -7.65343,2.051432 -3.62945,2.051433 -6.7855,5.049681 -3.15605,2.919346 -5.8387,6.3121 -2.60374,3.313853 -4.57627,5.996495 -1.57802,6.391002 -3.55056,13.649917 -1.89363,7.180014 -3.78726,15.0701396 l 0,1.9725313 q 0,2.3670377 -0.1578,4.8129765 -0.1578,2.44593888 -0.94681,4.339569 -0.86792,1.1835188 -2.52484,1.9725313 -1.57803,0.8679138 -3.70836,0.8679138 -3.31385,0 -4.97078,-2.1303338 -1.65693,-2.2092351 -1.65693,-5.1285815 0,-1.3413213 0.39451,-2.7615439 z"
           style="font-style:normal;font-variant:normal;font-weight:normal;font-stretch:normal;font-size:161.58976746px;line-height:125%;font-family:'MV Boli';-inkscape-font-specification:'MV Boli, Normal';text-align:start;writing-mode:lr-tb;text-anchor:start"
           id="path5294"
           inkscape:connector-curvature="0" />
        <path
           d="m 975.66352,-66.793138 q 1.42023,-3.077149 3.23496,-4.102866 1.81472,-1.104617 4.18176,-1.104617 2.28814,0 3.86616,0.710111 1.57803,0.710111 2.52484,1.89363 0.94682,1.183519 1.34132,2.761544 0.39451,1.578025 0.39451,3.392754 0,0.552309 0,1.104618 0,0.473407 -0.0789,1.025716 -0.0789,0.710111 -0.39451,2.603741 -0.3156,1.814729 -0.78901,4.339569 -0.39451,2.52484 -0.94681,5.365285 -0.47341,2.761544 -0.94682,5.286384 -0.39451,2.524841 -0.78901,4.418471 -0.31561,1.89363 -0.47341,2.603741 -0.1578,0.789013 -0.39451,2.288136 -0.2367,1.499124 -0.4734,3.471656 -0.23671,1.89363 -0.39451,4.102865 -0.1578,2.209235 -0.1578,4.41847 0,2.130334 0.1578,4.102865 0.1578,1.89363 0.55231,3.392754 0.47341,1.420223 1.10462,2.288136 0.71011,0.867914 1.73582,0.867914 0.71012,0 2.05144,-1.104617 1.42022,-1.183519 2.91934,-2.761544 1.57803,-1.578025 3.07715,-3.313853 1.49913,-1.814729 2.44594,-2.998248 5.1286,-6.3121 9.3893,-12.782003 4.3395,-6.548804 8.0479,-13.176509 1.4202,-2.603741 2.1303,-5.286384 0.789,-2.682643 1.8147,-4.812976 1.0258,-2.209236 2.8405,-3.550557 1.8936,-1.420222 5.602,-1.420222 1.9725,0 4.0239,1.341321 2.0515,1.341321 2.8405,3.866161 -0.2367,2.919347 -0.7101,5.996496 -0.4734,3.077149 -0.8679,6.3121 -0.3945,3.15605 -0.7102,6.3121 -0.3156,3.15605 -0.3156,6.154298 0,4.655174 0.9469,8.679138 0.9468,3.945063 3.4716,6.706606 3.0772,-3.866161 6.0754,-8.758039 3.0772,-4.891877 5.9965,-10.178261 2.9194,-5.286384 5.5231,-10.65167 2.6826,-5.444186 4.9708,-10.336064 0.1578,-0.394506 0.1578,-0.710111 0.079,-0.394506 0.079,-0.789013 l 0,-0.710111 q 0,-2.445939 1.3413,-5.04968 1.4202,-2.603742 3.3138,-4.734075 1.8937,-2.130334 3.8662,-3.471656 2.0514,-1.341321 3.3928,-1.341321 3.3138,0 5.2074,1.814729 1.8937,1.814729 1.8937,4.812976 0,0.946815 -0.3945,2.367038 -0.3156,1.420223 -1.1046,2.840445 l -26.5898,46.867345 -1.9725,3.866161 q -1.2624,2.4459391 -2.5248,4.7340754 -1.1836,2.2881364 -2.6827,4.023964 -1.4202,1.7358275 -3.2349,2.76154384 -1.7359,1.0257163 -4.024,1.0257163 -3.0771,0 -5.5231,-1.73582758 -2.367,-1.73582756 -4.1029,-4.26066766 -1.7358,-2.5248402 -2.9193,-5.4441863 -1.1046,-2.998248 -1.6569,-5.365285 l -2.9194,-12.624201 q -0.2367,0 -1.6569,1.656926 -1.4202,1.656927 -3.5506,4.260668 -2.1303,2.603741 -4.6551,5.759791 -2.5249,3.077149 -4.9708,5.996496 -2.367,2.8404449 -4.4185,5.2074825 -1.97251,2.2881363 -3.07712,3.2349514 -1.10462,0.946815 -2.36704,1.89363007 -1.18352,0.94681505 -2.36704,1.65692633 -1.18352,0.7101113 -2.28814,1.1835188 -1.02571,0.4734075 -1.73582,0.4734075 -5.20749,0 -8.67914,-2.44593884 -3.39276,-2.44593886 -5.44419,-6.39100156 -1.97253,-3.9450627 -2.76154,-8.7580392 -0.78901,-4.891878 -0.78901,-9.783755 0,-4.339569 0.3945,-8.75804 0.47341,-4.41847 1.02572,-8.679137 0.63121,-4.339569 1.26242,-8.363533 0.71011,-4.023964 1.18352,-7.495619 0.0789,-0.63121 0.0789,-1.420223 0.0789,-0.867914 0.0789,-1.735828 l 0,-2.051432 q 0,-1.26242 0,-2.288137 0.0789,-1.104617 0.3156,-1.499123 z"
           style="font-style:normal;font-variant:normal;font-weight:normal;font-stretch:normal;font-size:161.58976746px;line-height:125%;font-family:'MV Boli';-inkscape-font-specification:'MV Boli, Normal';text-align:start;writing-mode:lr-tb;text-anchor:start"
           id="path5296"
           inkscape:connector-curvature="0" />
        <path
           d="m 1122.5777,0.35182851 q 0,-2.28813631 0.5523,-5.44418651 0.5523,-3.2349514 0.5523,-7.969027 -2.6037,1.89363 -5.7598,4.4973718 -3.156,2.6037414 -6.5488,4.970779 -3.3927,2.3670376 -6.7855,4.02396396 -3.3139,1.57802504 -6.2332,1.57802504 -2.367,0 -4.4974,-0.7101112 -2.1303,-0.71011133 -3.6294,-1.89363014 -4.1818,-3.31385266 -6.0754,-6.62770526 -1.8148,-3.3138522 -1.8148,-7.7323232 0,-1.972531 0.3156,-4.102865 0.3946,-2.130334 1.1047,-4.891878 2.9982,-12.466398 10.2571,-23.039166 7.3378,-10.651669 18.1473,-18.147288 4.1818,-2.919346 8.3636,-3.708359 4.1817,-0.867914 8.2846,-0.867914 1.8147,0 4.0239,0.236704 2.2882,0.236704 4.1029,0.473408 1.8147,-0.394507 2.9194,-0.552309 1.1835,-0.157803 2.4459,-0.157803 2.367,0 3.9451,0.63121 1.578,0.63121 2.5248,1.735828 0.9468,1.025716 1.3413,2.445939 0.4734,1.341321 0.4734,2.840445 0,2.051432 -0.6312,3.945063 -0.6312,1.814728 -1.2624,3.708358 l -10.415,41.580961 q -0.3156,3.3927541 -0.5523,6.2331992 -0.2367,2.8404451 -0.9468,5.286384 -0.2367,0.71011126 -0.6312,1.81472882 -0.3156,1.02571628 -1.1046,2.05143258 -0.789,0.9468151 -1.9725,1.6569263 -1.1836,0.7101113 -3.0772,0.7101113 -2.4459,0 -3.9451,-0.315605 -1.4202,-0.315605 -2.2092,-0.8679138 -0.789,-0.63121 -1.0257,-1.4202226 -0.2367,-0.8679137 -0.2367,-1.97253129 z M 1096.3825,-23.47635 q -0.3156,1.104617 -0.7101,3.15605 -0.3156,2.051433 -0.3156,4.102865 0,2.130334 0.6312,3.866162 0.6312,1.656926 2.7615,1.656926 3.3139,0 6.1543,-1.420223 2.9193,-1.499123 5.4442,-3.550556 3.3927,-2.761544 6.8644,-6.154298 3.5506,-3.471655 6.6277,-7.258915 3.1561,-3.78726 5.5231,-7.732323 2.4459,-4.023964 3.5505,-7.969027 0.6313,-2.288136 1.0258,-5.286384 0.4734,-2.998247 0.4734,-5.365285 0,-1.025716 -0.4734,-1.972531 -0.4734,-1.025716 -1.8148,-1.025716 -3.8661,0 -7.8112,1.499123 -3.8662,1.499124 -7.4956,4.023964 -3.6295,2.52484 -6.9433,5.996496 -3.235,3.392753 -5.9176,7.337816 -2.6827,3.866162 -4.6552,8.047928 -1.8936,4.102865 -2.9193,8.047928 z"
           style="font-style:normal;font-variant:normal;font-weight:normal;font-stretch:normal;font-size:161.58976746px;line-height:125%;font-family:'MV Boli';-inkscape-font-specification:'MV Boli, Normal';text-align:start;writing-mode:lr-tb;text-anchor:start"
           id="path5298"
           inkscape:connector-curvature="0" />
        <path
           d="m 1185.9354,-98.590344 q 0.2367,-2.682646 0.6312,-5.838696 0.3945,-3.15605 1.2624,-5.83869 0.8679,-2.68264 2.2881,-4.41847 1.4992,-1.81473 3.7873,-1.81473 1.2624,0 2.7615,0.47341 1.5781,0.47341 2.9194,1.34132 1.4202,0.78901 2.367,1.97253 0.9468,1.18352 0.9468,2.60374 0,0.63121 -0.2367,1.49913 -0.2367,0.78901 -0.3945,1.57802 l -19.7253,79.059058 q -1.1835,4.734076 -1.9725,9.073645 -0.789,4.260667 -1.1835,7.022211 l 0,1.8936303 q 0,2.3670376 -0.3156,5.2074827 -0.3156,2.7615439 -1.1836,5.20748276 -0.8679,2.36703764 -2.4459,3.94506264 -1.4991,1.6569264 -3.9451,1.6569264 -2.1303,0 -3.7083,-0.9468151 -1.578,-0.8679138 -2.6038,-2.2881363 -1.0257,-1.4202226 -1.4991,-2.99824767 -0.4734,-1.65692633 -0.4734,-3.07714893 0,-1.26242 0.2367,-3.0771489 0.2367,-1.89363 0.5523,-3.8661609 0.3945,-2.051433 0.789,-4.023964 0.3945,-2.051433 0.789,-3.550557 l 20.3566,-80.794884 z"
           style="font-style:normal;font-variant:normal;font-weight:normal;font-stretch:normal;font-size:161.58976746px;line-height:125%;font-family:'MV Boli';-inkscape-font-specification:'MV Boli, Normal';text-align:start;writing-mode:lr-tb;text-anchor:start"
           id="path5300"
           inkscape:connector-curvature="0" />
      </g>
    </g>
  </g>
</svg>
