<?xml version="1.0" encoding="UTF-8" standalone="no"?>
<!-- Created with Inkscape (http://www.inkscape.org/) -->

<svg
   xmlns:dc="http://purl.org/dc/elements/1.1/"
   xmlns:cc="http://creativecommons.org/ns#"
   xmlns:rdf="http://www.w3.org/1999/02/22-rdf-syntax-ns#"
   xmlns:svg="http://www.w3.org/2000/svg"
   xmlns="http://www.w3.org/2000/svg"
   xmlns:xlink="http://www.w3.org/1999/xlink"
   xmlns:sodipodi="http://sodipodi.sourceforge.net/DTD/sodipodi-0.dtd"
   xmlns:inkscape="http://www.inkscape.org/namespaces/inkscape"
   width="187.38173mm"
   height="48.167694mm"
   viewBox="0 0 663.95101 170.67293"
   id="svg6123"
   version="1.1"
   inkscape:version="0.91 r13725"
   sodipodi:docname="logo.svg">
  <defs
     id="defs6125">
    <linearGradient
       id="linearGradient4171"
       inkscape:collect="always">
      <stop
         id="stop4173"
         offset="0"
         style="stop-color:#000000;stop-opacity:1;" />
      <stop
         id="stop4175"
         offset="1"
         style="stop-color:#a26b00;stop-opacity:1" />
    </linearGradient>
    <inkscape:path-effect
       effect="vonkoch"
       id="path-effect6944"
       is_visible="true"
       ref_path="m 68.902719,526.1811 606.289051,0"
       generator="m 68.902719,592.33832 202.096351,0 m 202.09635,0 202.09635,0"
       similar_only="false"
       nbgenerations="1"
       drawall="true"
       maxComplexity="1000" />
    <inkscape:path-effect
       effect="sketch"
       id="path-effect6940"
       is_visible="true"
       nbiter_approxstrokes="5"
       strokelength="100"
       strokelength_rdm="0.3;138444336"
       strokeoverlap="0.3"
       strokeoverlap_rdm="0.3;1"
       ends_tolerance="0.1;232099713"
       parallel_offset="5;1"
       tremble_size="5;1"
       tremble_frequency="1"
       nbtangents="5"
       tgt_places_rdmness="1;1"
       tgtscale="10"
       tgtlength="100"
       tgtlength_rdm="0.3;1" />
    <inkscape:path-effect
       effect="envelope"
       id="path-effect6896"
       is_visible="true"
       yy="true"
       xx="true"
       bendpath1="m 79.171033,459.57541 606.797367,0"
       bendpath2="m 685.9684,459.57541 0,130.75893"
       bendpath3="m 79.171033,590.33434 c 207.392057,-21.53033 408.917057,-18.419 606.797367,0"
       bendpath4="m 79.171033,459.57541 0,130.75893"
       bendpath3-nodetypes="cc" />
    <inkscape:path-effect
       effect="envelope"
       id="path-effect6891"
       is_visible="true"
       yy="true"
       xx="true"
       bendpath1="m 79.616607,460.09969 605.575643,0"
       bendpath2="m 685.19225,460.09969 0,132.15874"
       bendpath3="m 79.616607,592.25843 c 212.395383,-19.75657 407.757923,-7.57656 605.575643,0"
       bendpath4="m 79.616607,460.09969 0,132.15874"
       bendpath3-nodetypes="cc" />
    <filter
       inkscape:collect="always"
       style="color-interpolation-filters:sRGB"
       id="filter6934"
       x="-0.033078536"
       width="1.0661571"
       y="-0.15385352"
       height="1.307707">
      <feGaussianBlur
         inkscape:collect="always"
         stdDeviation="8.3666267"
         id="feGaussianBlur6936" />
    </filter>
    <radialGradient
       inkscape:collect="always"
       xlink:href="#linearGradient4171"
       id="radialGradient4165"
       cx="382.64124"
       cy="524.82076"
       fx="382.64124"
       fy="524.82076"
       r="323.59855"
       gradientTransform="matrix(1,0,0,0.26371093,0,386.41979)"
       gradientUnits="userSpaceOnUse" />
    <radialGradient
       inkscape:collect="always"
       xlink:href="#linearGradient4171"
       id="radialGradient4179"
       gradientUnits="userSpaceOnUse"
       gradientTransform="matrix(1,0,0,0.26371093,0,386.41979)"
       cx="382.64124"
       cy="524.82076"
       fx="382.64124"
       fy="524.82076"
       r="323.59855" />
  </defs>
  <sodipodi:namedview
     id="base"
     pagecolor="#ffffff"
     bordercolor="#666666"
     borderopacity="1.0"
     inkscape:pageopacity="0.0"
     inkscape:pageshadow="2"
     inkscape:zoom="0.98994949"
     inkscape:cx="391.15076"
     inkscape:cy="44.123906"
     inkscape:document-units="px"
     inkscape:current-layer="layer1"
     showgrid="false"
     inkscape:snap-object-midpoints="true"
     showguides="true"
     inkscape:window-width="1600"
     inkscape:window-height="838"
     inkscape:window-x="859"
     inkscape:window-y="1072"
     inkscape:window-maximized="1"
     fit-margin-top="0"
     fit-margin-left="0"
     fit-margin-right="0"
     fit-margin-bottom="0" />
  <metadata
     id="metadata6128">
    <rdf:RDF>
      <cc:Work
         rdf:about="">
        <dc:format>image/svg+xml</dc:format>
        <dc:type
           rdf:resource="http://purl.org/dc/dcmitype/StillImage" />
        <dc:title />
      </cc:Work>
    </rdf:RDF>
  </metadata>
  <g
     inkscape:label="Layer 1"
     inkscape:groupmode="layer"
     id="layer1"
     transform="translate(-40.143457,-456.71008)">
    <g
       id="g4209">
      <g
         style="fill:url(#radialGradient4165);fill-opacity:1;fill-rule:nonzero;filter:url(#filter6934)"
         inkscape:path-effect="#path-effect6896"
         transform="matrix(1.0258869,0,0,1,-20.427669,21.225792)"
         id="g6893">
        <path
           sodipodi:nodetypes="ccccccccccsccsscscscscscscscscsccccscccsscscsccscsscccsccccccsccsccccccccscccccccscssccsccccccsccscscsccccscscscscscsscccscsccscsccscsscsccsccsccccccccccccccccccccccccccccccccccccccccccccccccccccc"
           inkscape:connector-curvature="0"
           id="path6889"
           d="m 146.34533,459.56422 c -6.79973,-4e-5 -14.67653,4.11173 -18.47549,8.64838 -0.18404,0.2205 -0.36307,0.44493 -0.53694,0.67311 -4.19783,5.48962 -3.63789,6.37588 -4.77256,9.28201 -0.0319,0.0829 -0.0631,0.16595 -0.0938,0.24925 -1.35085,3.60848 -7.66231,15.78904 -17.18664,30.92866 -4.61127,7.25603 -7.532891,11.89936 -9.519003,15.50384 -0.02077,0.0378 -0.0414,0.0756 -0.06192,0.11351 -3.692927,6.80742 -6.71009,12.60952 -9.084798,17.64255 -0.0126,0.0267 -0.02516,0.0534 -0.03765,0.0801 -4.117074,8.82809 -7.405749,14.90647 -7.453624,25.14294 -0.01544,3.30242 0.538003,7.47471 2.951879,11.67214 0.107265,0.18653 0.217848,0.37107 0.331703,0.55354 3.506312,5.6193 12.759535,10.45104 19.966543,9.99296 5.50094,-0.34965 12.38534,-3.58274 16.14856,-7.68876 0.73673,-0.80383 1.30608,-1.59391 1.87118,-2.38285 5.05436,3.27535 11.48194,4.38925 16.67345,4.05491 7.35827,-0.47389 13.00684,-2.87522 17.63398,-6.13685 4.69017,1.88983 9.86484,2.80495 14.45575,2.51234 7.00539,-0.4465 13.38326,-2.60857 18.99261,-5.39834 6.05736,3.74245 14.13615,5.37345 20.95922,4.94093 5.29624,-0.33573 10.96409,-1.80401 15.80925,-4.16898 3.72427,1.44279 8.02595,2.16624 11.51677,1.96977 4.29662,-0.24183 9.20869,-1.8825 12.78123,-4.02929 2.70201,0.68683 5.39603,1.13624 7.78377,1.02219 5.22412,-0.24953 9.49283,-1.51196 13.06193,-3.07015 4.37826,1.96425 9.47111,3.17381 14.15727,2.98759 2.89711,-0.11512 5.54002,-0.58555 7.99801,-1.24188 4.03085,1.43426 8.59478,2.29373 13.02509,2.148 3.45588,-0.11367 7.3516,-0.96997 10.70961,-2.26722 0.99004,0.0921 1.97922,0.15134 2.95508,0.12621 14.45834,-0.37247 20.27865,-5.78691 26.57095,-11.4931 0.86994,-0.77669 1.60837,-1.63535 2.40746,-2.46645 5.97496,-0.90284 11.85497,-3.08884 16.25191,-6.22795 0.0566,-0.0405 0.11296,-0.0812 0.16902,-0.12233 4.19283,-3.06549 10.00675,-7.64926 10.01299,-17.34206 0.003,-5.36294 -2.68997,-10.08697 -5.14175,-12.82513 -0.24974,-0.27846 -0.50836,-0.55009 -0.77552,-0.81448 -1.05759,-1.04831 -2.66659,-2.31481 -4.61439,-3.47443 -0.78291,-2.08494 -1.91715,-4.27176 -3.85112,-6.42657 -4.5629,-5.08398 -12.00389,-7.16328 -16.61133,-7.14325 -2.66085,0.0116 -5.30495,0.57826 -7.83751,1.50071 -2.17734,-0.72221 -4.4202,-1.24867 -6.58844,-1.23548 -2.64299,0.0161 -5.52146,0.91614 -8.30343,2.13317 -4.78927,-3.62206 -11.25853,-5.62591 -16.67248,-5.58093 -5.19084,0.0431 -9.96643,1.42028 -14.24985,3.39843 0.24851,-0.36943 0.49985,-0.79167 0.74814,-1.15661 2.44863,-3.37954 5.43007,-6.99639 5.46122,-15.23844 0.016,-4.23119 -1.53203,-9.13079 -4.20465,-12.71351 -3.01525,-4.02055 -10.3582,-8.78322 -17.77597,-8.7619 -6.88526,0.0198 -13.20043,3.50516 -16.54426,6.75398 -3.27253,3.17957 -4.32481,5.15739 -5.96168,7.80981 -0.006,0.01 -0.0102,0.0188 -0.0159,0.0284 -4.37378,6.9564 -8.20477,13.84278 -11.95438,20.60359 -3.5045,-0.97978 -6.8144,-1.21391 -9.78813,-1.17415 -9.29333,0.12426 -18.5184,3.31627 -26.04545,8.50824 -0.0294,0.0203 -0.0586,0.0407 -0.0878,0.061 -0.69852,0.48744 -1.33751,1.19262 -2.02336,1.74762 -0.49946,-0.48132 -0.94519,-1.08376 -1.47249,-1.4862 -0.14311,-0.10891 -0.28778,-0.21583 -0.434,-0.32072 -1.91105,-1.37468 -4.20927,-2.47931 -6.62468,-3.27751 4.56903,-4.01679 8.67393,-11.25855 8.6973,-17.52693 0.0196,-5.24682 -2.55125,-11.97417 -6.66757,-15.92471 -0.37602,-0.36078 -0.76745,-0.70577 -1.17334,-1.03412 -3.15871,-2.55592 -8.46815,-4.95328 -14.05191,-4.93137 -9.00534,0.0354 -10.30789,1.98572 -14.09069,3.65378 0,0 0.0533,-0.0231 0.0533,-0.0231 -0.21508,0.0942 -0.35132,0.17264 -0.56354,0.26609 -1.2748,-2.56005 -2.88174,-4.93426 -4.82948,-6.58637 -0.13425,-0.11454 -0.27022,-0.22716 -0.40782,-0.33783 -3.49323,-2.79326 -8.87136,-4.6798 -13.5698,-4.67983 0,0 9e-5,3e-5 9e-5,3e-5 z m 284.38431,2.89757 c -4.59841,-0.003 -12.09689,1.73524 -16.90288,6.8766 -1.79507,1.92033 -2.7821,3.41859 -3.5062,4.76775 -0.8874,0.50654 -1.75422,0.89168 -2.6554,1.43558 -0.019,0.0115 -0.0379,0.0231 -0.0566,0.0347 -5.79632,3.52584 -14.28553,8.84081 -14.28314,21.77738 6e-4,2.98833 0.89096,5.8651 2.05063,8.48288 -1.14352,0.60327 -2.19747,1.27002 -3.12083,1.9787 -0.0784,0.0605 -0.15633,0.12163 -0.23374,0.1833 -4.22255,3.34476 -8.38458,10.32838 -8.38682,16.65125 -5.3e-4,1.48915 0.1988,2.85198 0.47965,4.15375 -2.56198,4.96487 -5.88153,11.09318 -7.51509,14.5152 -2.78214,5.82806 -5.24345,7.68245 -5.25482,16.10815 -0.006,4.32431 2.30775,8.48902 5.24048,11.08656 3.54555,3.13574 11.04749,5.95202 17.91421,6.01169 7.03091,0.0612 13.80396,-2.60927 17.03243,-5.24359 3.18933,-2.60239 4.38537,-4.97667 5.33986,-7.19663 0.0413,-0.095 0.0813,-0.19042 0.11996,-0.28631 -0.54707,1.37029 1.25202,-2.51474 3.66088,-7.5721 0,0 0.002,-0.002 0.002,-0.002 0.39502,-0.81603 3.14555,-5.54788 4.53074,-8.09714 1.03735,-0.084 2.0558,-0.26075 3.08739,-0.38784 -0.1639,1.31837 -0.35638,2.61675 -0.35992,3.94082 -0.0109,4.05592 1.13412,8.47638 3.91025,12.21241 0.0308,0.041 0.0617,0.0819 0.093,0.1227 3.95653,5.20764 13.78473,9.76133 22.18854,10.03688 2.90068,0.0951 5.55937,-0.17805 8.04844,-0.66108 3.94536,1.71655 8.46385,2.94512 12.88653,3.13211 1.22874,0.052 2.5208,0.0105 3.82666,-0.10651 1.21702,0.17788 2.34874,0.27911 3.32845,0.3229 10.21283,0.45648 18.45067,-5.02427 21.43271,-9.47577 0.007,-0.0117 0.0209,-0.0329 0.0282,-0.0445 1.14469,-1.72358 2.23179,-3.24636 3.28859,-4.6516 0.48238,1.15847 0.87408,2.33007 1.56486,3.3837 3.25704,4.96424 12.47069,10.28497 20.32408,10.71252 3.86491,0.21041 7.24355,-0.28148 10.22543,-1.10903 3.8003,1.71544 7.87753,2.75645 11.12202,2.94798 7.72369,0.45595 13.4077,-1.59605 17.94735,-4.28748 4.62545,3.44148 10.69214,6.18666 16.27447,6.53265 2.89546,0.17947 5.55305,-0.091 8.04888,-0.61965 3.90356,2.11402 8.38007,3.69035 12.79516,3.97698 3.79198,0.24618 8.17194,-0.54092 11.82651,-2.14464 0.53613,0.074 1.09682,0.27099 1.62113,0.30194 13.90664,0.82073 22.12638,-6.43077 28.47267,-14.15045 2.52567,-3.0583 4.59568,-5.83667 6.36804,-8.81777 1.7862,-3.00435 4.22857,-5.27338 4.15502,-13.72255 -0.0132,-1.51919 -0.36281,-3.48801 -0.94464,-5.55093 2.91961,-3.13726 5.7232,-6.32172 8.27629,-9.57312 0.0136,-0.0174 0.0271,-0.0349 0.0405,-0.0523 5.948,-7.63015 11.1825,-13.83844 14.93344,-20.32081 3.74594,-6.47373 6.08107,-13.33571 6.16403,-22.27769 0.0524,-5.643 -2.41078,-11.98267 -6.05434,-16.15633 -4.19615,-4.79751 -12.01262,-8.26975 -18.14436,-8.27902 -16.76424,-0.0253 -23.23155,9.81186 -30.84182,19.57001 -5.42162,6.90944 -10.62685,14.79456 -15.70009,23.47758 -3.59885,-1.63556 -7.45386,-2.60631 -10.89255,-2.64884 -6.30129,-0.0779 -12.0469,1.82364 -16.94582,4.51587 -4.1818,-2.78371 -8.97849,-3.87365 -12.23771,-3.91872 -5.47369,-0.0757 -11.7533,2.58661 -16.00268,6.17342 -1.17666,-0.008 -2.30071,0.16506 -3.42377,0.332 -3.02522,-1.7563 -6.73133,-3.16862 -10.82038,-3.22889 -5.07714,-0.0748 -8.56566,0.98168 -11.29358,2.40006 -3.10136,-2.81036 -7.56261,-5.51762 -14.06553,-5.60429 -6.93323,-0.0924 -7.37385,1.20976 -8.67732,1.75634 -0.80411,0.33719 -1.32138,0.62381 -1.91092,0.92235 -2.11152,-0.65882 -4.31904,-1.07095 -6.42879,-1.09795 -4.99138,-0.0639 -8.66363,0.83161 -11.54774,2.19074 -2.54492,-2.05007 -5.54956,-3.60296 -8.68865,-4.62353 0.46366,-2.42836 0.82388,-4.88767 0.81938,-7.41023 -0.015,-8.39814 -3.89968,-16.89359 -9.54267,-22.59811 1e-5,0 -0.0397,-0.0388 -0.0397,-0.0388 -6.28502,-6.31545 -16.3246,-10.33089 -25.51174,-10.33992 -3.17306,-0.003 -6.04493,0.32801 -8.99914,0.80322 -3.08386,-1.07786 -6.13546,-1.53132 -8.47938,-1.53275 0,0 -1.1e-4,-10e-5 -1.1e-4,-10e-5 z m -22.38789,17.3218 c -0.0479,0.17266 -0.0931,0.34608 -0.13569,0.52018 0.46635,-1.95726 0.34391,-1.14111 0.0614,-0.44284 -2e-5,1e-5 0.0743,-0.0773 0.0743,-0.0773 0,0 5e-5,-4e-5 5e-5,-4e-5 z M 192.0447,507.65876 c -0.0931,0.10015 -0.38622,0.24675 -0.62781,0.42498 0.24356,-0.17603 0.3654,-0.2301 0.62781,-0.42498 z m 345.11999,5.88566 c 0.17322,0.23413 0.34641,0.46819 0.51963,0.70226 -0.0932,-0.13242 -0.27222,-0.31846 -0.3751,-0.45906 -0.0473,-0.0621 -0.098,-0.18295 -0.14453,-0.2432 z m -226.99257,1.692 c -0.0497,0.0726 -0.0559,0.1149 -0.10411,0.18624 -0.0191,0.0285 -0.0578,0.0545 -0.0766,0.083 0.0602,-0.0897 0.12046,-0.1795 0.18069,-0.26927 0,0 3e-5,2e-5 3e-5,2e-5 z m -142.26955,48.74695 c -0.0278,0.0379 -0.0587,0.0771 -0.0465,0.0588 0.0146,-0.0199 0.032,-0.0389 0.0465,-0.0588 z m -57.33676,2.87297 c 0.012,0.0372 0.0326,0.0766 0.0448,0.11377 0.008,0.0254 0.009,0.0496 0.0176,0.0749 -0.0208,-0.0629 -0.0416,-0.12581 -0.0623,-0.18874 0,0 0,4e-5 0,4e-5 z m 173.30636,2.03353 c 0.008,0.007 0.0201,0.0118 0.0277,0.0185 0.0124,0.0107 0.0195,0.024 0.0319,0.0347 -1e-5,-10e-6 -0.0596,-0.0532 -0.0596,-0.0532 z m 170.12518,-0.55631 c 0.008,0.007 0.0197,0.013 0.0272,0.02 0.0121,0.0114 0.0187,0.0249 0.0308,0.0363 0,0 -0.058,-0.0563 -0.058,-0.0563 z m 130.3997,5.7257 c 0.008,0.008 0.0195,0.0153 0.0269,0.0235 0.0118,0.0133 0.0184,0.0293 0.0302,0.0424 -7e-5,-9e-5 -0.057,-0.0658 -0.0571,-0.0659 z m -357.73664,0.88919 c -0.0187,0.0103 -0.0456,0.023 -0.0406,0.0192 0.0128,-0.007 0.0277,-0.012 0.0406,-0.0192 z m 93.44186,-3.64518 c -0.0266,0.017 -0.0576,0.0335 -0.0467,0.025 0.0143,-0.009 0.0324,-0.0159 0.0467,-0.025 z m 169.99561,1.86215 c -0.0273,0.016 -0.0591,0.0313 -0.0478,0.023 0.0145,-0.008 0.0333,-0.0146 0.0478,-0.023 z m 130.2356,7.00756 c -0.0274,0.0191 -0.0592,0.0373 -0.0478,0.0274 0.0145,-0.01 0.0334,-0.0173 0.0478,-0.0274 z"
           style="font-style:normal;font-variant:normal;font-weight:normal;font-stretch:normal;font-size:medium;line-height:110.00000238%;font-family:'Freestyle Script';-inkscape-font-specification:'Freestyle Script, Normal';text-align:start;letter-spacing:0px;word-spacing:0px;writing-mode:lr-tb;text-anchor:start;fill:url(#radialGradient4179);fill-opacity:1;fill-rule:nonzero;stroke:none;stroke-width:1px;stroke-linecap:butt;stroke-linejoin:miter;stroke-opacity:1"
           inkscape:path-effect="#path-effect6891"
           inkscape:original-d="m 146.34465,460.09969 c -6.76865,0 -14.43754,4.2245 -18.08417,8.78457 -0.17729,0.22246 -0.34966,0.44882 -0.51697,0.67889 -4.10979,5.63067 -3.45505,6.30644 -4.6059,9.3269 -0.0312,0.083 -0.0617,0.16626 -0.0917,0.2497 -1.44846,3.96423 -7.48218,15.42035 -17.39358,30.7782 -4.70348,7.21521 -7.654684,11.82837 -9.660492,15.42713 -0.02094,0.0377 -0.04174,0.0754 -0.06243,0.11315 -3.723201,6.78635 -6.719574,12.58221 -9.05769,17.60622 -0.01241,0.0267 -0.02477,0.0533 -0.03707,0.08 -4.077353,8.86725 -7.218059,14.80978 -7.218059,25.07788 0,3.30573 0.556063,7.46638 2.898928,11.76543 0.1041,0.19102 0.21141,0.38028 0.321887,0.56769 3.347069,5.67768 12.442723,11.24262 19.572646,11.24262 5.52948,0 12.5464,-2.92906 16.47863,-7.12247 0.76444,-0.81521 1.35951,-1.62787 1.94693,-2.43853 4.95375,3.78025 11.29219,5.47792 16.49228,5.47792 7.38492,0 13.08852,-2.27657 17.83251,-5.673 4.62023,2.43574 9.74001,3.8958 14.32882,3.8958 7.03025,0 13.42631,-2.07533 19.12591,-5.01363 5.93552,4.8277 13.88098,7.58092 20.70608,7.58092 5.31271,0 10.98624,-1.42899 15.91484,-4.10259 3.66516,2.09393 7.9112,3.37883 11.40064,3.37883 4.3062,0 9.23241,-1.82413 12.86569,-4.40497 2.67183,1.0637 5.34192,1.83768 7.72333,1.83768 5.2197,0 9.4907,-1.43475 13.08615,-3.3008 4.31855,2.82694 9.35285,4.81464 14.02839,4.81464 2.89208,0 5.53089,-0.51547 7.99644,-1.30316 3.9869,2.1874 8.50452,3.67342 12.92813,3.67342 3.45816,0 7.33872,-1.07184 10.7159,-2.79359 0.98473,0.16875 1.96928,0.29068 2.94184,0.29068 14.32569,0 20.35577,-7.76454 26.51954,-14.87506 0.86278,-0.97973 1.60409,-2.06781 2.39562,-3.09791 5.9454,-1.06246 11.7739,-3.75697 16.14504,-7.51849 0.0562,-0.0485 0.11213,-0.0972 0.16778,-0.14633 4.16262,-3.66631 9.9297,-9.11458 9.9297,-19.86332 0,-5.91022 -2.6768,-10.95428 -5.11311,-13.86842 -0.24816,-0.29635 -0.50513,-0.5852 -0.77058,-0.86617 -1.05172,-1.11499 -2.64849,-2.45578 -4.58444,-3.68316 -0.7786,-2.19956 -1.90564,-4.49399 -3.82753,-6.74986 -4.52642,-5.31307 -11.93407,-7.49508 -16.50398,-7.49508 -2.64316,-10e-6 -5.2703,0.57474 -7.78575,1.51774 -2.16369,-0.76177 -4.39249,-1.32071 -6.54698,-1.3207 -2.62571,0 -5.48652,0.91331 -8.25005,2.1537 -4.75909,-3.78893 -11.19607,-5.9071 -16.57617,-5.9071 -5.15931,0 -9.90929,1.37598 -14.16691,3.36908 0.24702,-0.37829 0.49652,-0.81053 0.74327,-1.18416 2.42703,-3.44908 5.40184,-7.15708 5.40184,-15.67879 0,-4.38297 -1.56866,-9.51516 -4.27036,-13.31634 -3.03913,-4.25361 -10.44883,-9.40494 -17.85007,-9.40494 -6.84945,0 -13.0907,3.71968 -16.35574,7.10296 -3.22442,3.34122 -4.22103,5.3484 -5.84076,8.10568 -0.006,0.01 -0.01,0.0194 -0.0156,0.0293 -4.32,7.21481 -8.07292,14.09873 -11.83371,20.98894 -3.49163,-1.04603 -6.79231,-1.32851 -9.75608,-1.32851 -9.25545,0 -18.47699,3.11324 -25.99282,8.2481 -0.0294,0.0201 -0.0586,0.0403 -0.0878,0.0604 -0.6985,0.4829 -1.33697,1.18668 -2.023,1.73819 -0.49853,-0.49627 -0.9426,-1.11338 -1.46897,-1.52945 -0.14281,-0.11257 -0.28718,-0.22312 -0.43309,-0.33163 -1.90711,-1.422 -4.20119,-2.57359 -6.6133,-3.41591 4.57297,-3.98662 8.68313,-11.23906 8.68313,-17.60621 0,-5.32725 -2.62464,-12.22671 -6.82985,-16.34208 -0.38293,-0.37466 -0.78124,-0.73327 -1.1939,-1.0749 -3.21493,-2.6622 -8.58515,-5.17164 -14.16495,-5.17164 -8.98196,0 -10.23124,2.00865 -13.96013,3.69291 l 0.0526,-0.0234 c -0.21563,0.0967 -0.34314,0.17332 -0.55598,0.26922 -1.33846,-2.62836 -3.02344,-5.07354 -5.039,-6.78303 -0.1388,-0.11838 -0.27928,-0.23479 -0.42137,-0.3492 -3.61212,-2.89229 -9.08698,-4.83999 -13.78454,-4.83999 z m 283.99746,3.22666 c -4.60707,0 -12.08625,1.94772 -16.93318,7.55361 -1.8032,2.08555 -2.79305,3.69527 -3.52124,5.14237 -0.88986,0.54642 -1.74607,0.9545 -2.64922,1.5392 -0.0189,0.0123 -0.0378,0.0247 -0.0565,0.0371 -5.7853,3.77447 -14.23324,9.43382 -14.23324,22.86759 5e-5,3.10285 0.88458,6.086 2.03666,8.80408 -1.13588,0.62948 -2.18276,1.32484 -3.09985,2.06398 -0.0779,0.0631 -0.15527,0.12686 -0.23216,0.19118 -4.19404,3.48878 -8.32612,10.76844 -8.32612,17.51842 0,1.58879 0.19849,3.0505 0.47795,4.45374 -2.6838,5.65381 -5.69379,11.81257 -7.45411,16.04556 -2.75655,6.62855 -5.20091,8.84478 -5.20091,19.20588 0,5.41053 2.30549,11.08334 5.23408,14.758 3.5258,4.41759 11.04955,8.75147 17.89493,8.75141 6.98255,5e-5 13.75893,-4.27221 16.90196,-8.01789 3.14303,-3.74568 4.30381,-6.93293 5.23797,-9.84973 0.0403,-0.12445 0.0793,-0.24931 0.11705,-0.37456 -0.54586,1.83153 1.2347,-3.40714 3.59537,-9.57855 l 0.002,-0.002 c 0.55652,-1.43147 2.93773,-6.33922 4.47909,-9.67805 1.02874,-0.11125 2.04368,-0.33038 3.0667,-0.49161 -0.16064,1.52462 -0.3492,3.0428 -0.3492,4.60591 0,4.76891 1.15685,10.20145 3.95238,14.95308 0.031,0.0521 0.0621,0.10419 0.0936,0.15607 3.98633,6.63203 13.85316,12.7467 22.24723,12.7467 2.89109,0 5.52962,-0.51401 7.99449,-1.3012 3.98729,2.18728 8.50592,3.67146 12.93007,3.67146 1.22582,0 2.5099,-0.13627 3.80607,-0.37847 1.21862,0.17458 2.34881,0.24581 3.32616,0.24581 10.06056,0 18.28891,-8.12317 21.07673,-13.57971 0.009,-0.0188 0.0182,-0.0376 0.0273,-0.0565 1.10447,-2.17946 2.17745,-4.09063 3.20911,-5.80761 0.49205,1.36253 0.89841,2.76368 1.60163,4.0148 3.32853,5.91754 12.6433,12.20437 20.50904,12.20437 3.85289,0 7.20282,-0.87025 10.14041,-2.10104 3.85327,1.88703 7.94055,2.89113 11.18799,2.89113 7.6812,0 13.3073,-2.97641 17.73106,-6.40847 4.72819,3.78136 10.84905,6.6055 16.44937,6.6055 2.89109,0 5.52963,-0.51401 7.99449,-1.3012 3.9873,2.18728 8.50593,3.67146 12.93008,3.67146 3.78754,0 8.11436,-1.23093 11.69131,-3.25983 0.53891,0.0475 1.10349,0.23019 1.62894,0.23019 13.76675,0 21.94575,-8.44199 28.18749,-16.56252 2.52874,-3.27528 4.59664,-6.1628 6.40066,-9.26643 1.80671,-3.10824 4.28597,-5.47785 4.28597,-14.01083 0,-1.53386 -0.33484,-3.51447 -0.90518,-5.58522 2.96027,-3.1914 5.80059,-6.40655 8.3827,-9.67805 0.0137,-0.0175 0.0274,-0.0351 0.041,-0.0526 12.04411,-15.37002 20.94213,-24.70625 20.94213,-42.62751 0,-5.62268 -2.49208,-11.97859 -6.06707,-16.11968 -4.12869,-4.7732 -11.82007,-8.24614 -17.93785,-8.24614 -16.82231,0 -23.5381,9.95541 -31.19957,19.81649 -5.4466,6.96805 -10.63108,14.9216 -15.67099,23.65963 -3.61444,-1.59413 -7.48103,-2.52047 -10.92463,-2.52047 -6.31139,0 -12.05475,1.98153 -16.95074,4.76002 -4.19142,-2.74076 -8.99148,-3.77291 -12.24924,-3.77291 -5.47361,0 -11.74141,2.77213 -15.98312,6.47285 -1.17572,0.01 -2.29804,0.20319 -3.4198,0.39017 -3.02261,-1.73257 -6.72734,-3.10962 -10.80758,-3.10962 -5.06845,0 -8.54662,1.12465 -11.26798,2.61216 -3.0935,-2.8139 -7.54867,-5.50913 -14.0284,-5.50913 -6.91339,0 -7.3462,1.33385 -8.64801,1.9118 -0.80104,0.35563 -1.31681,0.65609 -1.90401,0.96956 -2.10369,-0.64514 -4.30332,-1.03784 -6.40457,-1.03784 -4.97241,0 -8.62783,0.96341 -11.50012,2.39757 -2.53288,-2.07368 -5.52506,-3.63351 -8.64801,-4.64687 0.46268,-2.50121 0.82325,-5.02995 0.82325,-7.62384 0,-8.59593 -3.81795,-17.43138 -9.34837,-23.44503 l -0.039,-0.041 c -6.16709,-6.66591 -16.0762,-11.08655 -25.24761,-11.08655 -3.16688,0 -6.03715,0.36748 -8.9933,0.89348 -3.06005,-1.18248 -6.09138,-1.68356 -8.43343,-1.68356 z m -22.44622,18.73964 c -0.0482,0.1827 -0.0937,0.36611 -0.13655,0.55014 0.47073,-2.07343 0.34501,-1.20566 0.0624,-0.4682 l 0.0741,-0.0819 z m -215.24252,27.22769 c -0.0932,0.0997 -0.38639,0.24319 -0.62817,0.41943 0.24339,-0.17373 0.36592,-0.22694 0.62817,-0.41943 z m 343.41771,6.45919 0.51892,0.70815 c -0.0931,-0.13363 -0.27181,-0.32055 -0.37456,-0.46235 -0.0474,-0.0628 -0.0977,-0.18487 -0.14436,-0.2458 z m -225.72823,2.99062 c -0.0493,0.0751 -0.0556,0.11935 -0.10339,0.19313 -0.019,0.0295 -0.0574,0.0563 -0.0761,0.0858 l 0.17947,-0.27896 z m -141.76853,48.53657 c -0.028,0.0403 -0.0591,0.0819 -0.0468,0.0624 0.0147,-0.0212 0.0322,-0.0412 0.0468,-0.0624 z m -57.40503,0.76472 c 0.012,0.0387 0.0327,0.0803 0.0448,0.119 0.008,0.0265 0.009,0.0515 0.0176,0.078 l -0.0624,-0.19704 z m 172.94275,10.89927 c 0.008,0.009 0.0198,0.0164 0.0273,0.0254 0.0121,0.0145 0.0192,0.0325 0.0312,0.0468 l -0.0585,-0.0722 z m 169.28104,0 c 0.008,0.009 0.0198,0.0164 0.0274,0.0254 0.0121,0.0145 0.0191,0.0324 0.0312,0.0468 z m 129.98944,0 c 0.008,0.009 0.0198,0.0164 0.0274,0.0254 0.0121,0.0145 0.0191,0.0325 0.0312,0.0468 z m -356.38289,4.52592 c -0.0189,0.0117 -0.0461,0.026 -0.041,0.0215 0.013,-0.008 0.028,-0.0133 0.041,-0.0215 z m 93.14417,0.17557 c -0.0267,0.0228 -0.0578,0.0448 -0.0468,0.0332 0.0142,-0.012 0.0327,-0.0212 0.0468,-0.0332 z m 169.28301,0 c -0.0267,0.0228 -0.0579,0.0448 -0.0469,0.0332 0.0142,-0.012 0.0327,-0.0212 0.0469,-0.0332 z m 129.98943,0 c -0.0267,0.0228 -0.0578,0.0448 -0.0468,0.0332 0.0142,-0.012 0.0327,-0.0212 0.0468,-0.0332 z" />
      </g>
      <path
         transform="translate(-1.895e-4,6.550003e-4)"
         d="m 135.78125,478.79297 c -1.40759,0 -7.45978,3.23949 -8.02734,3.94922 -0.0549,0.0693 -0.10878,0.14029 -0.16016,0.21093 a 12.904971,12.904971 0 0 1 -0.0137,0.0176 c -3.44002,4.71305 -1.01462,1.18016 -2.97461,6.32422 -0.002,0.006 -0.004,0.0115 -0.006,0.0176 a 12.904971,12.904971 0 0 1 -0.0254,0.0664 c -2.66424,7.29167 -8.47678,17.55512 -18.69141,33.38281 a 12.904971,12.904971 0 0 1 -0.0312,0.0508 c -4.68341,7.18443 -7.540181,11.68207 -9.210935,14.67969 -2.41e-4,4.4e-4 -0.0052,0.0107 -0.01758,0.0332 a 12.904971,12.904971 0 0 1 -0.0039,0.006 c -3.641636,6.63768 -6.518362,12.2169 -8.681641,16.86523 -0.0086,0.0185 -0.01628,0.0346 -0.01563,0.0332 -4.215282,9.16637 -6.042969,12.06294 -6.042969,19.70898 0,1.8626 0.245978,3.61979 1.328125,5.60547 0.03468,0.0636 0.07016,0.12624 0.107422,0.18945 0.0153,0.026 1.722326,1.96997 3.789063,3.18164 2.066736,1.21168 4.479372,1.72266 4.691406,1.72266 0.979139,0 6.337576,-2.25467 7.085937,-3.05273 0.123954,-0.13219 0.349268,-0.41077 0.91211,-1.1875 a 12.904971,12.904971 0 0 1 18.277341,-2.68555 c 2.22077,1.69468 6.28583,2.83789 8.6836,2.83789 4.7417,0 7.3535,-1.12813 10.34179,-3.26758 a 12.904971,12.904971 0 0 1 13.5293,-0.92187 c 3.02874,1.59672 6.47103,2.41015 8.32812,2.41015 4.49911,0 8.82516,-1.30991 13.23633,-3.58398 a 12.904971,12.904971 0 0 1 14.05469,1.45898 c 3.43245,2.79181 9.22493,4.69532 12.58789,4.69532 3.00513,0 6.8012,-0.92835 9.78125,-2.54493 a 12.904971,12.904971 0 0 1 12.55274,0.13672 c 1.91654,1.09494 4.68775,1.6836 5.01367,1.6836 0.66724,0 3.91973,-0.96809 5.4082,-2.02539 a 12.904971,12.904971 0 0 1 12.24609,-1.46875 c 1.92866,0.76783 3.3706,0.92382 2.95899,0.92382 2.86127,0 4.86665,-0.66419 7.1582,-1.85351 a 12.904971,12.904971 0 0 1 10.63477,-0.54883 12.904971,12.904971 0 0 1 18.76953,0.45703 c -1.86184,-2.09457 -1.76437,-2.13326 0.29492,0.33789 1.12839,1.35463 1.55107,1.87066 0.0312,0.0469 L 281.5,578.47852 a 12.904971,12.904971 0 0 1 6.65234,1.57031 c 2.54842,1.39817 5.19731,2.08594 6.73633,2.08594 0.79597,0 3.11893,-0.49738 4.86719,-1.38868 a 12.904971,12.904971 0 0 1 8.04102,-1.22265 c 0.59438,0.10186 0.87028,0.10547 0.76562,0.10547 9.68004,0 10.31275,-2.95487 16.80078,-10.43946 a 12.904971,12.904971 0 0 1 0.0664,-0.0762 c 0.15478,-0.17576 0.75381,-1.00949 1.84961,-2.43555 a 12.904971,12.904971 0 0 1 7.96289,-4.84179 c 3.6709,-0.656 7.63062,-2.55141 10.01758,-4.60547 0.0143,-0.0124 0.0297,-0.0257 0.0449,-0.0391 a 12.904971,12.904971 0 0 1 0.01,-0.01 c 3.84546,-3.38697 5.56641,-4.05726 5.56641,-10.20312 0,-2.02103 -1.39252,-4.74296 -2.11524,-5.60743 -0.0808,-0.0962 -0.16358,-0.19173 -0.25,-0.2832 a 12.904971,12.904971 0 0 1 -0.008,-0.008 c -0.12272,-0.13011 -1.05426,-0.97117 -2.11328,-1.64258 a 12.904971,12.904971 0 0 1 -5.25391,-6.5918 c -0.41437,-1.17061 -0.75213,-1.83089 -1.49023,-2.69726 -1.15585,-1.35673 -6.23331,-2.9668 -6.70117,-2.9668 -0.77566,0 -1.89867,0.18481 -3.26563,0.69727 a 12.904971,12.904971 0 0 1 -8.81445,0.0898 c -1.41303,-0.49749 -2.34432,-0.58984 -2.26953,-0.58984 0.36347,0 -1.08606,0.1749 -2.97656,1.02343 a 12.904971,12.904971 0 0 1 -9.05664,0.5586 l 4.1914,2.72461 c 0.91923,-1.39932 0.88764,-1.33955 -0.0547,0.11718 -0.0318,0.0492 0.0322,-0.0488 -0.002,0.004 -2.34408,3.63973 -2.363,3.69474 -0.01,-0.0176 l -4.77735,-3.05078 a 12.904971,12.904971 0 0 1 -3.61133,-2.01172 c -2.16241,-1.72159 -6.55898,-3.10547 -8.55859,-3.10547 -2.87115,0 -5.72249,0.75637 -8.71289,2.15625 a 12.904971,12.904971 0 0 1 -16.27539,-18.74218 c -0.0382,0.0584 0.21656,-0.38714 0.78125,-1.24219 a 12.904971,12.904971 0 0 1 0.21484,-0.31445 c 2.78084,-3.95189 3.05664,-2.74273 3.05664,-8.27149 0,-1.30447 -0.98756,-4.56792 -1.8789,-5.83594 -0.15432,-0.20501 -5.94252,-4.00781 -7.36328,-4.00781 -2.18586,0 -6.2451,2.29263 -7.08985,3.16797 -2.29986,2.38317 -2.22101,2.62875 -3.91797,5.53711 -0.0426,0.0731 -0.0429,0.0757 -0.0879,0.15234 a 12.904971,12.904971 0 0 1 -0.0195,0.0312 12.904971,12.904971 0 0 1 -0.0527,0.0918 c -4.15874,6.9455 -7.82454,13.66433 -11.5918,20.56641 a 12.904971,12.904971 0 0 1 -15.0293,6.17968 c -1.96596,-0.58897 -3.91709,-0.78711 -6.06445,-0.78711 -6.37276,0 -13.27288,2.26982 -18.74414,6.00782 0.003,-0.002 -0.002,0.001 -0.0254,0.0176 a 12.904971,12.904971 0 0 1 -0.004,0.002 c 1.09909,-0.75984 0.53842,-0.27769 -1.27929,1.18359 a 12.904971,12.904971 0 0 1 -17.1875,-0.91211 c -0.4951,-0.49286 -0.62585,-0.61195 -0.85938,-0.83594 -0.65184,-0.43956 -1.60208,-0.98611 -2.8164,-1.41015 a 12.904971,12.904971 0 0 1 -4.22461,-21.9082 c 1.62213,-1.41415 4.26757,-7.07887 4.26757,-7.90039 0,-1.09527 -1.98313,-6.18368 -2.95898,-7.13868 -0.12799,-0.12517 -0.26075,-0.24539 -0.39844,-0.35937 a 12.904971,12.904971 0 0 1 -0.002,0 c -0.84996,-0.70383 -4.23362,-2.21289 -5.95117,-2.21289 -6.48289,0 -3.44962,-0.11622 -7.66992,2.02539 a 12.904971,12.904971 0 0 1 -0.97461,0.51758 c -0.007,0.003 -0.006,0.005 -0.0137,0.008 0.004,-0.002 -0.009,0.003 -0.006,0.002 0.3258,-0.14484 0.2556,-0.0955 -0.51562,0.25195 a 12.904971,12.904971 0 0 1 -16.79883,-5.91015 c -0.82133,-1.61289 -1.79821,-2.7266 -1.89258,-2.80664 a 12.904971,12.904971 0 0 1 -0.0273,-0.0215 c -0.0372,-0.0317 -0.0747,-0.0643 -0.11328,-0.0957 l -0.004,-0.002 c -0.86031,-0.68648 -4.59689,-2.01172 -5.73242,-2.01172 z m 284.33203,3.23047 c -0.97567,0 -5.66703,1.33458 -7.1914,3.09765 -1.18483,1.37035 -1.41414,1.82291 -1.75977,2.50977 a 12.904971,12.904971 0 0 1 -0.66602,1.16211 12.904971,12.904971 0 0 1 -0.3789,2.38086 c -0.0149,0.0566 -0.0314,0.119 -0.0469,0.18555 a 12.904971,12.904971 0 0 1 -13.06445,9.80859 l -0.65039,0.11523 c -0.50352,1.14508 -0.77539,2.63737 -0.77539,5.01953 10e-6,0.65434 0.25996,1.99648 1.01562,3.7793 a 12.904971,12.904971 0 0 1 -5.62695,16.32227 c -0.55345,0.30671 -0.99863,0.6157 -1.25977,0.82617 -0.0163,0.0133 -0.0323,0.0256 -0.0508,0.041 a 12.904971,12.904971 0 0 1 -0.0273,0.0234 c -0.61795,0.51404 -3.68359,6.12728 -3.68359,7.61914 0,0.51591 0.0554,1.07008 0.22851,1.93946 a 12.904971,12.904971 0 0 1 -0.99805,8.05273 c -2.73301,5.7575 -5.74126,11.96636 -7.20507,15.48633 -3.40672,8.192 -4.2168,5.9296 -4.2168,14.27344 0,1.75023 1.47062,5.52763 2.42578,6.72851 0.51903,0.64603 6.41987,3.90431 7.82617,3.9043 1.72732,1e-5 6.65513,-2.96275 7.03711,-3.41797 1.83544,-2.18737 2.0188,-2.93837 2.83985,-5.50195 a 12.904971,12.904971 0 0 1 0.0117,-0.0352 c 0.0146,-0.0452 0.027,-0.0889 0.0391,-0.12891 a 12.904971,12.904971 0 0 1 0.54492,-1.40625 c 0.11275,-0.30706 0.17849,-0.48124 0.38867,-1.06054 0.6733,-1.85576 1.73852,-4.79166 2.96875,-8.00782 a 12.904971,12.904971 0 0 1 0.0352,-0.082 l -0.008,0.0137 c 0.0207,-0.0532 0.0475,-0.0953 0.0684,-0.14844 a 12.904971,12.904971 0 0 1 0.52344,-1.13672 c 1.35844,-3.23458 2.94238,-6.40152 4.20508,-9.13672 a 12.904971,12.904971 0 0 1 10.32812,-7.41992 c 0.13125,-0.0142 0.94354,-0.17317 2.44727,-0.41016 a 12.904971,12.904971 0 0 1 14.8418,14.09766 c -0.17755,1.6851 -0.27735,2.73254 -0.27735,3.25976 0,2.68779 0.76575,6.03439 2.17383,8.42774 0.006,0.01 0.007,0.0119 0.0156,0.0254 a 12.904971,12.904971 0 0 1 0.0176,0.0254 c 0.27819,0.46282 1.23688,1.22373 2.41211,2.05078 a 12.904971,12.904971 0 0 1 18.21485,0.99414 c -1.7909,-2.01476 -1.72794,-2.02984 0.1875,0.20899 a 12.904971,12.904971 0 0 1 0.10351,0.12109 c 1.77383,2.12566 1.78088,2.14353 0.0312,0.0469 l -2.19336,1.80274 a 12.904971,12.904971 0 0 1 6.66602,1.57031 c 2.54588,1.39657 5.19675,2.08399 6.74023,2.08399 0.27103,0 0.79726,-0.0379 1.44141,-0.15821 a 12.904971,12.904971 0 0 1 4.19922,-0.0898 c 0.59899,0.0858 1.14833,0.11523 1.5,0.11523 1.56327,0 3.58592,-0.72209 5.60156,-2.21484 2.01317,-1.49092 3.7667,-3.87821 4.00586,-4.34375 a 12.904971,12.904971 0 0 1 0.004,-0.004 12.904971,12.904971 0 0 1 0.008,-0.0176 c 1.25405,-2.4746 2.48628,-4.67202 3.66211,-6.62891 a 12.904971,12.904971 0 0 1 23.19726,2.26367 c 0.68032,1.88387 0.98198,2.55439 0.71289,2.07617 8e-5,1.3e-4 0.002,0.002 0.002,0.002 -2.3e-4,-4.1e-4 2.3e-4,0.002 0,0.002 0.10569,0.18548 1.93127,2.33341 4.11523,3.6875 2.18638,1.35559 4.67025,1.94922 5.16992,1.94922 1.91439,0 3.45024,-0.38074 5.16602,-1.09961 a 12.904971,12.904971 0 0 1 10.66211,0.3125 c 2.24462,1.09924 4.93396,1.57812 5.52539,1.57812 4.35686,0 6.74453,-1.30409 9.8418,-3.70703 a 12.904971,12.904971 0 0 1 15.33984,-0.33984 12.904971,12.904971 0 0 1 18.45313,0.7832 c -1.82992,-2.05865 -1.74876,-2.08621 0.24218,0.27149 a 12.904971,12.904971 0 0 1 0.0488,0.0586 c 1.79253,2.14807 1.80317,2.15727 0.002,0.0137 l -2.23046,1.83985 a 12.904971,12.904971 0 0 1 6.73242,1.5664 c 2.54593,1.39659 5.19678,2.08399 6.74023,2.08399 0.99627,0 3.69288,-0.6509 5.33789,-1.58399 a 12.904971,12.904971 0 0 1 7.50196,-1.6289 c 0.6839,0.0603 0.75666,0.0639 1.12109,0.0918 8.0276,-0.23179 11.95682,-4.41675 17.36523,-11.45312 a 12.904971,12.904971 0 0 1 0.0176,-0.0215 c 2.36935,-3.06882 4.0642,-5.4673 5.46485,-7.87695 2.95434,-5.08262 2.54296,-1.49937 2.54296,-7.54297 0,0.34226 -0.0883,-0.87707 -0.44335,-2.16602 a 12.904971,12.904971 0 0 1 2.98046,-12.20117 c 2.82189,-3.0422 5.43856,-6.01385 7.71875,-8.90234 a 12.904971,12.904971 0 0 1 0.0195,-0.0234 c 6.19833,-7.90997 11.0738,-13.80297 13.97071,-18.84765 2.8969,-5.04469 4.24805,-9.0355 4.24805,-15.8711 0,-1.81462 -1.68427,-6.24688 -2.9336,-7.69922 -0.9765,-1.12493 -6.95437,-3.79101 -8.19531,-3.79101 -5.8756,0 -8.22545,1.21524 -11.08789,3.46289 -2.86244,2.24764 -5.95369,6.23346 -9.95899,11.38867 a 12.904971,12.904971 0 0 1 -0.0234,0.0312 c -4.96577,6.3529 -9.85225,13.82123 -14.67774,22.1875 a 12.904971,12.904971 0 0 1 -16.38476,5.35938 c -2.19856,-0.96967 -4.59687,-1.42579 -5.73047,-1.42579 -3.61799,0 -7.17682,1.14044 -10.60157,3.08399 a 12.904971,12.904971 0 0 1 -13.43164,-0.42383 c -1.66156,-1.08649 -4.66502,-1.67187 -5.20117,-1.67187 -1.12332,0 -5.6124,1.63493 -7.51953,3.29882 a 12.904971,12.904971 0 0 1 -8.37305,3.17969 c 0.16654,-0.001 -0.24396,0.0221 -1.41211,0.2168 a 12.904971,12.904971 0 0 1 -8.5371,-1.53321 c -1.63875,-0.93933 -3.22252,-1.40429 -4.4043,-1.40429 -3.16562,0 -4.02567,0.45045 -5.0918,1.0332 a 12.904971,12.904971 0 0 1 -12.4375,-0.0371 l -0.45898,0.32813 c 0.7247,1.04031 0.13825,0.22599 -0.1543,-0.17383 -0.48226,-0.6543 -0.44533,-0.66378 -0.57031,-0.90039 a 12.904971,12.904971 0 0 1 -1.25195,-0.99414 c -1.56932,-1.42747 -2.45214,-2.15625 -5.36133,-2.15625 -2.16706,0 -2.07591,0.095 -1.72461,-0.0117 -0.25724,0.14302 -0.4099,0.24292 -1.69727,0.81445 -0.21588,0.0958 -0.22582,0.11181 -1.0664,0.56055 a 12.904971,12.904971 0 0 1 -9.85938,0.95312 c -1.09898,-0.33702 -2.13292,-0.4707 -2.62891,-0.4707 -3.31154,0 -4.72269,0.52807 -5.75,1.04102 a 12.904971,12.904971 0 0 1 -13.9375,-1.56055 c -1.13579,-0.92988 -2.73618,-1.80172 -4.46679,-2.36328 a 12.904971,12.904971 0 0 1 -8.70508,-14.6211 c 0.39838,-2.15358 0.60742,-3.884 0.60742,-5.28515 0,-4.78005 -2.67108,-11.15892 -5.94336,-14.72461 a 12.904971,12.904971 0 0 1 -0.0234,-0.0254 c -3.42629,-3.70346 -10.76888,-6.95899 -15.80468,-6.95899 -2.1724,0 -4.1823,0.23948 -6.74414,0.69532 a 12.904971,12.904971 0 0 1 -6.91016,-0.66797 c -1.53435,-0.59291 -3.28868,-0.81836 -3.79297,-0.81836 z m 95.07813,46.60742 c 0.13604,0.24434 -0.0278,0.0945 0.53125,0.82422 l 0.35156,-0.26367 a 12.904971,12.904971 0 0 1 -0.88281,-0.56055 z m -402.30274,41.50781 c -0.45584,-1.4701 -0.44493,-1.43595 0.0273,0.0625 a 12.904971,12.904971 0 0 1 0.0469,0.1543 c 0.57441,1.90511 0.5791,1.79734 -0.0625,-0.17969 l -24.574218,7.87891 -0.0625,-0.19531 24.624998,-7.72071 z m 306.16797,11.36914 a 12.904971,12.904971 0 0 1 -0.31836,1.78907 c 0.0174,-0.0697 0.0228,-0.0768 0.0527,-0.21094 0.047,-0.21066 0.20782,-0.42411 0.26562,-1.57813 z"
         inkscape:href="#path6886"
         id="path6974"
         style="font-style:normal;font-variant:normal;font-weight:normal;font-stretch:normal;font-size:medium;line-height:110.00000238%;font-family:'Freestyle Script';-inkscape-font-specification:'Freestyle Script, Normal';text-align:start;letter-spacing:0px;word-spacing:0px;writing-mode:lr-tb;text-anchor:start;fill:#ffffff;fill-opacity:1;stroke:none;stroke-width:1px;stroke-linecap:butt;stroke-linejoin:miter;stroke-opacity:1"
         xlink:href="#path6886"
         inkscape:original="M 135.78125 465.88867 C 129.00463 465.88867 121.3267 470.11815 117.67578 474.68359 C 117.49829 474.90633 117.32571 475.13294 117.1582 475.36328 C 113.04357 481.00059 113.69909 481.67715 112.54688 484.70117 C 112.51568 484.78427 112.48508 484.86763 112.45508 484.95117 C 111.00492 488.92007 104.9641 500.38968 95.041016 515.76562 C 90.331996 522.98933 87.377311 527.60794 85.369141 531.21094 C 85.348141 531.24864 85.327341 531.28644 85.306641 531.32422 C 81.579051 538.11857 78.579151 543.92124 76.238281 548.95117 C 76.225881 548.97787 76.213472 549.00455 76.201172 549.03125 C 72.119012 557.90894 68.974609 563.85847 68.974609 574.13867 C 68.974609 577.44829 69.531323 581.61386 71.876953 585.91797 C 71.981173 586.10922 72.088619 586.2987 72.199219 586.48633 C 75.550239 592.1707 84.656602 597.74219 91.794922 597.74219 C 97.330922 597.74219 104.35611 594.80968 108.29297 590.61133 C 109.05831 589.79516 109.65408 588.98153 110.24219 588.16992 C 115.20178 591.95462 121.54769 593.6543 126.75391 593.6543 C 134.14753 593.6543 139.85784 591.37504 144.60742 587.97461 C 149.23309 590.41322 154.35891 591.875 158.95312 591.875 C 165.99166 591.875 172.39524 589.79723 178.10156 586.85547 C 184.04407 591.68886 191.99889 594.44531 198.83203 594.44531 C 204.151 594.44531 209.83121 593.01464 214.76562 590.33789 C 218.4351 592.43429 222.68614 593.7207 226.17969 593.7207 C 230.49096 593.7207 235.42299 591.89443 239.06055 589.31055 C 241.73553 590.37551 244.40875 591.15039 246.79297 591.15039 C 252.01882 591.15039 256.29485 589.71395 259.89453 587.8457 C 264.21817 590.67597 269.2584 592.66602 273.93945 592.66602 C 276.83494 592.66602 279.47685 592.14994 281.94531 591.36133 C 285.93691 593.5513 290.45985 595.03906 294.88867 595.03906 C 298.3509 595.03906 302.23604 593.96597 305.61719 592.24219 C 306.60308 592.41114 307.58879 592.5332 308.5625 592.5332 C 322.90507 592.5332 328.94225 584.75952 335.11328 577.64062 C 335.97708 576.65975 336.71925 575.57037 337.51172 574.53906 C 343.46412 573.47535 349.29949 570.77767 353.67578 567.01172 C 353.73208 566.96322 353.78804 566.91441 353.84375 566.86523 C 358.01127 563.1946 363.78516 557.73992 363.78516 546.97852 C 363.78516 541.06134 361.1052 536.01133 358.66602 533.09375 C 358.41757 532.79705 358.16029 532.50786 357.89453 532.22656 C 356.84157 531.11026 355.24292 529.76789 353.30469 528.53906 C 352.52517 526.33691 351.39681 524.03978 349.47266 521.78125 C 344.9409 516.46192 337.52452 514.27734 332.94922 514.27734 C 330.30294 514.27733 327.67272 514.85276 325.1543 515.79688 C 322.98806 515.03421 320.75664 514.4746 318.59961 514.47461 C 315.97081 514.47461 313.10663 515.38901 310.33984 516.63086 C 305.57514 512.83747 299.13058 510.7168 293.74414 510.7168 C 288.57875 510.7168 283.82319 512.09439 279.56055 514.08984 C 279.80786 513.71111 280.05765 513.27837 280.30469 512.9043 C 282.73458 509.45115 285.71289 505.73878 285.71289 497.20703 C 285.71289 492.81889 284.14238 487.68066 281.4375 483.875 C 278.39479 479.61638 270.97637 474.45898 263.56641 474.45898 C 256.70889 474.45898 250.46029 478.18304 247.19141 481.57031 C 243.96319 484.91546 242.96539 486.92502 241.34375 489.68555 C 241.33775 489.69555 241.33372 489.70494 241.32812 489.71484 C 237.00304 496.93815 233.24569 503.83019 229.48047 510.72852 C 225.98473 509.68125 222.68015 509.39844 219.71289 509.39844 C 210.44654 509.39844 201.21414 512.51534 193.68945 517.65625 C 193.66005 517.67635 193.63076 517.6966 193.60156 517.7168 C 192.90223 518.20027 192.26301 518.90487 191.57617 519.45703 C 191.07706 518.96017 190.63247 518.34234 190.10547 517.92578 C 189.96251 517.81307 189.81797 517.70239 189.67188 517.59375 C 187.76253 516.17008 185.46573 515.01714 183.05078 514.17383 C 187.62914 510.18251 191.74414 502.92152 191.74414 496.54688 C 191.74414 491.21335 189.11641 484.30577 184.90625 480.18555 C 184.52287 479.81045 184.12409 479.45141 183.71094 479.10938 C 180.49222 476.44403 175.11568 473.93164 169.5293 473.93164 C 160.53676 473.93164 159.28601 475.94265 155.55273 477.62891 L 155.60547 477.60547 C 155.38958 477.70227 155.26192 477.77899 155.04883 477.875 C 153.7088 475.24354 152.02184 472.79548 150.00391 471.08398 C 149.86494 470.96546 149.72429 470.84892 149.58203 470.73438 C 145.96568 467.83868 140.48437 465.88868 135.78125 465.88867 z M 420.11328 469.11914 C 415.50078 469.11914 408.0128 471.06915 403.16016 476.68164 C 401.35484 478.76965 400.36382 480.38128 399.63477 481.83008 C 398.74386 482.37715 397.88663 482.7857 396.98242 483.37109 C 396.96352 483.38339 396.94458 483.3958 396.92578 483.4082 C 395.03935 484.63896 392.89659 486.1877 390.83008 488.02539 C 392.13447 487.98784 393.57817 487.95989 393.59766 487.88086 L 397.63867 487.88086 C 397.60604 487.99533 393.88385 488.11156 390.59961 488.22656 C 390.16101 488.62451 389.70388 488.93632 389.2793 489.37305 L 397.58789 487.89062 C 397.57609 487.92323 397.57891 487.93049 397.56641 487.96289 L 389.21094 489.44531 C 385.61547 493.17141 382.67578 498.38091 382.67578 506.30273 C 382.67583 509.40923 383.5614 512.39591 384.71484 515.11719 C 383.57762 515.74741 382.5295 516.44358 381.61133 517.18359 C 381.53333 517.24679 381.45589 517.3106 381.37891 517.375 C 377.17993 520.86789 373.04298 528.15612 373.04297 534.91406 C 373.04297 536.50472 373.2417 537.96816 373.52148 539.37305 C 370.83452 545.03352 367.82099 551.19953 366.05859 555.4375 C 363.2988 562.07386 360.85156 564.29272 360.85156 574.66602 C 360.85156 580.08293 363.15976 585.76242 366.0918 589.44141 C 369.62176 593.8642 377.15437 598.20319 384.00781 598.20312 C 390.99859 598.20317 397.78295 593.92587 400.92969 590.17578 C 404.07642 586.42569 405.23857 583.23467 406.17383 580.31445 C 406.21413 580.18985 406.25323 580.06483 406.29102 579.93945 C 405.74452 581.77312 407.52717 576.52829 409.89062 570.34961 L 409.89258 570.34766 C 410.44976 568.91451 412.83377 564.00096 414.37695 560.6582 C 415.4069 560.54682 416.42305 560.32744 417.44727 560.16602 C 417.28644 561.69243 417.09766 563.2124 417.09766 564.77734 C 417.09766 569.55189 418.25586 574.99082 421.05469 579.74805 C 421.08569 579.80025 421.11704 579.85235 421.14844 579.9043 C 425.13946 586.54415 435.01793 592.66602 443.42188 592.66602 C 446.31637 592.66602 448.95801 592.15139 451.42578 591.36328 C 455.41777 593.55313 459.94172 595.03906 464.37109 595.03906 C 465.59835 595.03906 466.88394 594.90264 468.18164 594.66016 C 469.40169 594.83495 470.53322 594.90625 471.51172 594.90625 C 481.58412 594.90625 489.82217 586.77352 492.61328 581.31055 C 492.62228 581.29175 492.63152 581.27281 492.64062 581.25391 C 493.7464 579.07189 494.82064 577.15844 495.85352 575.43945 C 496.34615 576.80359 496.75298 578.20639 497.45703 579.45898 C 500.78948 585.38349 510.11522 591.67773 517.99023 591.67773 C 521.84766 591.67773 525.20153 590.80645 528.14258 589.57422 C 532.00039 591.46348 536.09249 592.46875 539.34375 592.46875 C 547.034 592.46875 552.66673 589.48883 557.0957 586.05273 C 561.82946 589.83854 567.95753 592.66602 573.56445 592.66602 C 576.45895 592.66602 579.10059 592.15138 581.56836 591.36328 C 585.56036 593.55312 590.08431 595.03906 594.51367 595.03906 C 598.30567 595.03906 602.63759 593.80669 606.21875 591.77539 C 606.7583 591.82299 607.32354 592.00586 607.84961 592.00586 C 621.63258 592.00586 629.82122 583.55393 636.07031 575.42383 C 638.60203 572.14469 640.67237 569.25376 642.47852 566.14648 C 644.28736 563.03457 646.76953 560.66217 646.76953 552.11914 C 646.76953 550.58347 646.43429 548.60053 645.86328 546.52734 C 648.82704 543.33218 651.67071 540.11324 654.25586 536.83789 C 654.26956 536.82039 654.28328 536.80276 654.29688 536.78516 C 666.35516 521.39703 675.26367 512.04979 675.26367 494.10742 C 675.26367 488.47812 672.76865 482.11472 669.18945 477.96875 C 665.0559 473.18993 657.35545 469.71289 651.23047 469.71289 C 634.38835 469.71289 627.66464 479.68003 619.99414 489.55273 C 614.54113 496.52899 609.35054 504.49191 604.30469 513.24023 C 600.68599 511.64422 596.81485 510.7168 593.36719 510.7168 C 587.04837 510.7168 581.29824 512.70066 576.39648 515.48242 C 572.20012 512.73843 567.39441 511.70508 564.13281 511.70508 C 558.65275 511.70508 552.37757 514.48047 548.13086 518.18555 C 546.95376 518.19555 545.83012 518.38897 544.70703 518.57617 C 541.68086 516.84156 537.97176 515.46289 533.88672 515.46289 C 528.81229 515.46289 525.33003 516.58886 522.60547 518.07812 C 519.50832 515.26091 515.04792 512.5625 508.56055 512.5625 C 501.63902 512.5625 501.20569 513.89793 499.90234 514.47656 C 499.10036 514.83261 498.58398 515.13343 497.99609 515.44727 C 495.88992 514.80137 493.6877 514.4082 491.58398 514.4082 C 486.60571 514.4082 482.94598 515.37274 480.07031 516.80859 C 477.53444 514.73247 474.53874 513.1708 471.41211 512.15625 C 471.87534 509.65209 472.23633 507.12038 472.23633 504.52344 C 472.23633 495.91738 468.41388 487.07151 462.87695 481.05078 L 462.83789 481.00977 C 456.6636 474.33601 446.74276 469.91016 437.56055 469.91016 C 434.38994 469.91016 431.51628 470.27807 428.55664 470.80469 C 425.49299 469.62082 422.45809 469.11914 420.11328 469.11914 z M 390.59961 488.22656 C 390.67634 488.15694 390.75305 488.09389 390.83008 488.02539 C 388.7561 488.0851 386.45431 488.15973 386.39258 488.43164 C 386.40863 488.36273 388.63675 488.29529 390.59961 488.22656 z M 525.9668 521.60742 L 526.48633 522.31641 C 526.39313 522.18262 526.2142 521.99548 526.11133 521.85352 C 526.06383 521.79062 526.01353 521.66842 525.9668 521.60742 z M 299.97266 524.60156 C 299.92326 524.67676 299.91695 524.72105 299.86914 524.79492 C 299.85014 524.82442 299.81167 524.85136 299.79297 524.88086 L 299.97266 524.60156 z M 100.56445 573.96094 C 100.57645 573.99964 100.59717 574.04134 100.60938 574.08008 C 100.61737 574.10658 100.61835 574.1317 100.62695 574.1582 L 100.56445 573.96094 z M 273.71094 584.87305 C 273.71894 584.88205 273.73078 584.88944 273.73828 584.89844 C 273.75038 584.91294 273.75753 584.93091 273.76953 584.94531 L 273.71094 584.87305 z M 443.19141 584.87305 C 443.19941 584.88205 443.21105 584.88944 443.21875 584.89844 C 443.23085 584.91294 443.2379 584.93081 443.25 584.94531 L 443.19141 584.87305 z M 573.33398 584.87305 C 573.34198 584.88205 573.35373 584.88944 573.36133 584.89844 C 573.37343 584.91294 573.38048 584.93091 573.39258 584.94531 L 573.33398 584.87305 z "
         inkscape:radius="-12.903681"
         sodipodi:type="inkscape:offset" />
      <path
         sodipodi:nodetypes="scccccccccsccsscscscscscscscscsccccscccsscscsccscsscccsccccccsccscccccscscccccccccccscssccsccccccsccscscsccccscscscscscsscccscsccscsccscsscsccsccsccccccccccccccccccccccccccccccccccccccc"
         inkscape:connector-curvature="0"
         id="path6886"
         d="m 135.78106,465.88931 c -6.77662,0 -14.45455,4.22948 -18.10547,8.79492 -0.17749,0.22274 -0.35006,0.44935 -0.51757,0.67969 -4.11463,5.63731 -3.45912,6.31387 -4.61133,9.33789 -0.0312,0.0831 -0.0618,0.16646 -0.0918,0.25 -1.45016,3.9689 -7.49098,15.43852 -17.414063,30.81446 -4.70902,7.22371 -7.6637,11.84231 -9.67187,15.44531 -0.021,0.0377 -0.0418,0.0755 -0.0625,0.11328 -3.72759,6.79435 -6.72749,12.59702 -9.06836,17.62695 -0.0124,0.0267 -0.0248,0.0534 -0.0371,0.0801 -4.08216,8.87769 -7.22656,14.82722 -7.22656,25.10742 0,3.30962 0.55671,7.47519 2.90234,11.7793 0.10422,0.19125 0.21166,0.38073 0.32226,0.56836 3.35102,5.68437 12.45739,11.25586 19.59571,11.25586 5.536,0 12.561183,-2.93251 16.498043,-7.13086 0.76534,-0.81617 1.36111,-1.6298 1.94922,-2.44141 4.95959,3.7847 11.3055,5.48438 16.51172,5.48438 7.39362,0 13.10393,-2.27926 17.85351,-5.67969 4.62567,2.43861 9.75148,3.90039 14.3457,3.90039 7.03853,0 13.44212,-2.07777 19.14844,-5.01953 5.94251,4.83339 13.89733,7.58984 20.73047,7.58984 5.31897,0 10.99918,-1.43067 15.93359,-4.10742 3.66948,2.0964 7.92051,3.38281 11.41406,3.38281 4.31127,0 9.2433,-1.82627 12.88086,-4.41015 2.67498,1.06496 5.3482,1.83984 7.73242,1.83984 5.22585,0 9.50189,-1.43644 13.10157,-3.30469 4.32364,2.83027 9.36387,4.82032 14.04492,4.82032 2.89549,0 5.5374,-0.51608 8.00586,-1.30469 3.9916,2.18997 8.51454,3.67773 12.94336,3.67773 3.46223,0 7.34736,-1.07309 10.72851,-2.79687 0.98589,0.16895 1.97161,0.29101 2.94532,0.29101 14.34257,0 20.37975,-7.77367 26.55078,-14.89257 0.8638,-0.98088 1.60597,-2.07026 2.39844,-3.10157 5.9524,-1.06371 11.78777,-3.76139 16.16406,-7.52734 0.0563,-0.0485 0.11226,-0.0973 0.16797,-0.14648 4.16752,-3.67063 9.9414,-9.12532 9.9414,-19.88672 0,-5.91718 -2.67996,-10.96719 -5.11914,-13.88477 -0.24845,-0.2967 -0.50572,-0.58588 -0.77148,-0.86718 -1.05296,-1.1163 -2.65162,-2.45867 -4.58985,-3.6875 -0.77952,-2.20215 -1.90788,-4.49929 -3.83203,-6.75782 -4.53176,-5.31933 -11.94813,-7.5039 -16.52343,-7.5039 -2.64628,-10e-6 -5.27651,0.57542 -7.79493,1.51953 -2.16624,-0.76267 -4.39765,-1.32228 -6.55468,-1.32227 -2.6288,0 -5.49298,0.9144 -8.25977,2.15625 -4.7647,-3.79339 -11.20926,-5.91406 -16.5957,-5.91406 -5.16539,0 -9.92096,1.3776 -14.1836,3.37305 0.24731,-0.37873 0.4971,-0.81148 0.74414,-1.18555 2.42989,-3.45315 5.40821,-7.16552 5.40821,-15.69727 0,-4.38814 -1.57051,-9.52637 -4.27539,-13.33203 -3.04271,-4.25862 -10.46114,-9.41601 -17.8711,-9.41601 -6.85752,0 -13.10612,3.72406 -16.375,7.11133 -3.22822,3.34515 -4.22601,5.3547 -5.84765,8.11523 -0.006,0.01 -0.01,0.0194 -0.0156,0.0293 -4.32509,7.22331 -8.08244,14.11534 -11.84766,21.01367 -3.49574,-1.04727 -6.80031,-1.33008 -9.76757,-1.33008 -9.26635,0 -18.49875,3.11691 -26.02344,8.25782 -0.0294,0.0201 -0.0587,0.0403 -0.0879,0.0605 -0.69933,0.48347 -1.33855,1.18807 -2.02539,1.74023 -0.49911,-0.49686 -0.94371,-1.11469 -1.47071,-1.53125 -0.14296,-0.11271 -0.2875,-0.22339 -0.43359,-0.33203 -1.90935,-1.42367 -4.20614,-2.57661 -6.62109,-3.41992 4.57836,-3.99132 8.69336,-11.25231 8.69336,-17.62696 0,-5.33353 -2.62773,-12.2411 -6.83789,-16.36132 -0.38338,-0.3751 -0.78217,-0.73415 -1.19532,-1.07618 -3.21872,-2.66534 -8.59526,-5.17773 -14.18164,-5.17773 -8.99254,0 -10.24328,2.01101 -13.97656,3.69727 l 0.0527,-0.0234 c -0.21589,0.0968 -0.34355,0.17352 -0.55664,0.26953 -1.34003,-2.63146 -3.02699,-5.07952 -5.04492,-6.79102 -0.13897,-0.11852 -0.27961,-0.23507 -0.42187,-0.34961 -3.61635,-2.8957 -9.09766,-4.84571 -13.80078,-4.84572 z m 284.33204,3.23047 c -4.6125,0 -12.10049,1.95001 -16.95313,7.5625 -1.80532,2.08801 -2.79634,3.69964 -3.52539,5.14844 -0.89091,0.54707 -1.74813,0.95562 -2.65234,1.54101 -0.0189,0.0123 -0.0378,0.0247 -0.0566,0.0371 -2.35867,1.53886 -5.15487,3.40195 -7.64649,5.96485 l 8.3086,-1.48242 c -0.0118,0.0326 -0.009,0.0399 -0.0215,0.0723 l -8.35547,1.48242 c -3.59547,3.7261 -6.53515,8.9356 -6.53515,16.85742 5e-5,3.1065 0.88562,6.09317 2.03906,8.81445 -1.13722,0.63022 -2.18535,1.3264 -3.10352,2.06641 -0.078,0.0632 -0.15544,0.12701 -0.23242,0.19141 -4.19898,3.49289 -8.33593,10.78112 -8.33594,17.53906 0,1.59066 0.19874,3.05409 0.47852,4.45898 -2.68696,5.66047 -5.70049,11.82649 -7.46289,16.06446 -2.75979,6.63636 -5.20703,8.85521 -5.20703,19.22851 0,5.41691 2.30819,11.0964 5.24023,14.77539 3.52996,4.42279 11.06258,8.76179 17.91602,8.76173 6.99078,4e-5 13.77513,-4.27727 16.92187,-8.02736 3.14673,-3.75009 4.30888,-6.9411 5.24414,-9.86132 0.0403,-0.1246 0.0794,-0.24962 0.11719,-0.375 -0.5465,1.83367 1.23616,-3.41116 3.59961,-9.58984 l 0.002,-0.002 c 0.55718,-1.43315 2.9412,-6.34669 4.48438,-9.68945 1.02995,-0.11138 2.04609,-0.33077 3.07031,-0.49219 -0.16083,1.52641 -0.34961,3.04638 -0.34961,4.61132 0,4.77455 1.1582,10.21349 3.95703,14.97072 0.031,0.0522 0.0623,0.1043 0.0937,0.15625 3.99102,6.63985 13.86949,12.76171 22.27344,12.76171 2.8945,0 5.53614,-0.51463 8.00391,-1.30274 3.99199,2.18985 8.51594,3.67579 12.94531,3.67579 1.22726,0 2.51285,-0.13643 3.81055,-0.37891 1.22005,0.17479 2.35158,0.2461 3.33008,0.2461 10.0724,0 18.31045,-8.13273 21.10156,-13.5957 0.009,-0.0188 0.0182,-0.0377 0.0273,-0.0566 1.10577,-2.18202 2.18001,-4.09546 3.21289,-5.81445 0.49263,1.36414 0.89947,2.76695 1.60352,4.01954 3.33245,5.92451 12.65819,12.21875 20.5332,12.21875 3.85743,0 7.21129,-0.87129 10.15234,-2.10352 3.85781,1.88926 7.94992,2.89452 11.20118,2.89452 7.69025,0 13.32298,-2.9799 17.75195,-6.416 4.73376,3.78581 10.86183,6.61328 16.46875,6.61328 2.8945,0 5.53614,-0.51464 8.00391,-1.30274 3.992,2.18984 8.51595,3.67578 12.94531,3.67578 3.792,0 8.12392,-1.23238 11.70508,-3.26368 0.53955,0.0476 1.10479,0.23048 1.63086,0.23048 13.78297,0 21.97161,-8.45193 28.2207,-16.58203 2.53172,-3.27914 4.60205,-6.17006 6.4082,-9.27734 1.80884,-3.11191 4.29102,-5.48432 4.29102,-14.02735 0,-1.53567 -0.33524,-3.51861 -0.90625,-5.5918 2.96376,-3.19516 5.80743,-6.4141 8.39258,-9.68945 0.0137,-0.0175 0.0274,-0.0351 0.041,-0.0527 12.05829,-15.38813 20.9668,-24.73537 20.9668,-42.67774 0,-5.6293 -2.49502,-11.9927 -6.07422,-16.13867 -4.13355,-4.77882 -11.83401,-8.25586 -17.95899,-8.25586 -16.84212,0 -23.56582,9.96715 -31.23632,19.83985 -5.45301,6.97626 -10.64361,14.93918 -15.68946,23.6875 -3.6187,-1.59601 -7.48984,-2.52344 -10.9375,-2.52344 -6.31882,0 -12.06894,1.98386 -16.9707,4.76562 -4.19636,-2.74399 -9.00207,-3.77734 -12.26367,-3.77734 -5.48006,0 -11.75524,2.77539 -16.00195,6.48047 -1.1771,0.01 -2.30074,0.20342 -3.42383,0.39062 -3.02617,-1.73461 -6.73527,-3.11328 -10.82031,-3.11328 -5.07443,0 -8.5567,1.12598 -11.28126,2.61524 -3.09715,-2.81721 -7.55755,-5.51563 -14.04492,-5.51563 -6.92153,0 -7.35485,1.33543 -8.6582,1.91406 -0.80198,0.35605 -1.31836,0.65687 -1.90625,0.97071 -2.10617,-0.6459 -4.30839,-1.03907 -6.41211,-1.03907 -4.97827,0 -8.638,0.96454 -11.51367,2.40039 -2.53587,-2.07612 -5.53157,-3.63779 -8.6582,-4.65234 0.46323,-2.50416 0.82421,-5.03587 0.82421,-7.63281 0,-8.60606 -3.82244,-17.45193 -9.35937,-23.47266 l -0.0391,-0.041 c -6.17429,-6.67376 -16.09508,-11.0996 -25.27729,-11.0996 -3.17061,0 -6.04426,0.36791 -9.0039,0.89453 -3.06365,-1.18387 -6.09855,-1.68555 -8.44336,-1.68555 z m -30.90235,20.32617 c 0.0231,-0.0239 0.0452,-0.0485 0.0684,-0.0723 z m 8.42774,-1.56445 0.002,0 c -0.0483,0.18292 -11.20548,0.36653 -11.2484,0.55078 0.10056,-0.44292 7.15537,-0.3461 7.20584,-0.55078 z m 128.32812,33.72656 0.51953,0.70899 c -0.0932,-0.13379 -0.27213,-0.32093 -0.375,-0.46289 -0.0475,-0.0629 -0.0978,-0.1851 -0.14453,-0.2461 z m -225.99414,2.99414 c -0.0494,0.0752 -0.0557,0.11949 -0.10351,0.19336 -0.019,0.0295 -0.0575,0.0564 -0.0762,0.0859 l 0.17969,-0.27929 z m -199.4082,49.35938 c 0.012,0.0387 0.0327,0.0804 0.0449,0.11914 0.008,0.0265 0.009,0.0516 0.0176,0.0781 l -0.0625,-0.19726 z m 173.14648,10.91211 c 0.008,0.009 0.0198,0.0164 0.0273,0.0254 0.0121,0.0145 0.0192,0.0325 0.0312,0.0469 l -0.0586,-0.0723 z m 169.48047,0 c 0.008,0.009 0.0197,0.0164 0.0274,0.0254 0.0121,0.0145 0.0191,0.0324 0.0312,0.0469 z m 130.14258,0 c 0.008,0.009 0.0197,0.0164 0.0273,0.0254 0.0121,0.0145 0.0191,0.0325 0.0312,0.0469 l -0.0586,-0.0723 z"
         style="font-style:normal;font-variant:normal;font-weight:normal;font-stretch:normal;font-size:medium;line-height:110.00000238%;font-family:'Freestyle Script';-inkscape-font-specification:'Freestyle Script, Normal';text-align:start;letter-spacing:0px;word-spacing:0px;writing-mode:lr-tb;text-anchor:start;fill:#ffffff;fill-opacity:1;stroke:#f6f6f6;stroke-width:1px;stroke-linecap:butt;stroke-linejoin:miter;stroke-opacity:1" />
      <g
         id="text6782"
         style="font-style:normal;font-variant:normal;font-weight:normal;font-stretch:normal;font-size:136.4750061px;line-height:110.00000238%;font-family:'Freestyle Script';-inkscape-font-specification:'Freestyle Script, Normal';text-align:start;letter-spacing:0px;word-spacing:0px;writing-mode:lr-tb;text-anchor:start;fill:#000000;fill-opacity:1;stroke:none;stroke-width:1px;stroke-linecap:butt;stroke-linejoin:miter;stroke-opacity:1"
         transform="scale(1.0108542,0.98926234)">
        <path
           id="path4159"
           style=""
           d="m 128.65358,523.60937 q 2.86544,-1.53268 11.52841,-6.93037 2.53225,-1.59932 13.7941,-7.92994 4.59804,-2.53225 11.72832,-5.79753 4.33149,-1.99914 5.9308,-1.99914 0.93294,0 1.79923,0.73302 0.99958,0.99957 0.99958,2.53225 0,1.86587 -1.66596,2.99872 -0.79966,0.59974 -4.13157,1.66595 -21.39085,8.32978 -35.51815,20.32465 -1.93251,7.19692 -2.99872,14.06066 -2.19906,14.6604 -2.19906,24.72276 0,3.59847 0.8663,5.46434 0.93293,1.79923 2.73216,1.79923 3.53183,0 14.06066,-14.86032 1.99915,-2.7988 3.19864,-2.7988 1.53267,0 1.53267,1.86587 0,2.66552 -5.79752,11.06194 -8.32977,12.26142 -15.19351,12.26142 -5.73088,0 -7.59675,-6.13071 -1.19949,-3.79838 -1.19949,-9.5959 0,-11.59504 2.93208,-24.72277 2.93208,-13.19436 3.53183,-16.39299 -3.73174,6.86373 -13.92738,23.39 -12.19479,21.05767 -14.593766,33.51901 -0.932934,4.06493 -3.731738,4.06493 -1.865869,0 -2.865442,-1.73259 -0.533106,-0.99958 -0.533106,-2.53225 0,-5.19778 5.397693,-17.19266 3.065357,-6.73045 8.396409,-16.65954 1.99915,-3.6651 8.92952,-14.52713 15.19351,-24.05638 19.12516,-35.05168 1.46604,-3.93166 2.13242,-4.86459 1.19949,-1.53268 2.93208,-1.53268 0.93294,0 1.66596,0.59974 0.99957,0.8663 0.99957,2.2657 0,5.79752 -12.26143,27.9214 z" />
        <path
           id="path4161"
           style=""
           d="m 158.30758,568.25696 0,1.19948 q 0,1.46604 0.73302,2.53226 1.66595,2.46561 5.46433,2.46561 8.32977,0 19.25843,-12.79453 1.93251,-2.19906 3.26527,-2.19906 0.73302,0 1.33277,0.73302 0.39983,0.5331 0.39983,0.99957 0,2.59889 -6.39727,8.79624 -4.99786,4.86459 -10.66211,7.92994 -5.66425,3.06536 -10.52883,3.06536 -4.99787,0 -7.86331,-3.46518 -1.93251,-2.39898 -1.93251,-6.53055 0,-11.26185 10.59548,-22.05724 8.59632,-8.79624 14.99359,-8.79624 1.73259,0 3.13199,1.06621 1.7326,1.39941 1.7326,3.6651 0,3.53183 -3.26528,8.66297 -6.73045,10.66211 -20.258,14.72704 z m 1.46604,-5.19778 q 4.66467,-1.59932 7.3302,-3.59846 4.66467,-3.59847 7.39683,-8.12986 0.99958,-1.59932 0.99958,-2.86544 0,-1.33277 -1.26613,-1.33277 -1.73259,0 -4.93122,2.59889 -5.73089,4.59804 -9.52926,13.32764 z" />
        <path
           id="path4163"
           style=""
           d="m 221.28067,536.80373 q 4.13156,0 6.19735,1.46604 2.06578,1.46604 2.06578,4.46476 0,3.93165 -2.93208,7.59676 -2.7988,3.46518 -8.39641,5.5976 -3.06536,1.13285 -5.13114,1.13285 -2.7988,0 -2.7988,-2.46561 0,-1.66596 1.59931,-2.53225 0.39983,-0.19992 4.5314,-1.13285 2.46561,-0.53311 4.5314,-2.33234 1.79923,-1.53268 1.79923,-3.33191 0,-1.3994 -0.79966,-2.06578 -0.79966,-0.66638 -2.39898,-0.66638 -3.86501,0 -8.52968,3.13199 -5.3977,3.53183 -5.3977,8.39641 0,3.46519 3.53183,8.66297 3.93165,5.66424 3.93165,9.5959 0,5.86416 -5.19778,9.19607 -3.19863,2.06578 -7.26356,2.06578 -6.39727,0 -9.72918,-4.59803 -2.33233,-3.26528 -2.33233,-7.73003 0,-5.19778 2.66552,-8.72961 1.7326,-2.33233 3.59847,-2.33233 1.66595,0 1.66595,1.33276 0,0.53311 -0.59974,1.59932 -1.53268,2.86544 -1.53268,6.73045 0,3.26527 2.33234,5.53097 2.06578,1.99915 4.73131,1.99915 2.59889,0 4.06493,-1.73259 1.19948,-1.46604 1.19948,-3.73174 0,-2.79881 -3.19863,-7.26356 -4.39812,-6.13072 -4.39812,-11.12858 0,-6.66382 7.26356,-11.79496 7.06365,-4.93123 14.92696,-4.93123 z" />
        <path
           id="path4165"
           style=""
           d="m 241.53867,553.79647 q 4.93123,-5.13114 9.86246,-8.59633 6.33062,-4.39812 9.06279,-4.39812 1.13285,0 2.19906,0.93294 1.19949,1.06621 1.19949,2.46561 0,1.79923 -2.86545,5.59761 -5.53097,7.3302 -8.39641,13.32764 -2.53225,5.19778 -2.53225,7.06364 0,1.79924 1.73259,1.79924 3.59847,0 12.12815,-12.79454 1.7326,-2.59889 3.132,-2.59889 1.3994,0 1.3994,1.59932 0,2.59889 -5.0645,9.92909 -4.39812,6.39727 -9.19607,9.79581 -3.39855,2.33234 -6.13071,2.33234 -2.86545,0 -4.13157,-2.46561 -0.79966,-1.53268 -0.79966,-3.39855 0,-5.9308 4.19821,-13.52755 0.99957,-1.79923 5.99743,-10.26228 -13.59419,6.86373 -22.99017,29.65399 -0.8663,2.59889 -2.66553,2.59889 -1.26612,0 -2.06578,-0.8663 -0.79966,-0.93293 -0.79966,-2.26569 0,-2.19906 4.26484,-12.46135 7.92995,-19.05852 14.79368,-32.25288 6.86373,-13.32764 15.26015,-27.65485 1.99914,-3.46518 3.13199,-4.66467 1.13285,-1.19949 2.39897,-1.19949 1.19949,0 2.06579,1.26613 0.66638,0.93293 0.66638,2.13242 0,1.86587 -2.13242,4.99787 -7.19693,11.12857 -14.32721,24.45621 -7.66339,14.26057 -9.39599,19.45835 z" />
        <path
           id="path4167"
           style=""
           d="m 287.58566,570.05619 q -2.19906,3.86501 -4.33148,6.53054 -4.19821,5.19778 -8.32978,5.19778 -3.59846,0 -5.5976,-3.39855 -1.26613,-2.19906 -1.26613,-5.19778 0,-7.39684 4.66467,-16.32635 5.19778,-9.92909 12.52798,-15.26015 4.79795,-3.46518 9.26271,-3.46518 2.7988,0 4.66467,1.73259 1.59932,1.53268 1.59932,3.46519 0,1.46604 -1.13285,4.06492 0.99957,1.39941 0.99957,2.46562 0,1.3994 -1.86587,4.59803 -1.9325,3.26527 -3.86501,8.66297 -2.06578,5.73088 -2.06578,9.19607 0,2.7988 1.66595,4.59803 0.46647,0.46647 2.73217,1.53268 1.66595,0.79966 1.66595,2.7988 0,1.26613 -0.93293,2.06579 -0.99958,0.86629 -2.33234,0.86629 -3.59846,0 -6.19735,-3.19863 -2.13242,-2.59889 -2.13242,-6.53054 0,-1.33277 0.26655,-4.39812 z m 8.32977,-21.92397 q -0.79966,-1.46604 -1.73259,-2.13242 -0.93294,-0.73302 -1.99915,-0.73302 -5.0645,0 -10.9953,8.86288 -6.53054,9.79582 -6.53054,16.59291 0,1.66595 0.59974,2.53225 0.66639,0.8663 1.93251,0.8663 3.19863,0 7.46348,-6.7971 2.39897,-3.73174 5.9308,-10.9953 2.33233,-4.73131 3.39854,-6.26399 0.53311,-0.79966 1.93251,-1.93251 z" />
        <path
           id="path4169"
           style=""
           d="m 328.03503,562.85926 q -4.06493,6.99701 -6.99701,10.39556 -7.13029,8.39641 -11.8616,8.39641 -2.86544,0 -4.39812,-3.13199 -1.06621,-2.06579 -1.06621,-4.33148 0,-4.39812 3.79838,-12.7279 3.39855,-7.26356 5.73088,-11.46177 1.7326,-2.99871 2.06579,-3.93165 0.79966,-1.79923 1.3994,-2.73216 0.8663,-1.39941 2.39897,-1.39941 0.79966,0 1.39941,0.66639 0.66638,0.79965 0.66638,1.86586 0,2.99872 -5.3977,13.39428 -5.39769,10.26228 -5.39769,13.59419 0,2.13242 1.66596,2.13242 2.86544,0 8.12985,-7.46347 2.33234,-3.33191 4.86459,-8.46305 -0.0666,-1.66596 -0.0666,-2.53226 0,-4.99786 1.86587,-8.66296 2.39898,-4.73131 6.46391,-4.73131 2.33233,0 2.33233,2.7988 0,4.46476 -4.66467,13.12773 1.33276,0.26655 2.13242,0.26655 2.19906,0 5.73089,-2.79881 2.7988,-2.26569 3.6651,-2.26569 0.73302,0 1.53268,0.86629 0.59974,0.73302 0.59974,1.46604 0,2.39898 -3.33191,5.3977 -3.86502,3.39854 -8.79624,3.39854 -1.93251,0 -4.46476,-1.13285 z" />
        <path
           id="path4171"
           style=""
           d="m 401.73688,549.19844 -0.93294,1.99914 q -6.93037,14.39385 -9.26271,20.52456 -3.59846,9.5959 -4.06493,11.19522 -1.3994,4.46476 -3.6651,4.46476 -1.59931,0 -2.73216,-1.46604 -0.99957,-1.26613 -0.99957,-2.73217 0,-5.73088 14.72704,-36.18453 -2.66553,-1.99915 -2.66553,-3.9983 0,-1.53267 1.33276,-2.66552 1.13285,-0.93294 2.46561,-0.93294 0.93294,0 2.46562,0.46647 10.86202,-20.65784 12.72789,-26.32208 -1.66595,0.93293 -4.26484,2.66552 -1.46604,0.93294 -2.59889,0.93294 -1.26613,0 -2.06579,-1.26613 -0.5331,-0.86629 -0.5331,-1.79923 0,-3.13199 5.39769,-6.73046 4.33148,-2.86544 8.06322,-4.79794 0.59975,-1.59932 0.73302,-2.19906 0.66638,-2.53226 1.3994,-3.39855 0.73302,-0.8663 2.2657,-0.8663 3.132,0 3.132,3.46519 4.59803,-1.33277 8.12986,-1.99915 3.53182,-0.66638 5.99743,-0.66638 6.46391,0 10.92867,4.93123 4.1982,4.66467 4.1982,10.46219 0,10.06237 -8.39641,20.12473 -7.19692,8.52969 -17.85903,13.32764 -9.19607,4.06493 -18.39214,4.06493 -2.19906,0 -5.53097,-0.59974 z m 18.65869,-40.6493 q -2.19906,6.59718 -7.19692,16.9261 -6.13072,12.52798 -7.92995,16.393 3.6651,0.66638 5.13114,0.66638 7.59675,0 17.72576,-6.13072 9.79581,-5.99743 15.32678,-14.86031 3.39855,-5.39769 3.39855,-9.5959 0,-3.79838 -2.59889,-5.66425 -2.53225,-1.9325 -7.73003,-1.9325 -3.93165,0 -7.99658,1.06621 -3.99829,0.99957 -8.12986,3.13199 z" />
        <path
           id="path4173"
           style=""
           d="m 455.24733,570.05619 q -2.19906,3.86501 -4.33149,6.53054 -4.1982,5.19778 -8.32977,5.19778 -3.59846,0 -5.59761,-3.39855 -1.26612,-2.19906 -1.26612,-5.19778 0,-7.39684 4.66467,-16.32635 5.19778,-9.92909 12.52798,-15.26015 4.79795,-3.46518 9.26271,-3.46518 2.7988,0 4.66467,1.73259 1.59932,1.53268 1.59932,3.46519 0,1.46604 -1.13285,4.06492 0.99957,1.39941 0.99957,2.46562 0,1.3994 -1.86587,4.59803 -1.93251,3.26527 -3.86501,8.66297 -2.06579,5.73088 -2.06579,9.19607 0,2.7988 1.66596,4.59803 0.46646,0.46647 2.73216,1.53268 1.66596,0.79966 1.66596,2.7988 0,1.26613 -0.93294,2.06579 -0.99957,0.86629 -2.33233,0.86629 -3.59847,0 -6.19735,-3.19863 -2.13243,-2.59889 -2.13243,-6.53054 0,-1.33277 0.26656,-4.39812 z m 8.32977,-21.92397 q -0.79966,-1.46604 -1.73259,-2.13242 -0.93294,-0.73302 -1.99915,-0.73302 -5.0645,0 -10.9953,8.86288 -6.53054,9.79582 -6.53054,16.59291 0,1.66595 0.59974,2.53225 0.66638,0.8663 1.93251,0.8663 3.19863,0 7.46348,-6.7971 2.39897,-3.73174 5.93079,-10.9953 2.33234,-4.73131 3.39855,-6.26399 0.53311,-0.79966 1.93251,-1.93251 z" />
        <path
           id="path4175"
           style=""
           d="m 483.23536,559.12753 q 6.53054,-6.99701 15.06023,-13.66083 3.06535,-2.39898 6.53054,-4.46476 1.73259,-0.99957 2.19906,-0.99957 0.99957,0 1.99914,1.46604 0.59975,0.79965 0.59975,1.46604 0,1.19948 -2.53225,3.26527 -6.7971,5.39769 -6.7971,8.12986 0,1.53267 1.7326,1.53267 2.86544,0 9.86245,-4.73131 1.19948,-0.79965 1.99914,-0.79965 0.53311,0 1.06621,0.5331 0.59975,0.59974 0.59975,1.26613 0,1.99914 -5.59761,6.13071 -5.86416,4.39812 -11.12858,4.39812 -2.13242,0 -3.93165,-1.13285 -1.53268,-0.93293 -1.53268,-3.33191 0,-1.66595 1.3994,-3.79838 -5.26441,3.73174 -12.3947,12.79454 -4.13157,5.5976 -8.1965,13.7941 -1.53268,3.06536 -3.79837,3.06536 -2.46562,0 -2.46562,-2.33234 0,-2.2657 3.86502,-12.12815 5.73088,-14.6604 11.99487,-22.72362 3.86502,-4.99786 6.46391,-4.99786 0.86629,0 1.59931,0.5331 0.8663,0.66638 0.8663,1.66596 0,0.99957 -1.33276,2.7988 -0.26656,0.33319 -3.53183,4.46476 -2.99872,3.93165 -4.59803,7.79667 z" />
        <path
           id="path4177"
           style=""
           d="m 535.87954,562.45943 q -5.73088,7.73003 -8.46305,10.66211 -3.39855,3.66511 -5.86416,5.59761 -2.7988,2.06579 -5.19778,2.06579 -2.33233,0 -3.59846,-2.33234 -0.99957,-1.79923 -0.99957,-3.99829 0,-7.26356 8.66296,-19.99146 7.86331,-11.5284 11.66168,-11.5284 0.93294,0 1.79923,0.86629 0.79966,0.79966 0.79966,1.86587 0,1.46604 -2.59889,4.06493 -5.53097,5.46433 -9.5959,12.32807 -3.46518,5.86416 -3.46518,7.66339 0,1.33276 1.19949,1.33276 3.99829,0 17.32593,-17.32593 4.33148,-5.59761 5.26441,-6.4639 1.73259,-1.59932 3.53183,-1.59932 1.19948,0 2.06578,0.66638 0.73302,0.66639 0.73302,1.39941 0,0.79965 -3.19863,6.73045 -7.26357,12.79453 -7.26357,17.25929 0,1.7326 1.39941,1.7326 2.39897,0 6.59718,-5.53097 3.99829,-5.19778 7.39684,-13.19436 1.46604,-3.46519 2.59888,-9.12944 1.33277,-6.4639 5.33106,-6.4639 2.2657,0 2.2657,2.53225 0,8.7296 -9.72918,23.98975 -10.129,15.92652 -17.05937,15.92652 -5.13114,0 -5.13114,-6.33062 0,-5.19778 3.53182,-12.79454 z" />
        <path
           id="path4179"
           style=""
           d="m 583.99232,570.05619 q -2.19906,3.86501 -4.33148,6.53054 -4.19821,5.19778 -8.32977,5.19778 -3.59847,0 -5.59761,-3.39855 -1.26613,-2.19906 -1.26613,-5.19778 0,-7.39684 4.66468,-16.32635 5.19777,-9.92909 12.52797,-15.26015 4.79795,-3.46518 9.26271,-3.46518 2.79881,0 4.66468,1.73259 1.59931,1.53268 1.59931,3.46519 0,1.46604 -1.13285,4.06492 0.99958,1.39941 0.99958,2.46562 0,1.3994 -1.86587,4.59803 -1.93251,3.26527 -3.86502,8.66297 -2.06578,5.73088 -2.06578,9.19607 0,2.7988 1.66595,4.59803 0.46647,0.46647 2.73217,1.53268 1.66595,0.79966 1.66595,2.7988 0,1.26613 -0.93293,2.06579 -0.99957,0.86629 -2.33234,0.86629 -3.59846,0 -6.19735,-3.19863 -2.13242,-2.59889 -2.13242,-6.53054 0,-1.33277 0.26655,-4.39812 z m 8.32977,-21.92397 q -0.79965,-1.46604 -1.73259,-2.13242 -0.93293,-0.73302 -1.99914,-0.73302 -5.06451,0 -10.9953,8.86288 -6.53055,9.79582 -6.53055,16.59291 0,1.66595 0.59975,2.53225 0.66638,0.8663 1.9325,0.8663 3.19864,0 7.46348,-6.7971 2.39898,-3.73174 5.9308,-10.9953 2.33234,-4.73131 3.39855,-6.26399 0.5331,-0.79966 1.9325,-1.93251 z" />
        <path
           id="path4181"
           style=""
           d="m 610.78086,558.92761 q -1.99914,5.19778 -2.99871,8.39641 -0.99958,3.19864 -0.99958,4.46476 0,1.66596 1.59932,1.66596 2.39897,0 6.19735,-4.5314 1.79923,-2.19906 5.33106,-7.92995 1.3994,-2.26569 2.93208,-2.26569 1.73259,0 1.73259,1.66595 0,2.86544 -6.59718,11.59505 -6.86373,9.12943 -12.7279,9.12943 -2.53225,0 -4.13156,-2.13242 -1.13285,-1.53268 -1.13285,-3.73174 0,-3.73174 2.2657,-10.32892 2.26569,-6.59718 6.73045,-16.05981 11.46177,-24.05638 23.39001,-39.64972 9.52926,-12.52798 15.79325,-12.52798 1.99914,0 3.26527,1.53268 1.33276,1.53268 1.33276,3.53183 0,9.32934 -16.65954,31.05339 -7.46348,9.66254 -17.85904,19.32508 -2.73216,2.53225 -7.46348,6.79709 z m 4.73132,-10.59547 q 13.86074,-11.8616 24.7894,-29.98718 5.66425,-9.39599 5.66425,-12.46135 0,-1.46604 -1.26613,-1.46604 -3.6651,0 -13.32764,14.59377 -7.99658,11.99487 -15.85988,29.3208 z" />
      </g>
      <g
         transform="scale(1.0108542,0.98926234)"
         style="font-style:normal;font-variant:normal;font-weight:normal;font-stretch:normal;font-size:136.4750061px;line-height:110.00000238%;font-family:'Freestyle Script';-inkscape-font-specification:'Freestyle Script, Normal';text-align:start;letter-spacing:0px;word-spacing:0px;writing-mode:lr-tb;text-anchor:start;fill:#000000;fill-opacity:1;stroke:none;stroke-width:1px;stroke-linecap:butt;stroke-linejoin:miter;stroke-opacity:1"
         id="g4183">
        <path
           style=""
           d="m 128.65358,523.60937 q 2.86544,-1.53268 11.52841,-6.93037 2.53225,-1.59932 13.7941,-7.92994 4.59804,-2.53225 11.72832,-5.79753 4.33149,-1.99914 5.9308,-1.99914 0.93294,0 1.79923,0.73302 0.99958,0.99957 0.99958,2.53225 0,1.86587 -1.66596,2.99872 -0.79966,0.59974 -4.13157,1.66595 -21.39085,8.32978 -35.51815,20.32465 -1.93251,7.19692 -2.99872,14.06066 -2.19906,14.6604 -2.19906,24.72276 0,3.59847 0.8663,5.46434 0.93293,1.79923 2.73216,1.79923 3.53183,0 14.06066,-14.86032 1.99915,-2.7988 3.19864,-2.7988 1.53267,0 1.53267,1.86587 0,2.66552 -5.79752,11.06194 -8.32977,12.26142 -15.19351,12.26142 -5.73088,0 -7.59675,-6.13071 -1.19949,-3.79838 -1.19949,-9.5959 0,-11.59504 2.93208,-24.72277 2.93208,-13.19436 3.53183,-16.39299 -3.73174,6.86373 -13.92738,23.39 -12.19479,21.05767 -14.593766,33.51901 -0.932934,4.06493 -3.731738,4.06493 -1.865869,0 -2.865442,-1.73259 -0.533106,-0.99958 -0.533106,-2.53225 0,-5.19778 5.397693,-17.19266 3.065357,-6.73045 8.396409,-16.65954 1.99915,-3.6651 8.92952,-14.52713 15.19351,-24.05638 19.12516,-35.05168 1.46604,-3.93166 2.13242,-4.86459 1.19949,-1.53268 2.93208,-1.53268 0.93294,0 1.66596,0.59974 0.99957,0.8663 0.99957,2.2657 0,5.79752 -12.26143,27.9214 z"
           id="path4185" />
        <path
           style=""
           d="m 158.30758,568.25696 0,1.19948 q 0,1.46604 0.73302,2.53226 1.66595,2.46561 5.46433,2.46561 8.32977,0 19.25843,-12.79453 1.93251,-2.19906 3.26527,-2.19906 0.73302,0 1.33277,0.73302 0.39983,0.5331 0.39983,0.99957 0,2.59889 -6.39727,8.79624 -4.99786,4.86459 -10.66211,7.92994 -5.66425,3.06536 -10.52883,3.06536 -4.99787,0 -7.86331,-3.46518 -1.93251,-2.39898 -1.93251,-6.53055 0,-11.26185 10.59548,-22.05724 8.59632,-8.79624 14.99359,-8.79624 1.73259,0 3.13199,1.06621 1.7326,1.39941 1.7326,3.6651 0,3.53183 -3.26528,8.66297 -6.73045,10.66211 -20.258,14.72704 z m 1.46604,-5.19778 q 4.66467,-1.59932 7.3302,-3.59846 4.66467,-3.59847 7.39683,-8.12986 0.99958,-1.59932 0.99958,-2.86544 0,-1.33277 -1.26613,-1.33277 -1.73259,0 -4.93122,2.59889 -5.73089,4.59804 -9.52926,13.32764 z"
           id="path4187" />
        <path
           style=""
           d="m 221.28067,536.80373 q 4.13156,0 6.19735,1.46604 2.06578,1.46604 2.06578,4.46476 0,3.93165 -2.93208,7.59676 -2.7988,3.46518 -8.39641,5.5976 -3.06536,1.13285 -5.13114,1.13285 -2.7988,0 -2.7988,-2.46561 0,-1.66596 1.59931,-2.53225 0.39983,-0.19992 4.5314,-1.13285 2.46561,-0.53311 4.5314,-2.33234 1.79923,-1.53268 1.79923,-3.33191 0,-1.3994 -0.79966,-2.06578 -0.79966,-0.66638 -2.39898,-0.66638 -3.86501,0 -8.52968,3.13199 -5.3977,3.53183 -5.3977,8.39641 0,3.46519 3.53183,8.66297 3.93165,5.66424 3.93165,9.5959 0,5.86416 -5.19778,9.19607 -3.19863,2.06578 -7.26356,2.06578 -6.39727,0 -9.72918,-4.59803 -2.33233,-3.26528 -2.33233,-7.73003 0,-5.19778 2.66552,-8.72961 1.7326,-2.33233 3.59847,-2.33233 1.66595,0 1.66595,1.33276 0,0.53311 -0.59974,1.59932 -1.53268,2.86544 -1.53268,6.73045 0,3.26527 2.33234,5.53097 2.06578,1.99915 4.73131,1.99915 2.59889,0 4.06493,-1.73259 1.19948,-1.46604 1.19948,-3.73174 0,-2.79881 -3.19863,-7.26356 -4.39812,-6.13072 -4.39812,-11.12858 0,-6.66382 7.26356,-11.79496 7.06365,-4.93123 14.92696,-4.93123 z"
           id="path4189" />
        <path
           style=""
           d="m 241.53867,553.79647 q 4.93123,-5.13114 9.86246,-8.59633 6.33062,-4.39812 9.06279,-4.39812 1.13285,0 2.19906,0.93294 1.19949,1.06621 1.19949,2.46561 0,1.79923 -2.86545,5.59761 -5.53097,7.3302 -8.39641,13.32764 -2.53225,5.19778 -2.53225,7.06364 0,1.79924 1.73259,1.79924 3.59847,0 12.12815,-12.79454 1.7326,-2.59889 3.132,-2.59889 1.3994,0 1.3994,1.59932 0,2.59889 -5.0645,9.92909 -4.39812,6.39727 -9.19607,9.79581 -3.39855,2.33234 -6.13071,2.33234 -2.86545,0 -4.13157,-2.46561 -0.79966,-1.53268 -0.79966,-3.39855 0,-5.9308 4.19821,-13.52755 0.99957,-1.79923 5.99743,-10.26228 -13.59419,6.86373 -22.99017,29.65399 -0.8663,2.59889 -2.66553,2.59889 -1.26612,0 -2.06578,-0.8663 -0.79966,-0.93293 -0.79966,-2.26569 0,-2.19906 4.26484,-12.46135 7.92995,-19.05852 14.79368,-32.25288 6.86373,-13.32764 15.26015,-27.65485 1.99914,-3.46518 3.13199,-4.66467 1.13285,-1.19949 2.39897,-1.19949 1.19949,0 2.06579,1.26613 0.66638,0.93293 0.66638,2.13242 0,1.86587 -2.13242,4.99787 -7.19693,11.12857 -14.32721,24.45621 -7.66339,14.26057 -9.39599,19.45835 z"
           id="path4191" />
        <path
           style=""
           d="m 287.58566,570.05619 q -2.19906,3.86501 -4.33148,6.53054 -4.19821,5.19778 -8.32978,5.19778 -3.59846,0 -5.5976,-3.39855 -1.26613,-2.19906 -1.26613,-5.19778 0,-7.39684 4.66467,-16.32635 5.19778,-9.92909 12.52798,-15.26015 4.79795,-3.46518 9.26271,-3.46518 2.7988,0 4.66467,1.73259 1.59932,1.53268 1.59932,3.46519 0,1.46604 -1.13285,4.06492 0.99957,1.39941 0.99957,2.46562 0,1.3994 -1.86587,4.59803 -1.9325,3.26527 -3.86501,8.66297 -2.06578,5.73088 -2.06578,9.19607 0,2.7988 1.66595,4.59803 0.46647,0.46647 2.73217,1.53268 1.66595,0.79966 1.66595,2.7988 0,1.26613 -0.93293,2.06579 -0.99958,0.86629 -2.33234,0.86629 -3.59846,0 -6.19735,-3.19863 -2.13242,-2.59889 -2.13242,-6.53054 0,-1.33277 0.26655,-4.39812 z m 8.32977,-21.92397 q -0.79966,-1.46604 -1.73259,-2.13242 -0.93294,-0.73302 -1.99915,-0.73302 -5.0645,0 -10.9953,8.86288 -6.53054,9.79582 -6.53054,16.59291 0,1.66595 0.59974,2.53225 0.66639,0.8663 1.93251,0.8663 3.19863,0 7.46348,-6.7971 2.39897,-3.73174 5.9308,-10.9953 2.33233,-4.73131 3.39854,-6.26399 0.53311,-0.79966 1.93251,-1.93251 z"
           id="path4193" />
        <path
           style=""
           d="m 328.03503,562.85926 q -4.06493,6.99701 -6.99701,10.39556 -7.13029,8.39641 -11.8616,8.39641 -2.86544,0 -4.39812,-3.13199 -1.06621,-2.06579 -1.06621,-4.33148 0,-4.39812 3.79838,-12.7279 3.39855,-7.26356 5.73088,-11.46177 1.7326,-2.99871 2.06579,-3.93165 0.79966,-1.79923 1.3994,-2.73216 0.8663,-1.39941 2.39897,-1.39941 0.79966,0 1.39941,0.66639 0.66638,0.79965 0.66638,1.86586 0,2.99872 -5.3977,13.39428 -5.39769,10.26228 -5.39769,13.59419 0,2.13242 1.66596,2.13242 2.86544,0 8.12985,-7.46347 2.33234,-3.33191 4.86459,-8.46305 -0.0666,-1.66596 -0.0666,-2.53226 0,-4.99786 1.86587,-8.66296 2.39898,-4.73131 6.46391,-4.73131 2.33233,0 2.33233,2.7988 0,4.46476 -4.66467,13.12773 1.33276,0.26655 2.13242,0.26655 2.19906,0 5.73089,-2.79881 2.7988,-2.26569 3.6651,-2.26569 0.73302,0 1.53268,0.86629 0.59974,0.73302 0.59974,1.46604 0,2.39898 -3.33191,5.3977 -3.86502,3.39854 -8.79624,3.39854 -1.93251,0 -4.46476,-1.13285 z"
           id="path4195" />
        <path
           style=""
           d="m 401.73688,549.19844 -0.93294,1.99914 q -6.93037,14.39385 -9.26271,20.52456 -3.59846,9.5959 -4.06493,11.19522 -1.3994,4.46476 -3.6651,4.46476 -1.59931,0 -2.73216,-1.46604 -0.99957,-1.26613 -0.99957,-2.73217 0,-5.73088 14.72704,-36.18453 -2.66553,-1.99915 -2.66553,-3.9983 0,-1.53267 1.33276,-2.66552 1.13285,-0.93294 2.46561,-0.93294 0.93294,0 2.46562,0.46647 10.86202,-20.65784 12.72789,-26.32208 -1.66595,0.93293 -4.26484,2.66552 -1.46604,0.93294 -2.59889,0.93294 -1.26613,0 -2.06579,-1.26613 -0.5331,-0.86629 -0.5331,-1.79923 0,-3.13199 5.39769,-6.73046 4.33148,-2.86544 8.06322,-4.79794 0.59975,-1.59932 0.73302,-2.19906 0.66638,-2.53226 1.3994,-3.39855 0.73302,-0.8663 2.2657,-0.8663 3.132,0 3.132,3.46519 4.59803,-1.33277 8.12986,-1.99915 3.53182,-0.66638 5.99743,-0.66638 6.46391,0 10.92867,4.93123 4.1982,4.66467 4.1982,10.46219 0,10.06237 -8.39641,20.12473 -7.19692,8.52969 -17.85903,13.32764 -9.19607,4.06493 -18.39214,4.06493 -2.19906,0 -5.53097,-0.59974 z m 18.65869,-40.6493 q -2.19906,6.59718 -7.19692,16.9261 -6.13072,12.52798 -7.92995,16.393 3.6651,0.66638 5.13114,0.66638 7.59675,0 17.72576,-6.13072 9.79581,-5.99743 15.32678,-14.86031 3.39855,-5.39769 3.39855,-9.5959 0,-3.79838 -2.59889,-5.66425 -2.53225,-1.9325 -7.73003,-1.9325 -3.93165,0 -7.99658,1.06621 -3.99829,0.99957 -8.12986,3.13199 z"
           id="path4197" />
        <path
           style=""
           d="m 455.24733,570.05619 q -2.19906,3.86501 -4.33149,6.53054 -4.1982,5.19778 -8.32977,5.19778 -3.59846,0 -5.59761,-3.39855 -1.26612,-2.19906 -1.26612,-5.19778 0,-7.39684 4.66467,-16.32635 5.19778,-9.92909 12.52798,-15.26015 4.79795,-3.46518 9.26271,-3.46518 2.7988,0 4.66467,1.73259 1.59932,1.53268 1.59932,3.46519 0,1.46604 -1.13285,4.06492 0.99957,1.39941 0.99957,2.46562 0,1.3994 -1.86587,4.59803 -1.93251,3.26527 -3.86501,8.66297 -2.06579,5.73088 -2.06579,9.19607 0,2.7988 1.66596,4.59803 0.46646,0.46647 2.73216,1.53268 1.66596,0.79966 1.66596,2.7988 0,1.26613 -0.93294,2.06579 -0.99957,0.86629 -2.33233,0.86629 -3.59847,0 -6.19735,-3.19863 -2.13243,-2.59889 -2.13243,-6.53054 0,-1.33277 0.26656,-4.39812 z m 8.32977,-21.92397 q -0.79966,-1.46604 -1.73259,-2.13242 -0.93294,-0.73302 -1.99915,-0.73302 -5.0645,0 -10.9953,8.86288 -6.53054,9.79582 -6.53054,16.59291 0,1.66595 0.59974,2.53225 0.66638,0.8663 1.93251,0.8663 3.19863,0 7.46348,-6.7971 2.39897,-3.73174 5.93079,-10.9953 2.33234,-4.73131 3.39855,-6.26399 0.53311,-0.79966 1.93251,-1.93251 z"
           id="path4199" />
        <path
           style=""
           d="m 483.23536,559.12753 q 6.53054,-6.99701 15.06023,-13.66083 3.06535,-2.39898 6.53054,-4.46476 1.73259,-0.99957 2.19906,-0.99957 0.99957,0 1.99914,1.46604 0.59975,0.79965 0.59975,1.46604 0,1.19948 -2.53225,3.26527 -6.7971,5.39769 -6.7971,8.12986 0,1.53267 1.7326,1.53267 2.86544,0 9.86245,-4.73131 1.19948,-0.79965 1.99914,-0.79965 0.53311,0 1.06621,0.5331 0.59975,0.59974 0.59975,1.26613 0,1.99914 -5.59761,6.13071 -5.86416,4.39812 -11.12858,4.39812 -2.13242,0 -3.93165,-1.13285 -1.53268,-0.93293 -1.53268,-3.33191 0,-1.66595 1.3994,-3.79838 -5.26441,3.73174 -12.3947,12.79454 -4.13157,5.5976 -8.1965,13.7941 -1.53268,3.06536 -3.79837,3.06536 -2.46562,0 -2.46562,-2.33234 0,-2.2657 3.86502,-12.12815 5.73088,-14.6604 11.99487,-22.72362 3.86502,-4.99786 6.46391,-4.99786 0.86629,0 1.59931,0.5331 0.8663,0.66638 0.8663,1.66596 0,0.99957 -1.33276,2.7988 -0.26656,0.33319 -3.53183,4.46476 -2.99872,3.93165 -4.59803,7.79667 z"
           id="path4201" />
        <path
           style=""
           d="m 535.87954,562.45943 q -5.73088,7.73003 -8.46305,10.66211 -3.39855,3.66511 -5.86416,5.59761 -2.7988,2.06579 -5.19778,2.06579 -2.33233,0 -3.59846,-2.33234 -0.99957,-1.79923 -0.99957,-3.99829 0,-7.26356 8.66296,-19.99146 7.86331,-11.5284 11.66168,-11.5284 0.93294,0 1.79923,0.86629 0.79966,0.79966 0.79966,1.86587 0,1.46604 -2.59889,4.06493 -5.53097,5.46433 -9.5959,12.32807 -3.46518,5.86416 -3.46518,7.66339 0,1.33276 1.19949,1.33276 3.99829,0 17.32593,-17.32593 4.33148,-5.59761 5.26441,-6.4639 1.73259,-1.59932 3.53183,-1.59932 1.19948,0 2.06578,0.66638 0.73302,0.66639 0.73302,1.39941 0,0.79965 -3.19863,6.73045 -7.26357,12.79453 -7.26357,17.25929 0,1.7326 1.39941,1.7326 2.39897,0 6.59718,-5.53097 3.99829,-5.19778 7.39684,-13.19436 1.46604,-3.46519 2.59888,-9.12944 1.33277,-6.4639 5.33106,-6.4639 2.2657,0 2.2657,2.53225 0,8.7296 -9.72918,23.98975 -10.129,15.92652 -17.05937,15.92652 -5.13114,0 -5.13114,-6.33062 0,-5.19778 3.53182,-12.79454 z"
           id="path4203" />
        <path
           style=""
           d="m 583.99232,570.05619 q -2.19906,3.86501 -4.33148,6.53054 -4.19821,5.19778 -8.32977,5.19778 -3.59847,0 -5.59761,-3.39855 -1.26613,-2.19906 -1.26613,-5.19778 0,-7.39684 4.66468,-16.32635 5.19777,-9.92909 12.52797,-15.26015 4.79795,-3.46518 9.26271,-3.46518 2.79881,0 4.66468,1.73259 1.59931,1.53268 1.59931,3.46519 0,1.46604 -1.13285,4.06492 0.99958,1.39941 0.99958,2.46562 0,1.3994 -1.86587,4.59803 -1.93251,3.26527 -3.86502,8.66297 -2.06578,5.73088 -2.06578,9.19607 0,2.7988 1.66595,4.59803 0.46647,0.46647 2.73217,1.53268 1.66595,0.79966 1.66595,2.7988 0,1.26613 -0.93293,2.06579 -0.99957,0.86629 -2.33234,0.86629 -3.59846,0 -6.19735,-3.19863 -2.13242,-2.59889 -2.13242,-6.53054 0,-1.33277 0.26655,-4.39812 z m 8.32977,-21.92397 q -0.79965,-1.46604 -1.73259,-2.13242 -0.93293,-0.73302 -1.99914,-0.73302 -5.06451,0 -10.9953,8.86288 -6.53055,9.79582 -6.53055,16.59291 0,1.66595 0.59975,2.53225 0.66638,0.8663 1.9325,0.8663 3.19864,0 7.46348,-6.7971 2.39898,-3.73174 5.9308,-10.9953 2.33234,-4.73131 3.39855,-6.26399 0.5331,-0.79966 1.9325,-1.93251 z"
           id="path4205" />
        <path
           style=""
           d="m 610.78086,558.92761 q -1.99914,5.19778 -2.99871,8.39641 -0.99958,3.19864 -0.99958,4.46476 0,1.66596 1.59932,1.66596 2.39897,0 6.19735,-4.5314 1.79923,-2.19906 5.33106,-7.92995 1.3994,-2.26569 2.93208,-2.26569 1.73259,0 1.73259,1.66595 0,2.86544 -6.59718,11.59505 -6.86373,9.12943 -12.7279,9.12943 -2.53225,0 -4.13156,-2.13242 -1.13285,-1.53268 -1.13285,-3.73174 0,-3.73174 2.2657,-10.32892 2.26569,-6.59718 6.73045,-16.05981 11.46177,-24.05638 23.39001,-39.64972 9.52926,-12.52798 15.79325,-12.52798 1.99914,0 3.26527,1.53268 1.33276,1.53268 1.33276,3.53183 0,9.32934 -16.65954,31.05339 -7.46348,9.66254 -17.85904,19.32508 -2.73216,2.53225 -7.46348,6.79709 z m 4.73132,-10.59547 q 13.86074,-11.8616 24.7894,-29.98718 5.66425,-9.39599 5.66425,-12.46135 0,-1.46604 -1.26613,-1.46604 -3.6651,0 -13.32764,14.59377 -7.99658,11.99487 -15.85988,29.3208 z"
           id="path4207" />
      </g>
    </g>
  </g>
</svg>
